<mxfile host="app.diagrams.net" modified="2023-02-19T15:07:17.112Z" agent="5.0 (Macintosh; Intel Mac OS X 10_15_7) AppleWebKit/537.36 (KHTML, like Gecko) Chrome/110.0.0.0 Safari/537.36" etag="WBdbPdokd7rpvNgq9f8z" version="20.8.20" type="github" pages="2">
  <diagram id="T4FZp3LpQJDMUk-Gc5tJ" name="课题1">
    <mxGraphModel dx="1728" dy="637" grid="1" gridSize="10" guides="1" tooltips="1" connect="1" arrows="1" fold="1" page="1" pageScale="1" pageWidth="827" pageHeight="1169" math="0" shadow="0">
      <root>
        <mxCell id="0" />
        <mxCell id="1" parent="0" />
        <mxCell id="LZYaPzqgYT7a62YiZSau-1" value="&lt;div style=&quot;color: rgb(101, 123, 131); background-color: rgb(253, 246, 227); font-family: Menlo, Monaco, &amp;quot;Courier New&amp;quot;, monospace; line-height: 18px; font-size: 16px;&quot;&gt;&lt;span style=&quot;color: rgb(38, 139, 210); font-size: 16px;&quot;&gt;ModelModal&lt;/span&gt;&lt;/div&gt;" style="rounded=0;whiteSpace=wrap;html=1;verticalAlign=top;fontSize=16;fillColor=none;strokeColor=#0000CC;strokeWidth=2;" parent="1" vertex="1">
          <mxGeometry x="80" y="250" width="680" height="510" as="geometry" />
        </mxCell>
        <mxCell id="LZYaPzqgYT7a62YiZSau-3" value="&lt;meta charset=&quot;utf-8&quot; style=&quot;font-size: 16px;&quot;&gt;&lt;div style=&quot;color: rgb(101, 123, 131); background-color: rgb(253, 246, 227); font-family: Menlo, Monaco, &amp;quot;Courier New&amp;quot;, monospace; font-weight: normal; font-size: 16px; line-height: 18px;&quot;&gt;&lt;div style=&quot;font-size: 16px;&quot;&gt;&lt;span style=&quot;color: rgb(133, 153, 0); font-size: 16px;&quot;&gt;Modal&lt;/span&gt;&lt;/div&gt;&lt;/div&gt;" style="rounded=0;whiteSpace=wrap;html=1;fontSize=16;fillColor=none;verticalAlign=top;" parent="1" vertex="1">
          <mxGeometry x="100" y="290" width="640" height="450" as="geometry" />
        </mxCell>
        <mxCell id="LZYaPzqgYT7a62YiZSau-4" value="&lt;meta charset=&quot;utf-8&quot; style=&quot;font-size: 15px;&quot;&gt;&lt;div style=&quot;color: rgb(101, 123, 131); background-color: rgb(253, 246, 227); font-family: Menlo, Monaco, &amp;quot;Courier New&amp;quot;, monospace; font-weight: normal; font-size: 15px; line-height: 18px;&quot;&gt;&lt;div style=&quot;font-size: 15px;&quot;&gt;&lt;span style=&quot;color: rgb(133, 153, 0); font-size: 15px;&quot;&gt;Model&lt;/span&gt;&lt;/div&gt;&lt;/div&gt;" style="rounded=0;whiteSpace=wrap;html=1;fontSize=15;verticalAlign=top;" parent="1" vertex="1">
          <mxGeometry x="120" y="330" width="600" height="390" as="geometry" />
        </mxCell>
        <mxCell id="LZYaPzqgYT7a62YiZSau-5" value="&lt;meta charset=&quot;utf-8&quot; style=&quot;font-size: 10px;&quot;&gt;&lt;div style=&quot;color: rgb(101, 123, 131); background-color: rgb(253, 246, 227); font-family: Menlo, Monaco, &amp;quot;Courier New&amp;quot;, monospace; font-weight: normal; font-size: 10px; line-height: 18px;&quot;&gt;&lt;div style=&quot;font-size: 10px;&quot;&gt;&lt;span style=&quot;color: rgb(147, 161, 161); font-size: 10px;&quot;&gt;&amp;lt;&lt;/span&gt;&lt;span style=&quot;color: rgb(38, 139, 210); font-size: 10px;&quot;&gt;div&lt;/span&gt;&lt;span style=&quot;color: rgb(101, 123, 131); font-size: 10px;&quot;&gt; &lt;/span&gt;&lt;span style=&quot;color: rgb(147, 161, 161); font-size: 10px;&quot;&gt;className&lt;/span&gt;&lt;span style=&quot;color: rgb(133, 153, 0); font-size: 10px;&quot;&gt;=&lt;/span&gt;&lt;span style=&quot;color: rgb(220, 50, 47); font-size: 10px;&quot;&gt;{&lt;/span&gt;&lt;span style=&quot;color: rgb(203, 75, 22); font-size: 10px;&quot;&gt;styles&lt;/span&gt;&lt;span style=&quot;color: rgb(101, 123, 131); font-size: 10px;&quot;&gt;.&lt;/span&gt;&lt;span style=&quot;color: rgb(38, 139, 210); font-size: 10px;&quot;&gt;wrapper&lt;/span&gt;&lt;span style=&quot;color: rgb(220, 50, 47); font-size: 10px;&quot;&gt;}&lt;/span&gt;&lt;span style=&quot;color: rgb(147, 161, 161); font-size: 10px;&quot;&gt;&amp;gt;&lt;/span&gt;&lt;/div&gt;&lt;/div&gt;" style="rounded=0;whiteSpace=wrap;html=1;fontSize=10;fillColor=#fff2cc;verticalAlign=top;strokeColor=#d6b656;" parent="1" vertex="1">
          <mxGeometry x="130" y="360" width="580" height="350" as="geometry" />
        </mxCell>
        <mxCell id="LZYaPzqgYT7a62YiZSau-6" value="&lt;meta charset=&quot;utf-8&quot; style=&quot;font-size: 10px;&quot;&gt;&lt;div style=&quot;color: rgb(101, 123, 131); background-color: rgb(253, 246, 227); font-family: Menlo, Monaco, &amp;quot;Courier New&amp;quot;, monospace; font-weight: normal; font-size: 10px; line-height: 18px;&quot;&gt;&lt;div style=&quot;font-size: 10px;&quot;&gt;&lt;span style=&quot;color: rgb(147, 161, 161); font-size: 10px;&quot;&gt;&amp;lt;&lt;/span&gt;&lt;span style=&quot;color: rgb(38, 139, 210); font-size: 10px;&quot;&gt;div&lt;/span&gt;&lt;span style=&quot;color: rgb(101, 123, 131); font-size: 10px;&quot;&gt; &lt;/span&gt;&lt;span style=&quot;color: rgb(147, 161, 161); font-size: 10px;&quot;&gt;className&lt;/span&gt;&lt;span style=&quot;color: rgb(133, 153, 0); font-size: 10px;&quot;&gt;=&lt;/span&gt;&lt;span style=&quot;color: rgb(220, 50, 47); font-size: 10px;&quot;&gt;{&lt;/span&gt;&lt;span style=&quot;color: rgb(203, 75, 22); font-size: 10px;&quot;&gt;styles&lt;/span&gt;&lt;span style=&quot;color: rgb(101, 123, 131); font-size: 10px;&quot;&gt;.&lt;/span&gt;&lt;span style=&quot;color: rgb(38, 139, 210); font-size: 10px;&quot;&gt;top&lt;/span&gt;&lt;span style=&quot;color: rgb(220, 50, 47); font-size: 10px;&quot;&gt;}&lt;/span&gt;&lt;span style=&quot;color: rgb(147, 161, 161); font-size: 10px;&quot;&gt;&amp;gt;&lt;/span&gt;&lt;/div&gt;&lt;/div&gt;" style="rounded=0;whiteSpace=wrap;html=1;fontSize=10;fillColor=#ffe6cc;verticalAlign=top;strokeColor=#d79b00;" parent="1" vertex="1">
          <mxGeometry x="140" y="400" width="560" height="90" as="geometry" />
        </mxCell>
        <mxCell id="LZYaPzqgYT7a62YiZSau-7" value="&lt;meta charset=&quot;utf-8&quot; style=&quot;font-size: 10px;&quot;&gt;&lt;div style=&quot;color: rgb(101, 123, 131); background-color: rgb(253, 246, 227); font-family: Menlo, Monaco, &amp;quot;Courier New&amp;quot;, monospace; font-weight: normal; font-size: 10px; line-height: 18px;&quot;&gt;&lt;div style=&quot;font-size: 10px;&quot;&gt;&lt;span style=&quot;color: rgb(133, 153, 0); font-size: 10px;&quot;&gt;Radio.Group&lt;/span&gt;&lt;/div&gt;&lt;/div&gt;" style="rounded=0;whiteSpace=wrap;html=1;fontSize=10;fillColor=none;verticalAlign=top;" parent="1" vertex="1">
          <mxGeometry x="150" y="430" width="540" height="50" as="geometry" />
        </mxCell>
        <mxCell id="LZYaPzqgYT7a62YiZSau-8" value="&lt;div style=&quot;color: rgb(101, 123, 131); background-color: rgb(253, 246, 227); font-family: Menlo, Monaco, &amp;quot;Courier New&amp;quot;, monospace; font-weight: normal; font-size: 12px; line-height: 18px;&quot;&gt;&lt;div&gt;&lt;span style=&quot;color: #859900;&quot;&gt;Radio.Button&lt;/span&gt;&lt;/div&gt;&lt;/div&gt;" style="text;whiteSpace=wrap;html=1;fontSize=10;" parent="1" vertex="1">
          <mxGeometry x="290" y="450" width="130" height="40" as="geometry" />
        </mxCell>
        <mxCell id="LZYaPzqgYT7a62YiZSau-9" value="&lt;div style=&quot;color: rgb(101, 123, 131); background-color: rgb(253, 246, 227); font-family: Menlo, Monaco, &amp;quot;Courier New&amp;quot;, monospace; font-weight: normal; font-size: 12px; line-height: 18px;&quot;&gt;&lt;div&gt;&lt;span style=&quot;color: #859900;&quot;&gt;Radio.Button&lt;/span&gt;&lt;/div&gt;&lt;/div&gt;" style="text;whiteSpace=wrap;html=1;fontSize=10;" parent="1" vertex="1">
          <mxGeometry x="460" y="450" width="130" height="40" as="geometry" />
        </mxCell>
        <mxCell id="LZYaPzqgYT7a62YiZSau-10" value="&lt;div style=&quot;background-color: rgb(253, 246, 227); font-family: Menlo, Monaco, &amp;quot;Courier New&amp;quot;, monospace; font-weight: normal; font-size: 10px; line-height: 18px;&quot;&gt;&lt;div style=&quot;font-size: 10px;&quot;&gt;&lt;span style=&quot;color: rgb(147, 161, 161); font-size: 10px;&quot;&gt;&amp;lt;&lt;/span&gt;&lt;span style=&quot;color: rgb(38, 139, 210); font-size: 10px;&quot;&gt;div&lt;/span&gt;&lt;span style=&quot;color: rgb(101, 123, 131); font-size: 10px;&quot;&gt; &lt;/span&gt;&lt;span style=&quot;color: rgb(147, 161, 161); font-size: 10px;&quot;&gt;className&lt;/span&gt;&lt;span style=&quot;color: rgb(133, 153, 0); font-size: 10px;&quot;&gt;=&lt;/span&gt;&lt;span style=&quot;color: rgb(220, 50, 47); font-size: 10px;&quot;&gt;{&lt;/span&gt;&lt;span style=&quot;color: rgb(203, 75, 22); font-size: 10px;&quot;&gt;styles&lt;/span&gt;&lt;span style=&quot;color: rgb(101, 123, 131); font-size: 10px;&quot;&gt;.&lt;/span&gt;&lt;span style=&quot;font-size: 10px;&quot;&gt;&lt;font color=&quot;#268bd2&quot;&gt;container&lt;/font&gt;&lt;/span&gt;&lt;span style=&quot;color: rgb(220, 50, 47); font-size: 10px;&quot;&gt;}&lt;/span&gt;&lt;span style=&quot;color: rgb(147, 161, 161); font-size: 10px;&quot;&gt;&amp;gt;&lt;/span&gt;&lt;/div&gt;&lt;/div&gt;" style="rounded=0;whiteSpace=wrap;html=1;fontSize=10;fillColor=#dae8fc;verticalAlign=top;strokeColor=#6c8ebf;" parent="1" vertex="1">
          <mxGeometry x="140" y="510" width="560" height="180" as="geometry" />
        </mxCell>
        <mxCell id="LZYaPzqgYT7a62YiZSau-11" value="&lt;meta charset=&quot;utf-8&quot;&gt;&lt;div style=&quot;color: rgb(101, 123, 131); background-color: rgb(253, 246, 227); font-family: Menlo, Monaco, &amp;quot;Courier New&amp;quot;, monospace; font-weight: normal; font-size: 12px; line-height: 18px;&quot;&gt;&lt;div&gt;&lt;span style=&quot;color: #859900;&quot;&gt;ModelInfo_Basic&lt;/span&gt;&lt;/div&gt;&lt;/div&gt;" style="text;whiteSpace=wrap;html=1;fontSize=10;" parent="1" vertex="1">
          <mxGeometry x="270" y="566" width="140" height="40" as="geometry" />
        </mxCell>
        <mxCell id="LZYaPzqgYT7a62YiZSau-22" style="edgeStyle=orthogonalEdgeStyle;rounded=0;orthogonalLoop=1;jettySize=auto;html=1;entryX=0.5;entryY=0;entryDx=0;entryDy=0;fontSize=11;strokeColor=#d79b00;fillColor=#ffe6cc;strokeWidth=2;" parent="1" source="LZYaPzqgYT7a62YiZSau-12" target="LZYaPzqgYT7a62YiZSau-13" edge="1">
          <mxGeometry relative="1" as="geometry">
            <Array as="points">
              <mxPoint x="510" y="660" />
              <mxPoint x="420" y="660" />
            </Array>
          </mxGeometry>
        </mxCell>
        <mxCell id="LZYaPzqgYT7a62YiZSau-12" value="&lt;meta charset=&quot;utf-8&quot;&gt;&lt;div style=&quot;color: rgb(101, 123, 131); background-color: rgb(253, 246, 227); font-family: Menlo, Monaco, &amp;quot;Courier New&amp;quot;, monospace; font-weight: normal; font-size: 12px; line-height: 18px;&quot;&gt;&lt;div&gt;&lt;span style=&quot;color: #859900;&quot;&gt;ModelInfo_Run&lt;/span&gt;&lt;/div&gt;&lt;/div&gt;" style="text;whiteSpace=wrap;html=1;fontSize=10;" parent="1" vertex="1">
          <mxGeometry x="460" y="566" width="100" height="30" as="geometry" />
        </mxCell>
        <mxCell id="LZYaPzqgYT7a62YiZSau-13" value="&lt;meta charset=&quot;utf-8&quot; style=&quot;font-size: 15px;&quot;&gt;&lt;div style=&quot;color: rgb(101, 123, 131); background-color: rgb(253, 246, 227); font-family: Menlo, Monaco, &amp;quot;Courier New&amp;quot;, monospace; font-weight: normal; font-size: 15px; line-height: 18px;&quot;&gt;&lt;div style=&quot;font-size: 15px;&quot;&gt;&lt;span style=&quot;color: rgb(133, 153, 0); font-size: 15px;&quot;&gt;ModelInfo_Run&lt;/span&gt;&lt;/div&gt;&lt;/div&gt;" style="rounded=0;whiteSpace=wrap;html=1;fontSize=16;fillColor=none;verticalAlign=top;strokeColor=#0000CC;strokeWidth=2;" parent="1" vertex="1">
          <mxGeometry x="80" y="790" width="680" height="370" as="geometry" />
        </mxCell>
        <mxCell id="LZYaPzqgYT7a62YiZSau-14" value="&lt;meta charset=&quot;utf-8&quot; style=&quot;font-size: 10px;&quot;&gt;&lt;div style=&quot;color: rgb(101, 123, 131); background-color: rgb(253, 246, 227); font-family: Menlo, Monaco, &amp;quot;Courier New&amp;quot;, monospace; font-weight: normal; font-size: 10px; line-height: 18px;&quot;&gt;&lt;div style=&quot;font-size: 10px;&quot;&gt;&lt;span style=&quot;color: rgb(147, 161, 161); font-size: 10px;&quot;&gt;&amp;lt;&lt;/span&gt;&lt;span style=&quot;color: rgb(38, 139, 210); font-size: 10px;&quot;&gt;div&lt;/span&gt;&lt;span style=&quot;color: rgb(101, 123, 131); font-size: 10px;&quot;&gt; &lt;/span&gt;&lt;span style=&quot;color: rgb(147, 161, 161); font-size: 10px;&quot;&gt;className&lt;/span&gt;&lt;span style=&quot;color: rgb(133, 153, 0); font-size: 10px;&quot;&gt;=&lt;/span&gt;&lt;span style=&quot;color: rgb(220, 50, 47); font-size: 10px;&quot;&gt;{&lt;/span&gt;&lt;span style=&quot;color: rgb(203, 75, 22); font-size: 10px;&quot;&gt;styles&lt;/span&gt;&lt;span style=&quot;color: rgb(101, 123, 131); font-size: 10px;&quot;&gt;.&lt;/span&gt;&lt;span style=&quot;color: rgb(38, 139, 210); font-size: 10px;&quot;&gt;wrapper&lt;/span&gt;&lt;span style=&quot;color: rgb(220, 50, 47); font-size: 10px;&quot;&gt;}&lt;/span&gt;&lt;span style=&quot;color: rgb(147, 161, 161); font-size: 10px;&quot;&gt;&amp;gt;&lt;/span&gt;&lt;/div&gt;&lt;/div&gt;" style="rounded=0;whiteSpace=wrap;html=1;fontSize=10;fillColor=#fff2cc;verticalAlign=top;strokeColor=#d6b656;" parent="1" vertex="1">
          <mxGeometry x="100" y="830" width="640" height="310" as="geometry" />
        </mxCell>
        <mxCell id="LZYaPzqgYT7a62YiZSau-15" value="&lt;div style=&quot;color: rgb(101, 123, 131); background-color: rgb(253, 246, 227); font-family: Menlo, Monaco, &amp;quot;Courier New&amp;quot;, monospace; font-weight: normal; font-size: 11px; line-height: 18px;&quot;&gt;&lt;div style=&quot;font-size: 11px;&quot;&gt;&lt;span style=&quot;color: rgb(133, 153, 0); font-size: 11px;&quot;&gt;Steps&lt;/span&gt;&lt;/div&gt;&lt;/div&gt;" style="rounded=0;whiteSpace=wrap;html=1;fontSize=11;fillColor=#ffe6cc;verticalAlign=top;strokeColor=#d79b00;" parent="1" vertex="1">
          <mxGeometry x="120" y="870" width="600" height="60" as="geometry" />
        </mxCell>
        <mxCell id="LZYaPzqgYT7a62YiZSau-21" value="&lt;div style=&quot;color: rgb(101, 123, 131); background-color: rgb(253, 246, 227); font-family: Menlo, Monaco, &amp;quot;Courier New&amp;quot;, monospace; font-weight: normal; font-size: 11px; line-height: 18px;&quot;&gt;&lt;div style=&quot;font-size: 11px;&quot;&gt;&lt;span style=&quot;color: rgb(133, 153, 0); font-size: 11px;&quot;&gt;div&lt;/span&gt;&lt;/div&gt;&lt;/div&gt;" style="rounded=0;whiteSpace=wrap;html=1;fontSize=11;fillColor=#dae8fc;verticalAlign=top;strokeColor=#6c8ebf;" parent="1" vertex="1">
          <mxGeometry x="120" y="950" width="600" height="170" as="geometry" />
        </mxCell>
        <mxCell id="U6TcWgrr0_R1wzN5hT8i-1" style="edgeStyle=orthogonalEdgeStyle;rounded=0;orthogonalLoop=1;jettySize=auto;html=1;entryX=1;entryY=0.5;entryDx=0;entryDy=0;" parent="1" source="LZYaPzqgYT7a62YiZSau-16" target="eDM4BhiJt45LsH72MwUt-1" edge="1">
          <mxGeometry relative="1" as="geometry" />
        </mxCell>
        <mxCell id="LZYaPzqgYT7a62YiZSau-16" value="&lt;meta charset=&quot;utf-8&quot;&gt;&lt;div style=&quot;color: rgb(101, 123, 131); background-color: rgb(253, 246, 227); font-family: Menlo, Monaco, &amp;quot;Courier New&amp;quot;, monospace; font-weight: normal; font-size: 12px; line-height: 18px;&quot;&gt;&lt;div&gt;&lt;span style=&quot;color: #859900;&quot;&gt;ModelParameters&lt;/span&gt;&lt;/div&gt;&lt;/div&gt;" style="text;whiteSpace=wrap;html=1;fontSize=15;" parent="1" vertex="1">
          <mxGeometry x="140" y="1020" width="140" height="40" as="geometry" />
        </mxCell>
        <mxCell id="LZYaPzqgYT7a62YiZSau-17" value="&lt;meta charset=&quot;utf-8&quot;&gt;&lt;div style=&quot;color: rgb(101, 123, 131); background-color: rgb(253, 246, 227); font-family: Menlo, Monaco, &amp;quot;Courier New&amp;quot;, monospace; font-weight: normal; font-size: 12px; line-height: 18px;&quot;&gt;&lt;div&gt;&lt;span style=&quot;color: #859900;&quot;&gt;ModelTask&lt;/span&gt;&lt;/div&gt;&lt;/div&gt;" style="text;whiteSpace=wrap;html=1;fontSize=15;" parent="1" vertex="1">
          <mxGeometry x="290" y="1020" width="100" height="40" as="geometry" />
        </mxCell>
        <mxCell id="LZYaPzqgYT7a62YiZSau-18" value="&lt;meta charset=&quot;utf-8&quot;&gt;&lt;div style=&quot;color: rgb(101, 123, 131); background-color: rgb(253, 246, 227); font-family: Menlo, Monaco, &amp;quot;Courier New&amp;quot;, monospace; font-weight: normal; font-size: 12px; line-height: 18px;&quot;&gt;&lt;div&gt;&lt;span style=&quot;color: #859900;&quot;&gt;ModelMonitor&lt;/span&gt;&lt;/div&gt;&lt;/div&gt;" style="text;whiteSpace=wrap;html=1;fontSize=15;" parent="1" vertex="1">
          <mxGeometry x="410" y="1020" width="120" height="40" as="geometry" />
        </mxCell>
        <mxCell id="LZYaPzqgYT7a62YiZSau-19" value="&lt;meta charset=&quot;utf-8&quot;&gt;&lt;div style=&quot;color: rgb(101, 123, 131); background-color: rgb(253, 246, 227); font-family: Menlo, Monaco, &amp;quot;Courier New&amp;quot;, monospace; font-weight: normal; font-size: 12px; line-height: 18px;&quot;&gt;&lt;div&gt;&lt;span style=&quot;color: #859900;&quot;&gt;ModelSuccess&lt;/span&gt;&lt;/div&gt;&lt;/div&gt;" style="text;whiteSpace=wrap;html=1;fontSize=15;" parent="1" vertex="1">
          <mxGeometry x="540" y="1020" width="120" height="40" as="geometry" />
        </mxCell>
        <mxCell id="LZYaPzqgYT7a62YiZSau-20" value="&lt;meta charset=&quot;utf-8&quot;&gt;&lt;div style=&quot;color: rgb(101, 123, 131); background-color: rgb(253, 246, 227); font-family: Menlo, Monaco, &amp;quot;Courier New&amp;quot;, monospace; font-weight: normal; font-size: 12px; line-height: 18px;&quot;&gt;&lt;div&gt;&lt;span style=&quot;color: #859900;&quot;&gt;ModelFaild&lt;/span&gt;&lt;/div&gt;&lt;/div&gt;" style="text;whiteSpace=wrap;html=1;fontSize=15;" parent="1" vertex="1">
          <mxGeometry x="540" y="1060" width="110" height="40" as="geometry" />
        </mxCell>
        <mxCell id="nlev7-8-w-J0k4HLFC_z-1" value="&lt;meta charset=&quot;utf-8&quot; style=&quot;font-size: 16px;&quot;&gt;&lt;div style=&quot;color: rgb(101, 123, 131); background-color: rgb(253, 246, 227); font-family: Menlo, Monaco, &amp;quot;Courier New&amp;quot;, monospace; font-weight: normal; font-size: 16px; line-height: 18px;&quot;&gt;&lt;div style=&quot;font-size: 16px;&quot;&gt;&lt;span style=&quot;color: rgb(38, 139, 210); font-size: 16px;&quot;&gt;ModelDrawer&lt;/span&gt;&lt;/div&gt;&lt;/div&gt;" style="rounded=0;whiteSpace=wrap;html=1;fontSize=16;fillColor=none;verticalAlign=top;strokeColor=#0000CC;strokeWidth=2;" parent="1" vertex="1">
          <mxGeometry x="80" y="10" width="680" height="210" as="geometry" />
        </mxCell>
        <mxCell id="nlev7-8-w-J0k4HLFC_z-22" style="edgeStyle=orthogonalEdgeStyle;rounded=0;orthogonalLoop=1;jettySize=auto;html=1;entryX=1;entryY=0.5;entryDx=0;entryDy=0;strokeColor=#d79b00;fillColor=#ffe6cc;strokeWidth=2;" parent="1" source="nlev7-8-w-J0k4HLFC_z-3" target="nlev7-8-w-J0k4HLFC_z-7" edge="1">
          <mxGeometry relative="1" as="geometry">
            <Array as="points">
              <mxPoint x="60" y="100" />
              <mxPoint x="60" y="165" />
            </Array>
          </mxGeometry>
        </mxCell>
        <mxCell id="nlev7-8-w-J0k4HLFC_z-3" value="&lt;meta charset=&quot;utf-8&quot;&gt;&lt;div style=&quot;color: rgb(101, 123, 131); background-color: rgb(253, 246, 227); font-family: Menlo, Monaco, &amp;quot;Courier New&amp;quot;, monospace; font-weight: normal; font-size: 12px; line-height: 18px;&quot;&gt;&lt;div&gt;&lt;span style=&quot;color: #859900;&quot;&gt;ModelToolboxDrawer&lt;/span&gt;&lt;/div&gt;&lt;/div&gt;" style="rounded=0;whiteSpace=wrap;html=1;" parent="1" vertex="1">
          <mxGeometry x="150" y="70" width="180" height="60" as="geometry" />
        </mxCell>
        <mxCell id="nlev7-8-w-J0k4HLFC_z-5" style="edgeStyle=orthogonalEdgeStyle;rounded=0;orthogonalLoop=1;jettySize=auto;html=1;entryX=0.5;entryY=0;entryDx=0;entryDy=0;strokeColor=#d79b00;fillColor=#ffe6cc;strokeWidth=2;" parent="1" source="nlev7-8-w-J0k4HLFC_z-4" target="LZYaPzqgYT7a62YiZSau-1" edge="1">
          <mxGeometry relative="1" as="geometry" />
        </mxCell>
        <mxCell id="nlev7-8-w-J0k4HLFC_z-4" value="&lt;meta charset=&quot;utf-8&quot;&gt;&lt;div style=&quot;color: rgb(101, 123, 131); background-color: rgb(253, 246, 227); font-family: Menlo, Monaco, &amp;quot;Courier New&amp;quot;, monospace; font-weight: normal; font-size: 12px; line-height: 18px;&quot;&gt;&lt;div&gt;&lt;span style=&quot;color: #859900;&quot;&gt;ModelModal&lt;/span&gt;&lt;/div&gt;&lt;/div&gt;" style="rounded=0;whiteSpace=wrap;html=1;" parent="1" vertex="1">
          <mxGeometry x="510" y="70" width="120" height="60" as="geometry" />
        </mxCell>
        <mxCell id="nlev7-8-w-J0k4HLFC_z-6" value="模型运行对话框" style="text;html=1;strokeColor=none;fillColor=none;align=center;verticalAlign=middle;whiteSpace=wrap;rounded=0;" parent="1" vertex="1">
          <mxGeometry x="530" y="40" width="90" height="30" as="geometry" />
        </mxCell>
        <mxCell id="nlev7-8-w-J0k4HLFC_z-7" value="&lt;meta charset=&quot;utf-8&quot; style=&quot;font-size: 16px;&quot;&gt;&lt;div style=&quot;color: rgb(101, 123, 131); background-color: rgb(253, 246, 227); font-family: Menlo, Monaco, &amp;quot;Courier New&amp;quot;, monospace; font-weight: normal; font-size: 16px; line-height: 18px;&quot;&gt;&lt;div style=&quot;font-size: 16px;&quot;&gt;&lt;span style=&quot;color: rgb(38, 139, 210); font-size: 16px;&quot;&gt;ModelToolboxDrawer&lt;/span&gt;&lt;/div&gt;&lt;/div&gt;" style="rounded=0;whiteSpace=wrap;html=1;fontSize=16;fillColor=none;verticalAlign=top;strokeColor=#0000CC;strokeWidth=2;" parent="1" vertex="1">
          <mxGeometry x="-610" y="10" width="600" height="310" as="geometry" />
        </mxCell>
        <mxCell id="nlev7-8-w-J0k4HLFC_z-8" value="&lt;meta charset=&quot;utf-8&quot; style=&quot;font-size: 15px;&quot;&gt;&lt;div style=&quot;color: rgb(101, 123, 131); background-color: rgb(253, 246, 227); font-family: Menlo, Monaco, &amp;quot;Courier New&amp;quot;, monospace; font-weight: normal; font-size: 15px; line-height: 18px;&quot;&gt;&lt;div style=&quot;font-size: 15px;&quot;&gt;&lt;span style=&quot;color: rgb(133, 153, 0); font-size: 15px;&quot;&gt;Drawer&lt;/span&gt;&lt;/div&gt;&lt;/div&gt;" style="rounded=0;whiteSpace=wrap;html=1;fontSize=15;fillColor=none;verticalAlign=top;" parent="1" vertex="1">
          <mxGeometry x="-590" y="50" width="560" height="250" as="geometry" />
        </mxCell>
        <mxCell id="nlev7-8-w-J0k4HLFC_z-19" style="edgeStyle=orthogonalEdgeStyle;rounded=0;orthogonalLoop=1;jettySize=auto;html=1;entryX=0.5;entryY=0;entryDx=0;entryDy=0;strokeColor=#d79b00;fillColor=#ffe6cc;strokeWidth=2;" parent="1" source="nlev7-8-w-J0k4HLFC_z-10" target="nlev7-8-w-J0k4HLFC_z-18" edge="1">
          <mxGeometry relative="1" as="geometry" />
        </mxCell>
        <mxCell id="nlev7-8-w-J0k4HLFC_z-10" value="&lt;meta charset=&quot;utf-8&quot;&gt;&lt;div style=&quot;color: rgb(101, 123, 131); background-color: rgb(253, 246, 227); font-family: Menlo, Monaco, &amp;quot;Courier New&amp;quot;, monospace; font-weight: normal; font-size: 12px; line-height: 18px;&quot;&gt;&lt;div&gt;&lt;span style=&quot;color: #859900;&quot;&gt;ModelRunHistoryModal&lt;/span&gt;&lt;/div&gt;&lt;/div&gt;" style="text;whiteSpace=wrap;html=1;" parent="1" vertex="1">
          <mxGeometry x="-260" y="120" width="150" height="30" as="geometry" />
        </mxCell>
        <mxCell id="nlev7-8-w-J0k4HLFC_z-14" value="&lt;meta charset=&quot;utf-8&quot;&gt;&lt;span style=&quot;color: rgb(133, 153, 0); font-family: Menlo, Monaco, &amp;quot;Courier New&amp;quot;, monospace; font-size: 12px; font-style: normal; font-variant-ligatures: normal; font-variant-caps: normal; font-weight: 400; letter-spacing: normal; orphans: 2; text-align: left; text-indent: 0px; text-transform: none; widows: 2; word-spacing: 0px; -webkit-text-stroke-width: 0px; background-color: rgb(253, 246, 227); text-decoration-thickness: initial; text-decoration-style: initial; text-decoration-color: initial; float: none; display: inline !important;&quot;&gt;ModelToolbox&lt;/span&gt;" style="rounded=0;whiteSpace=wrap;html=1;fontSize=16;fillColor=#d5e8d4;verticalAlign=top;strokeColor=#82b366;" parent="1" vertex="1">
          <mxGeometry x="-560" y="120" width="240" height="160" as="geometry" />
        </mxCell>
        <mxCell id="nlev7-8-w-J0k4HLFC_z-11" value="&lt;meta charset=&quot;utf-8&quot;&gt;&lt;div style=&quot;color: rgb(101, 123, 131); background-color: rgb(253, 246, 227); font-family: Menlo, Monaco, &amp;quot;Courier New&amp;quot;, monospace; font-weight: normal; font-size: 12px; line-height: 18px;&quot;&gt;&lt;div&gt;&lt;span style=&quot;color: #859900;&quot;&gt;Search&lt;/span&gt;&lt;/div&gt;&lt;/div&gt;" style="text;whiteSpace=wrap;html=1;" parent="1" vertex="1">
          <mxGeometry x="-470" y="180" width="80" height="40" as="geometry" />
        </mxCell>
        <mxCell id="nlev7-8-w-J0k4HLFC_z-15" value="&lt;meta charset=&quot;utf-8&quot;&gt;&lt;div style=&quot;color: rgb(101, 123, 131); background-color: rgb(253, 246, 227); font-family: Menlo, Monaco, &amp;quot;Courier New&amp;quot;, monospace; font-weight: normal; font-size: 12px; line-height: 18px;&quot;&gt;&lt;div&gt;&lt;span style=&quot;color: #859900;&quot;&gt;Tree&lt;/span&gt;&lt;/div&gt;&lt;/div&gt;" style="text;whiteSpace=wrap;html=1;" parent="1" vertex="1">
          <mxGeometry x="-470" y="230" width="60" height="40" as="geometry" />
        </mxCell>
        <mxCell id="nlev7-8-w-J0k4HLFC_z-16" value="模型资源列表" style="text;html=1;strokeColor=none;fillColor=none;align=center;verticalAlign=middle;whiteSpace=wrap;rounded=0;" parent="1" vertex="1">
          <mxGeometry x="-485" y="90" width="90" height="30" as="geometry" />
        </mxCell>
        <mxCell id="nlev7-8-w-J0k4HLFC_z-17" value="模型运行记录" style="text;html=1;strokeColor=none;fillColor=none;align=center;verticalAlign=middle;whiteSpace=wrap;rounded=0;" parent="1" vertex="1">
          <mxGeometry x="-230" y="90" width="90" height="30" as="geometry" />
        </mxCell>
        <mxCell id="nlev7-8-w-J0k4HLFC_z-18" value="&lt;meta charset=&quot;utf-8&quot; style=&quot;font-size: 16px;&quot;&gt;&lt;div style=&quot;color: rgb(101, 123, 131); background-color: rgb(253, 246, 227); font-family: Menlo, Monaco, &amp;quot;Courier New&amp;quot;, monospace; font-weight: normal; font-size: 16px; line-height: 18px;&quot;&gt;&lt;div style=&quot;font-size: 16px;&quot;&gt;&lt;span style=&quot;color: rgb(38, 139, 210); font-size: 16px;&quot;&gt;ModelRunHistoryModal&lt;/span&gt;&lt;/div&gt;&lt;/div&gt;" style="rounded=0;whiteSpace=wrap;html=1;fontSize=16;fillColor=none;verticalAlign=top;strokeColor=#0000CC;strokeWidth=2;" parent="1" vertex="1">
          <mxGeometry x="-610" y="360" width="600" height="260" as="geometry" />
        </mxCell>
        <mxCell id="nlev7-8-w-J0k4HLFC_z-20" value="&lt;meta charset=&quot;utf-8&quot; style=&quot;font-size: 15px;&quot;&gt;&lt;div style=&quot;color: rgb(101, 123, 131); background-color: rgb(253, 246, 227); font-family: Menlo, Monaco, &amp;quot;Courier New&amp;quot;, monospace; font-weight: normal; font-size: 15px; line-height: 18px;&quot;&gt;&lt;div style=&quot;font-size: 15px;&quot;&gt;&lt;span style=&quot;color: rgb(133, 153, 0); font-size: 15px;&quot;&gt;Modal&lt;/span&gt;&lt;/div&gt;&lt;/div&gt;" style="rounded=0;whiteSpace=wrap;html=1;fontSize=15;fillColor=none;verticalAlign=top;" parent="1" vertex="1">
          <mxGeometry x="-590" y="400" width="560" height="200" as="geometry" />
        </mxCell>
        <mxCell id="nlev7-8-w-J0k4HLFC_z-23" value="&lt;meta charset=&quot;utf-8&quot;&gt;&lt;div style=&quot;color: rgb(101, 123, 131); background-color: rgb(253, 246, 227); font-family: Menlo, Monaco, &amp;quot;Courier New&amp;quot;, monospace; font-weight: normal; font-size: 12px; line-height: 18px;&quot;&gt;&lt;div&gt;&lt;span style=&quot;color: #859900;&quot;&gt;ModelRunHistory&lt;/span&gt;&lt;/div&gt;&lt;/div&gt;" style="rounded=0;whiteSpace=wrap;html=1;fontSize=16;fillColor=none;verticalAlign=top;" parent="1" vertex="1">
          <mxGeometry x="-570" y="440" width="520" height="140" as="geometry" />
        </mxCell>
        <mxCell id="nlev7-8-w-J0k4HLFC_z-26" value="模型运行对话框" style="text;html=1;strokeColor=none;fillColor=none;align=center;verticalAlign=middle;whiteSpace=wrap;rounded=0;" parent="1" vertex="1">
          <mxGeometry x="-360" y="470" width="90" height="30" as="geometry" />
        </mxCell>
        <mxCell id="nlev7-8-w-J0k4HLFC_z-27" value="模型工具箱" style="text;html=1;strokeColor=none;fillColor=none;align=center;verticalAlign=middle;whiteSpace=wrap;rounded=0;" parent="1" vertex="1">
          <mxGeometry x="200" y="40" width="90" height="30" as="geometry" />
        </mxCell>
        <mxCell id="nlev7-8-w-J0k4HLFC_z-28" value="模型元数据" style="text;html=1;strokeColor=none;fillColor=none;align=center;verticalAlign=middle;whiteSpace=wrap;rounded=0;fontSize=15;" parent="1" vertex="1">
          <mxGeometry x="280" y="545" width="90" height="30" as="geometry" />
        </mxCell>
        <mxCell id="nlev7-8-w-J0k4HLFC_z-29" value="模型计算导航" style="text;html=1;strokeColor=none;fillColor=none;align=center;verticalAlign=middle;whiteSpace=wrap;rounded=0;fontSize=15;" parent="1" vertex="1">
          <mxGeometry x="460" y="545" width="100" height="30" as="geometry" />
        </mxCell>
        <mxCell id="nlev7-8-w-J0k4HLFC_z-30" value="第一步——第四步" style="text;html=1;strokeColor=none;fillColor=none;align=center;verticalAlign=middle;whiteSpace=wrap;rounded=0;fontSize=15;" parent="1" vertex="1">
          <mxGeometry x="320" y="900" width="200" height="30" as="geometry" />
        </mxCell>
        <mxCell id="nlev7-8-w-J0k4HLFC_z-31" value="模型参数设置" style="text;html=1;strokeColor=none;fillColor=none;align=center;verticalAlign=middle;whiteSpace=wrap;rounded=0;fontSize=15;" parent="1" vertex="1">
          <mxGeometry x="140" y="990" width="110" height="30" as="geometry" />
        </mxCell>
        <mxCell id="nlev7-8-w-J0k4HLFC_z-32" value="任务信息设置" style="text;html=1;strokeColor=none;fillColor=none;align=center;verticalAlign=middle;whiteSpace=wrap;rounded=0;fontSize=15;" parent="1" vertex="1">
          <mxGeometry x="270" y="990" width="110" height="30" as="geometry" />
        </mxCell>
        <mxCell id="nlev7-8-w-J0k4HLFC_z-33" value="模型运行" style="text;html=1;strokeColor=none;fillColor=none;align=center;verticalAlign=middle;whiteSpace=wrap;rounded=0;fontSize=15;" parent="1" vertex="1">
          <mxGeometry x="400" y="990" width="110" height="30" as="geometry" />
        </mxCell>
        <mxCell id="nlev7-8-w-J0k4HLFC_z-34" value="运行结果" style="text;html=1;strokeColor=none;fillColor=none;align=center;verticalAlign=middle;whiteSpace=wrap;rounded=0;fontSize=15;" parent="1" vertex="1">
          <mxGeometry x="530" y="990" width="110" height="30" as="geometry" />
        </mxCell>
        <mxCell id="nlev7-8-w-J0k4HLFC_z-37" style="edgeStyle=orthogonalEdgeStyle;rounded=0;orthogonalLoop=1;jettySize=auto;html=1;entryX=0;entryY=0.5;entryDx=0;entryDy=0;strokeWidth=2;fontSize=11;strokeColor=#FFB366;" parent="1" source="nlev7-8-w-J0k4HLFC_z-35" target="LZYaPzqgYT7a62YiZSau-1" edge="1">
          <mxGeometry relative="1" as="geometry" />
        </mxCell>
        <mxCell id="nlev7-8-w-J0k4HLFC_z-35" value="&lt;meta charset=&quot;utf-8&quot;&gt;&lt;div style=&quot;color: rgb(101, 123, 131); background-color: rgb(253, 246, 227); font-family: Menlo, Monaco, &amp;quot;Courier New&amp;quot;, monospace; font-weight: normal; font-size: 12px; line-height: 18px;&quot;&gt;&lt;div&gt;&lt;span style=&quot;color: #859900;&quot;&gt;ModelModal&lt;/span&gt;&lt;/div&gt;&lt;/div&gt;" style="rounded=0;whiteSpace=wrap;html=1;" parent="1" vertex="1">
          <mxGeometry x="-375" y="500" width="120" height="60" as="geometry" />
        </mxCell>
        <mxCell id="U6TcWgrr0_R1wzN5hT8i-2" value="组件结构" style="text;html=1;strokeColor=none;fillColor=none;align=center;verticalAlign=middle;whiteSpace=wrap;rounded=0;fontSize=17;fontStyle=1" parent="1" vertex="1">
          <mxGeometry x="-827" y="1139" width="87" height="30" as="geometry" />
        </mxCell>
        <mxCell id="U6TcWgrr0_R1wzN5hT8i-3" value="数据流" style="text;html=1;strokeColor=none;fillColor=none;align=center;verticalAlign=middle;whiteSpace=wrap;rounded=0;fontSize=17;fontStyle=1" parent="1" vertex="1">
          <mxGeometry x="827" y="1139" width="87" height="30" as="geometry" />
        </mxCell>
        <mxCell id="U6TcWgrr0_R1wzN5hT8i-7" value="" style="edgeStyle=orthogonalEdgeStyle;rounded=0;orthogonalLoop=1;jettySize=auto;html=1;fontSize=17;startArrow=none;" parent="1" source="U6TcWgrr0_R1wzN5hT8i-9" target="U6TcWgrr0_R1wzN5hT8i-6" edge="1">
          <mxGeometry relative="1" as="geometry" />
        </mxCell>
        <mxCell id="U6TcWgrr0_R1wzN5hT8i-10" value="" style="edgeStyle=orthogonalEdgeStyle;rounded=0;orthogonalLoop=1;jettySize=auto;html=1;fontSize=17;" parent="1" source="U6TcWgrr0_R1wzN5hT8i-5" target="U6TcWgrr0_R1wzN5hT8i-9" edge="1">
          <mxGeometry relative="1" as="geometry" />
        </mxCell>
        <mxCell id="U6TcWgrr0_R1wzN5hT8i-5" value="ModelModal" style="rounded=0;whiteSpace=wrap;html=1;fontSize=17;" parent="1" vertex="1">
          <mxGeometry x="840" y="55" width="120" height="60" as="geometry" />
        </mxCell>
        <mxCell id="U6TcWgrr0_R1wzN5hT8i-6" value="ModelInfo_Run" style="rounded=0;whiteSpace=wrap;html=1;fontSize=17;" parent="1" vertex="1">
          <mxGeometry x="1244.5" y="55" width="140" height="60" as="geometry" />
        </mxCell>
        <mxCell id="U6TcWgrr0_R1wzN5hT8i-11" value="" style="edgeStyle=orthogonalEdgeStyle;rounded=0;orthogonalLoop=1;jettySize=auto;html=1;fontSize=17;endArrow=none;" parent="1" source="U6TcWgrr0_R1wzN5hT8i-5" target="U6TcWgrr0_R1wzN5hT8i-9" edge="1">
          <mxGeometry relative="1" as="geometry">
            <mxPoint x="1000" y="85" as="sourcePoint" />
            <mxPoint x="1230" y="85" as="targetPoint" />
          </mxGeometry>
        </mxCell>
        <mxCell id="U6TcWgrr0_R1wzN5hT8i-9" value="Model" style="rounded=0;whiteSpace=wrap;html=1;fontSize=17;" parent="1" vertex="1">
          <mxGeometry x="1010" y="55" width="120" height="60" as="geometry" />
        </mxCell>
        <mxCell id="U6TcWgrr0_R1wzN5hT8i-15" value="useEffect&lt;br style=&quot;border-color: var(--border-color);&quot;&gt;&lt;span style=&quot;&quot;&gt;从模型运行记录点击调用时，传入 task 不为空执行&lt;/span&gt;" style="rounded=1;whiteSpace=wrap;html=1;fontSize=15;align=left;" parent="1" vertex="1">
          <mxGeometry x="1200" y="215" width="229" height="170" as="geometry" />
        </mxCell>
        <mxCell id="U6TcWgrr0_R1wzN5hT8i-17" value="" style="group" parent="1" vertex="1" connectable="0">
          <mxGeometry x="960" y="115" width="1404" height="677" as="geometry" />
        </mxCell>
        <mxCell id="U6TcWgrr0_R1wzN5hT8i-14" value="useEffect&lt;br&gt;默认显示模型信息页面（basic），但从模型运行记录点击调用时，传入 task 不为空，则显示模型运行页面；&lt;br&gt;先尝试用 URL 获取元数据，失败后用 ID 获取。" style="rounded=1;whiteSpace=wrap;html=1;fontSize=15;align=left;" parent="U6TcWgrr0_R1wzN5hT8i-17" vertex="1">
          <mxGeometry y="100" width="220" height="170" as="geometry" />
        </mxCell>
        <mxCell id="U6TcWgrr0_R1wzN5hT8i-16" value="model 模型基本信息&lt;br&gt;task 任务信息" style="rounded=1;whiteSpace=wrap;html=1;fontSize=15;align=left;" parent="U6TcWgrr0_R1wzN5hT8i-17" vertex="1">
          <mxGeometry x="35" y="25" width="150" height="60" as="geometry" />
        </mxCell>
        <mxCell id="U6TcWgrr0_R1wzN5hT8i-22" value="modelObj 模型基本信息&lt;br&gt;metadata 模型完整元信息&lt;br&gt;task 任务信息" style="rounded=1;whiteSpace=wrap;html=1;fontSize=15;align=left;" parent="1" vertex="1">
          <mxGeometry x="1214.5" y="135" width="200" height="60" as="geometry" />
        </mxCell>
        <mxCell id="U6TcWgrr0_R1wzN5hT8i-23" value="ModelParameters" style="rounded=0;whiteSpace=wrap;html=1;fontSize=17;" parent="1" vertex="1">
          <mxGeometry x="880" y="440" width="145" height="60" as="geometry" />
        </mxCell>
        <mxCell id="U6TcWgrr0_R1wzN5hT8i-24" value="params 模型基本信息&lt;br&gt;metadata 模型完整元信息&lt;br&gt;onInit 任务信息&lt;br&gt;onSuccess" style="rounded=1;whiteSpace=wrap;html=1;fontSize=15;align=left;" parent="1" vertex="1">
          <mxGeometry x="860" y="520" width="200" height="80" as="geometry" />
        </mxCell>
        <mxCell id="U6TcWgrr0_R1wzN5hT8i-25" value="高阶组件？" style="text;html=1;align=center;verticalAlign=middle;resizable=0;points=[];autosize=1;strokeColor=none;fillColor=none;fontSize=15;" parent="1" vertex="1">
          <mxGeometry x="910" y="606" width="100" height="30" as="geometry" />
        </mxCell>
        <mxCell id="5hRKipNhRNURSHAW4hCL-4" value="遍历传入的元数据中的对象数组 env，如果有属性 children 就渲染 renderGroup" style="rounded=1;whiteSpace=wrap;html=1;fontSize=14;" parent="1" vertex="1">
          <mxGeometry x="856.25" y="640" width="207.5" height="90" as="geometry" />
        </mxCell>
        <mxCell id="VwtI1pIFsAnY7B8LQXj2-1" value="" style="shape=image;verticalLabelPosition=bottom;labelBackgroundColor=default;verticalAlign=top;aspect=fixed;imageAspect=0;image=data:image/png,iVBORw0KGgoAAAANSUhEUgAABXIAAAIoCAYAAADEABOHAAAACXBIWXMAABYlAAALEwHUsIWmAAAgAElEQVR4nOzdd3xe9X33/9cZ15Yu7W3JlrcxNmBjbPbMgoYAITsBsnpn3CFt+gtpmtmM3r3zS5M0bUKaAYS0IWkITVhhT0+GjY33kixZe49rX+ec+w9hGSF5YVkD3s/Hw4DO+n7PuYbR+/pcn2MsWLjQMwwDg8MqKip4/PHHEREREREREREREZGJ1djYyKc//Wk8zwPAMAzM127keR7ehE9NRERERERERERERMbieR6mARiv/KAQV0RERERERERERGTyua474ucRFbkKcUVERERERERERESmBsM43BDXNAxjuNeCiIiIiIiIiIiIiEwNr85tzUM/KMoVERERERERERERmRpeW3xr9iUgmRm50EBEREREREREREREJtOIitzeuEdP3CWTVU2uiIiIiIiIiIiIyFRkYnhkXMg4CnJFREREREREREREphLP8/A8D3N4gRoqiIiIiIiIiIiIiEwZI1orTOI8REREREREREREROQ42HgGnne4Gld1uSIiIiIiIiIiIiJTy5gVua8u2RURERERERERERGRiXUooz30b7VWEBEREREREREREZniRgS5aqsgIiIiIiIiIiIiMvWoIldERERERERERERkihsV5Ko/roiIiIiIiIiIiMjUMmUrcpuamvj+v/wLDz/yKOlM5rj28TyPeDxOb28vjuOMWp9KpY647mjSmSzNzc3E44kT2m+8ZTIZfnrrz7jttttPaC7pdJru7m7S6fSoddlslr6+PlKp1HhOdcxxenv7SCaTp3QcERERERERERGRNyLLFyn+JkDYD357qEtubm4uN95446RNyvM8MlmXPXv2sG7tWubOmUtRURGGcfQuvqlUmrv/eA9PPvk0py1aRDgcpqGhga6uLqLRKC9u3Mgf/nA38+YtIDc357jns2tfAx/6wPuYVVvLvLlzT/b0XrdMxqGru4tHHnmEwqJCqqtrMM2jZ/Gu67Juw3P86le/orZ2NsXFRbS0ttJw4ACFhYUcPHiQ3/72LoKhEBXlFaOucW9vL729fYRCoSOO1dHRQVNTE/n5+UfcpqmpmV/feSc+n01VVRV9/YM899wGDhw4cMQ/bW1t+Hx+wuHwMR97ERERERERERGRN4r+/n7uu+++4UzMMAzsyZzQwYNNbNiwnsHBwTHXJxMJmpubuf2OO1i4YP6okDAnJ4dVq86lqqoSz4OOzi727t3H/AULycnNJZVKc+edv6GsrJSbbrppAs7o5PX09vH0U0/S19c35vpkMonnedx1113s3bOXQMA/Yn0wGGTp0jOYN28utm2TTKZ46aUt5OcXUF5eQSaT4Z577qG9rZ0vf/nLR52L63ls27adRx97jA9+6CPMn1sLQCKZYtu27USjOcyZPZvnnn+R1c8+zVe/+lUikcjxnWf/APfffz87d+5iwYL5FBQUDK/zPI8DBxro6enmczffTFHR+ViWglwRERERERERETk14okEyWSKQMBPJBw+4naxeIJUKkUwECAcDk3gDJncINcwTXw+H36/n46uHh55+CEuvfRSKivKASgvL+O6664d3n7Xvnoee/hB3vu+D1JSlI/P58N4Jdx1HIfde3bjulmWn3UGAb+PfXWNrFu/jq98/R/x+XxHnUtbVw//fddv6e7qHLWuu7efeDzG3X/4A89tWD/m/h/95KeoqSx7vZdimGEYw9ekfzDG6mdXU109g8WnLcI0Tfx+P295yxXD2x9sbef2X/wHN378r6mpLMPn82FahwPvpuYW9u3ZyXXvvp5obg7Nre08+8yz3PjRTxAMBo45n9mzZxMKBfnRj37IF7/098yaUUFjYyMPPvQXLjz/AmbXzn5d51lbXckXb/kSv77zP8nPz+N973svuZGhF0lXVze33XYb4XCY0xadhmVN2Q4gIiIiIiIiIiLyBtDZ2cXmzVvIy4ty4QXnj/ntcM/z2LhpEz3dPSxZuoTamTUTOsdJDXKrKiuouvpqABqbWti+7WXOvfASzltx1pjb33v/X2io28d1113LjMryEeuSyQQ7tm+nprqGGTOqMAyDzZs3UV9fzw+//z1+Hg7R199Pb08PW7ZsGa5knTGjmhtu+Agzqmu48MILSCZG956tP9jKmtXPcMaZZ3LOirPHnFtBXu7JXIph+XlRrrrqKgC6enrp7upi9ryFXHv1lfjHCKPXrNvAow89yLXvetdwxeyrPffcc0Sj0VeCYIN9+/bQ0NjAz39+K7+/6zckEkk6OjpYvXo1ubk5GIZBMBjipo/exKqVK6moKOfGG2/ipz/5Cbt2bKe8pIi16zbw2MMPsXnjRu64/Vd0dXfT19vLpz71KSzLAmDOnDl86lOfxjRNbr31p2zdupW29nbWrV1DNBrlU5/+DCvPWcFb33oFd9x+O7/6ZT833XgDrZ29/NO3vsHy5cu57t3vpqiocFyuq4iIiIiIiIiIyJGUFBcRCYfZunUrwVCIc85ePmqbjZs2s2XzZubPm09ZScmEz9HG8LBNB8OwgMn7+npJcRGnLVrEzm1bxgxyU+kMW156kWVnnUnxGOHetu07Wbd2DVdddRV+v59YLM6GdWv54b/dyhmnzQdg46ZNrF2zlve8932UlRYDYNs20WgUn8/HmWecwRNPPo3PZ3PhBecPHzu6ux6f7WPevHmsWrUKgGzW4ZFHH6Wyqoozlpx+Snq4RnNyWDB/Pi1tLWTS6VFBbiaTZeuWlzh7+XKqKitG7V93oIF77/0TZ55xBqFQmGQyxdYtm/nCF/+BC88dCqQbDx7kLw/+hZUrV7Jk6RJMw8AwDKLR6PBxykpL+dKXbsE0LTo6OjhQt5ebP/83nHfeuVimyeNPPMXzz63n5ps/P1xS7vP5yMvLA+Azn/kMBw408Oc//5kVK1awbNlZFBQUYJomixct5Oabb+b222/n+uuvJxaPc9ONN/GRj3yYUCiMWuOKiIiIiIiIiMipFgqFWLb8LFpaW1jz7GoigSCLlyweXr9j+w7WrH6W/IJ8Vq5cMeFtFQBMw4DcgEHYN7mJWTDgZ9nyFTxw373s2Vc3an39gQY2b97MWcvOJviavrCu6/LEE49TX18PDJU5v/DCi6TTKVYtP5OysjLKysooKCggHA5TUlw8vKyoqGhE24Xc/EJ+9rNb+fO99+I4zshJGENf8U+nMzz00EP8+F//lccefRTP88b3YrzC57NZsHAh27duZcvWbaPWt7a3s3HjRs47/0Ii4eCIdZ7n8fRTT7F927bhn/fs2UN7ewdnLVk0fP7FRUVEIhEKCgspKx1aVlpaSjAYxHEcEokEiUQc27bxB/xs3rYT2/a90gKjgrKyMvLy8ggGg5SWlgwft7CwEMuysCyLwsJCiouLCUciFBTkU1ZWhmVZdHX38O8/+yXXvOtq7rv3z3R3d5NKJvn1r+/grrt+R39/P4lEgmw2e0qur4iIiIiIiIiIyCH5eXlc8fariObl8fSzz3KgsQnP82hsauGZ1auJ5OTw9quuHlEAOVE8z8OuLjCBqdGDdNlZZ7Bw4SI2vvgiM6tn4PcPBazpdIYnHnuUhQsXcdaZS0fs43oeG557gZe3bKaoaKjKtrOrh0cefZi3v+NKotETa3mw4qwlfOqzn+dnP/k3orlRLrnk4uF1RaWVZDJZnnjiSe68804+8tFP8O5r3jnqJmzjae6c2SxZcjovb9nCWWeeQTAw1Nc2m83y4vPPU1RUPKJ6GIYe2G3bd7B2zRoqKisBGIzFWLN2LXPmzKVyjOrd13Ichw0bNnDnnXeyc+dOVq5cyVe//k1OXzCH2dUVtLY009rSDMDBg4309vayY8cOQqHDn0ZEIhGqq6uH2y282v0PPMB//uY3VFfX8F+//S3z582jpaWVgsJCAn4fd//xHj72sY9SUFDAR264ifPPW4VtT2onEBEREREREREReYMrK4yy4vxLeeaxB3jm6ac5Z+UqNr74POl0hssufwulhXmTNrcplYyFw2Gue/f1/OqXP2f27FqWL1sGwEubN7N582b++n99ivBr7hrX1zfA4489wk0f/TgNDQcAKCjI59prr2P+vLmvax7nrliG/2+/QDo+MKoq13FdAqEwn/zkJ7ngwgtGVQePt0AgwKWXXc6Pf/yvrF49m0svvQTTMNhfV8+LL77IRRdfPCqsjsUTrF+3jmuvu454PMHuXTuIhMNcdumlRCIRAoHgEUY7zLIszjvvPFasWMl//dd/Ule3n1giyYMPPkhdXR3xRJLdu3ZRUVlBWWkp8USSW275EgsWLiTySmn5vHnz+MhHbhguNY8NDrJ+/QaSySSXX345115zzfB4La1tfO973+P6D36ES847hw9+4P188APvH8crKSIiIiIiIiIicmxLF8zETV3M+nVreOzRv2BZNuedfwFzaif25mavNaWCXIAzli7hvPPP58EHHqCkpAQ8jyefeIJ3vOPtLF1y+hh7eFx22WUsPn3JcJDb2dHBju3bWbd2zYgtm5qaqKur5447bicnJzK8fN78+YTDYXZs3046nR6xz0svvURndy+JZIL/ufv3bCg/3Mh4584dw/992mmnceGFFw1XEY+nuXPmcOWVV/E/9/yR8rJyyivKePaZZ5g7dw6rVq4coz+vx/Lly1m4aCEPPvgQAAMDA+zatYv6+pFtK3p7e9mxcycdHR2sW7tm+FglpaW87e1XkvOq4DwvJ8JnP/tZABqa2/jJv/2Yt7/9bVxy0YWsW/8cf7j7D3z+b/+OWTMOV/y2tLZx991/oLGxkd27dzNzZg3Nzc309w/w2KOP0tTUBMDgYIz9+/dx/5/+h5df3DC8/9IzzmLlynNOeWAuIiIiIiIiIiJyyNzZs9i1awcH6uqorpnJ3NmzTum38o/HlAtybdvi8ssuZ8/uPXz961+jvKycVatWccUVV2Dbo7+iX5Cfx3nnnUcsFhteFgwGqamppug1N0VzPY+enh5qZs6kIP9wGXRZaRmBgJ/a2tpR/VjT6TTbt28nm8mQGwkxZ86cMeddUlKCaZ6aPsOWZXLxRRexc+dOvvXtf2RmTQ2LFi3irW99G3l5o3ty5EQinHXWmSOW+Xw+KirKsayRT7j2jg5aW1uprKykdnbtUNNkIBrNw+c78tOjv7cbA4/8vLHLyTdu3ERd3X4uvOgSampqMAyDnp5err76alatWkU261BZWUkwOFQd3NPbR3hjhLKKyhHXuLi4CGuSXyQiIiIiIiIiIvLmsnt/PT3d3URywvT19bB7fx3Lz1gyqWHulAtyAUpLS7jkkktY+09r2PzSS8ybPx/bPv5K1/z8PC6++OJRy9dv2EA8FueySy+joqJs1PrTTjtt1LLdu/ewceMmvvXt77L5pU2cedZyKsfY91TLyYlw7bXXsvrZZ/jLX/6C3x/Asq0xqnHHFg6HOfvss0ctr6+vp7urm1XnnsvyZctGhdGZjDNqn8aDB/n1HbeTmxulprp6zDk0NTezdes2rvqrd3LJJZfQ2HiQlta24fV+v49Vq1YN/9zS2sa6tWtZsXIll5x3znGdk4iIiIiIiIiIyHirO9DI2meeJi8/nxWrzmXTC8+zfs1qbH8OZy0eu8hzIkzJUsff//fd/OAH/8LXvvZ1fvSjf+WeP97NzTd/jr6+/gmdR1tHNz+59WfUzJ7HlVe+g0veeiV33HEb8XhiQucB8MSTT/Pe91zPhz78YX7/+/+mubmZmz/3OXbt2j1hc3Ach1/+6jb+6qqr6Orq4gPvfx+FhQXD69OpJPH+PjIZh/a2NsrKy9QSQUREREREREREpo2Onn6eePwxTMvk4ksuYcGcWVx40UUE/AFeXP80rV19kza3Sa/I9TyPZDLJwMAAGzdt5vv////l8ssv5/e///3wjc3OOeccfvSjH3Lttdfwrnddw7uvv578vCiRSOS4K1JPRDqdpr7+AL/5zW+YO3ce77v+OoIBPxetWk53WxO//vWvue66aykuLsayDrd7cByXNWvXsm3bNq688h1HrFY93jn09/eze/cebr31VkpKinniiSeHb2z2s5/dyu9+9zv+5m8+z7Jly/jr//Up8qJRcqO549aKwHVdenq7aWlpIZlMEhscxHEcbrjxRj720Y9RUJA/vO3SJYt5tqaGz37208BQdfNXv/q1MY97oLGJb//jN6irO9yv13Ec+vv7eXHjxlHh7yc//Tmuv+adp6T/sIiIiIiIiIiICED/wACP/OUBBvr7ecvlV1AzoxKAGZXlXHjB+Tz2+OM8/MC9XH31OynIzz/G0cbfpAa5PT297N69m23bt7Nx44ssWriQe++7n3AoOGK7SCTMV77yFT7zmc9w66238s1vfJ0FCxZy7nnnsnjx4nG7cIlkkj27d7N5y8ts3bqNyy+7lEsvvQSfbyhAtCyLK6+8kvsefIif/+IXnLtqFXPnzmXWrFnAUPBZWVXN0089xc9//gs+/KEPsmDBghPqnRGPJ9i5cwf799exfv16CgsL+O53v0t19YwRoXAgEODGG2/kPe95L7/85S/4x29+k8rKSi6+5BJOX7yY0rLSkwp0Hcdl3/793HXXb/FcF8+Dp9as49prr6G0pGTU9jk5OXzpllv40i23HPPYM6uruO2220Ysa2lt47vf+Q7Xf/Ajaq0gIiIiIiIiIiITKp5I8PzzL9DX18f5F1zI4iWLR6xfdNoi4qkU69et4/nnX+CC888bLkKdKJMW5HqeR0dnJ+vXr2Nm7Wz++f9+j5xw6Kj7FBQU8A//8A/09vby8MOP8OILL1BeVn5CQa5lmfCaKlnHcdixYyebt2zhYGMjtm3zt1/4O8pLi0btHwoGuP6ad7Jr0Xwee+wx9uzdS140Snl5OeesXMnc2TP5/Oc/z91//CM//elP+dJXvs6M8tHB55EMxmKsX78e2+fny1/5KkUFY99M7JBwOMTNN99MOp3m6WeeZfNLm4hGcyk6gZuEGaYxqnLYcRzq6uooKS7hmmuuwef388c/3s19991PKBg4ruOWl5ez4pxVbNr4Ai+//DLxeJxoNO+UVFGLiIiIiIiIiIi8Xp2dXcQTCU5fsoSzl5815jbLzjyDeDxOT08PbR2d1M6sOWXz8TzIuh6Ok8UAbNvGWLBwoXdoA4OhgLWyspInnnjilE3kVMhkMuzeswfbspk7d86IlgeHtLa10dLczIIFCwm/KjQeCnJ30NDQwDkrV1FcVHjc4+7dt48N69dTVl7OqlWryIlEABgYHGTtmjWctXwFpcXHf7zxtm/ffnp6ujnzzDOx7dG5fX9/P3V1dVRWVlJcXDwiZO3r7yebyVJQkI9pmriuy4sbN7Jr587jGruiooIVK89l04vP09jYyKxZs1i2bNmYn1bE4nFeeP555s5fSNUk3ExORERERERERETevBKJJMlUCr/fR+QolbaxeIJ0Ok3A7x+RL463hoZGPvaJT+A4DgYetu174wS5IiIiIiIiIiIiIm8EjY2NfPKTnxxRdDk+d8USERERERERERERkVNGQa6IiIiIiIiIiIjIFDfUNNUb6q7gHW1LEREREREREREREZkU5qEQ9xDP8/A8RboiIiIiIiIiIiIiU8WI1goKcEVERERERERERESmHvXIFREREREREREREZniFOSKiIiIiIiIiIiITHEKckVERERERERERESmuBFBrmEYkzUPERERERERERERETkCVeSKiIiIiIiIiIiITHEKckVERERERERERESmOAW5IiIiIiIiIiIiIlOcglwRERERERERERGRKU5BroiIiIiIiIiIiMgUpyBXREREREREREREZIpTkCsiIiIiIiIiIiIyxSnIFREREREREREREZniFOSKiIiIiIiIiIiITHEKckVERERERERERESmOHushZ7nMTg4ONFzEREREREREREREXnTi8Xjo5aNGeQahkEkEjnlExIRERERERERERGRkcKh0KhlYwa5MBTmioiIiIiIiIiIiMjEGiubVY9cERERERERERERkSlOQa6IiIiIiIiIiIjIFKcgV0RERERERERERGSKU5ArIiIiIiIiIiIiMsUpyBURERERERERERGZ4hTkioiIiIiIiIiIiExxCnJFREREREREREREpjgFuSIiIiIiIiIiIiJTnH2yB3CcFK7r4brGeMxHRERERERERERE5I3DANP0sEwL0/S97sOcdJCbySRxXRPL9GGYKvAVEREREREREREROcR1HTLZDPh8kxvkZrMmwUAQ27bBUFWuiIiIiIiIiIiIyCGe55FOGziOh+/157gn3yPX88D2+RTiioiIiIiIiIiIiLyGYRhYpgWcXH6qXggiIiIiIiIiIiIip9I4FMEqyBURERERERERERGZ4hTkioiIiIiIiIiIiExxCnJFREREREREREREpjgFuSIiIiIiIiIiIiJTnIJcERERERERERERkSlOQa6IiIiIiIiIiIjIFKcgV0RERERERERERGSKsyd6QM/zSKczuJ6L6zgTPfwwwzDwPG/SxjctC8u08PlsDMM4rn2eOjB58xURERERERGRiXPJzOPLCgBc1yWbzeK4k5u1iByvusEAnUlrsqfxuoTMLPkBmF1k47OO/3U6HiY8yE0kEvQNDGKZBtlMZqKHHxaLxYhEIpM2vu3z4XmQkxMhEg4f1z433Otx49KJfYKIiIiIiIiIyMT67TaPfZ85/t//E4kk8Xgcy7YmNWsROV7/51mDp5uDuNOwZrE85LG4KMv/PsdjZbV/Qsee8CA3nkgQ9PsJBCb2RF8rFouRn58/qXNIJlMkEsnjDnJ9Fnz7YgW5IiIiIiIiIm9kD+47sXQrnogTyYkQDoVO0YxExteA507LEBegNWGT6jB4ocllZfXEjj3hPXLT6TSWPT1Lp8fb0Cdl6cmehoiIiIiIiIhMY6lUioB/cgvmRN5M+tImHSnfhI874UGu57owib1ppxTPw3XdyZ6FiIiIiIiIiExjnrIFkQnlegYpd8Jj1YkPckVERERERERERETkxCjIFREREREREREREZniFOSKiIiIiIiIiIiITHEKckVERERERERERESmOAW5IiIiIiIiIiIiIlOcglwREREREREREQGgf2CAl7duo6u754jbpNMZdu/ZR//AwIjlHZ2dbNu+g96+vlM9zXHjOA71Bw7Q1dU12VMROSYFuSIiIiIiIiIiAoCTdYjF4mSz2SNuE08k6Ortp7GxiUQiObz8wIFGDMMkLxo95jjJZJKXNm+ho3PsADUWi/Hy1m309fePWvfixpfYu3f/mPu5rktzSwsvb93K4ODgMecRi8VoaWmlvqGRgePYXmQy2ZM9gZORdRzaWtsIRSIU5ued8vEaGhuJRHIoyM/DNKdnBh5Lu6ze3cp9e13eNc/ivHllRPwnfy4ekMhA1oUcP5jGyc9VRERERERERE6NPXv20d7ZiecdXua6DtmsA8C27TvZuWs3ljUyOoqEgyxauIDFC+aya/duGhobmTWzhta2dmLxBMlUmjXrnhs1nuM4FBbksWD+PPx+P4YxFBxs37GLuXNrqSgrG85aXNel/sAB+gcGSSYSI4Lh/oEBMpkMeflRPM8jm83iui5gYFkmmUyGTDpDNuuQTqdJpVJYloVlWa/a9jC/38/MmhoaGhvp6OjEMi0s63BOYhgGtm1P2xzozSDi8zinNMnXVmXwhcLk+j1i8TRP1qf45bYc6gf8kz3FcTMtg1zP80gkkhxoaqW7o53FixdNyLi2bbNnz16qq6soKy3FtqfX5euMZfnp+nbuaRggxzJZ/ZzLe9s8PnlOKSU5J3cuWcfjnp0OWztMbjkXCkMm3YNptvf4xtzeZ8LSUgj5DFzXZX8vtMUMvDG3Psw2PGpyXSrzDs93V3uajtTY47xawPKYV+CRH7JO5NRERERERERE3nDmzZvDvHlzgKGcJZVO09HRQVdXD7FYjFAoSF5elIryckKh0HDweshQAFpN/8AA3d3dtLa2cdqi+ZQUF4853t79+0nEE8M/BwIBFi1cwK7de2hsbCLoD1BUVIjrujQ1t9DXN0DtrBrKyspGHKe9oxPP83Ach86uLnp7++jq6sZxHKoqK+ju6SOVTpHJZNizr45UKkVpSRGza2vZsXMXsViCYDAw6nwCgSB9ff309Q1VAHtANpPF9Rzmzq6l+AjnJZPLNOCLy2NcvdDPS20ma7bF2N9vc1GNyQWz8lhWFudDD5n0pKZXhnck0+4sXNelp6eXltY2kskEM6oqiIRDEzJ2cVERyWSK5pZ2slmHsrJSgoHAhIx9stoHsty+qYv7Dg6yKN/HtTOjPNKe5E8NA1i2yceWFZ90mPtam+p7+dK6PC6ttbGtw+FpX9LhmUaDP7/bY07R0Cdiv3gRdnU6LCgLYhpjl/OmMhnWNWT4+JIMn1h5uAJ7U3OKzT1H/3RlMJmhpTfF51YYXDg7pE/SRERERERERBjKWbq7u+nr68eybcrLy6ivP0BlZSWOk+VgUzP5+XkUFhSMKGgzTZPS0lIikQj79u+nsLDgiCHua8fr7e0jFo/jeR6hUIhYLE57RyeJZJJsNktLa+tQuJzKcLCpGcs0ieZF8ft8dHd1EwqH6esbIBQKUlVZAZ5HLB7HME1KSoro6+8nNhgjPy9KT08vsVicru5uTNOkvLyEmurq4yrO6+7upv5Aw0ldXzm1Ti9MccHMAL96McVPXs4BhnK6J5vh/AMJvnNphI8uHOQHm4/d7mM6mFZBruu6tHd00NjYhGXb1NRUU1xUNGGhnN/vp7q6Gp8/QEdbG8lkkoqKCqK5ORMy/usVTzs8uLube+r6WVzg45MLQuQFTBaW5vIflsk9dQOYmHx8RRGFr6Na9e7NA7zUk8ueboPOuMc/rzW4amaMrOsxN5rm2xd4BIOHj7u3C1Y3jq69fUd1jI+fG8Q+whR6BjJ8rCMzavn7z8zl/ceY48HuLD9/Ps2hF7SIiIiIiBT4Jb8AACAASURBVIjIm11Pby8dHZ2YhkF+QQF5eVEGB4b6xBqGQUV5Of0DA3R1ddPd3UtR0VBYe6ChkVQqjW1ZRPNyqSivwMNj9559I45vWSaFhQUU5OePWO7h4XlDf4LBIDNmVJFOZ2hubsGyLSorKoaznkPb4Xl0dXfjug6zZ80kGs0FoKOjk/6BQWbWzCCdzpB1HPC84TGGxgPLtKisKMcwTDo6OhmMxUa0lXit/LxcotEoM2ZUEYlExumKy3i7tCaLk0rz+72jW66uaQnxx+0xblpi8aMt4B7ra+DTwLQJchPJJI2NTfT09FJQkE9lZTnh0MRXVvpsi8ryUkLBAE1NLezatYfaWdVTtsQ+63g8tLObX+/qY2G+zacW52J6Dk39aYoiJp9enMdPPfjvul4c1+PvLizFZ51Yg9vF5QFyIg59A3Hs3DAXVsOsAj97EvByT5CbHjQwzcOvlnjGYKgjzfi8gl7Y38MPtuQfdZtkxk8i6XL5nHEZUkRERERERGRa219Xz8DgIK7rkEymGYzFOXiwiUw2SzKVpv5AAy0trQAkUyni8QRd3T20t3WQG80lGAzQ0tJKbm4OJSXFHGxupr2jg9m1swgEAiQSCVpaWvH5/BTk55NJp4GhSt6C/PxR4W48kSCRiOPz+6iqrBizYrbxYBOpVIY9+/ZjWxaRcIh4IkFOTg4FBQVYloXrurSYJo6TpaS4iGQySTAYoLS0BBgqEozHEwQCgVGpRDyeoLml5ZU2DeUEg0GCweC4X3sZP0WRME8ehIHRdX8ArGv0+P/Oi1ATSVE/OP2L+6ZFkNvT08Ou3ftIp1PMmV1LWVkZ9pHKNieAZVkUFRaQmxNhf109O3buobI6w5yZFZM2pyN5ZFsH//xSL7NzbD67JAcLj6740FtVd9ylxEpw85Jc/k86y+/qeklnPL7+lvITGmNRmZ+IHecn/SanlRucXw2FIR97W4yhitwLfQSCh59qB7pdPvvw6OP8+7Z8btvjcaSA1/UCJNMWkByx/PQZUf655Ojhc0tPhrtfTgNvnAbXIiIiIiIiIq/XjKpKPM9j3/79WIbJrFmz8PlH33/GcRxamlsIBvzUzhoKaX0+H4ODg7S1tY/Y1jJNCvLzCIVCDAz66OjoHF7nuh62ZY3qTXsiZtfWUlZayu49eyjMLyEvL4/e+np6evvp7++nsCCf1vZOHMfBdRz6B+Jks1kqykuGj2GaJjk5EWBklW0sHqepqZmA38e8uQtVhTtNZJwsiwtShMwQqTHWFweSWFYug86x7600HUz5IDeeSLB3Xz22bbF0yTJCoeBJvejHi2EYBAIBFi6YT2PkIA0N9UQjvuPqBzNR1uxo5gvP91Pss7hmZpSIZXKwLz283vOgvT9Ldb7JLUtC3LIhxW8bevEe8fjGW08slN7T72ffoEXVYIy+QZOCYBiAkOVSnevy6g+w0umxj/G/F/fy8XOLsI9QEdwzEOdj9x7+iMX1wHGHgvWK8NHnl015BCyPrAdZd+imaUfqxSsiIiIiIiLyRuf3Hyp0MjAti0DAj883uvjJcbJYtoVlmQSDAQLHuFeQ67q4rofnjizUMoyhfxxqlfDatgaeO7Rs6I+H+5rvwRsG+Hw2fr8P0zSwbIuCgnyWF5xJT28vu3btoby8jNraWbS0tNLZ1cmMqioONjUfM0dKJpPs219HJpNh4YJ5CnGnka4EVM3KJ+g34TV5k2nA+TOsofYgqandFvV4TfkgNxwKMXfOLPbuq+OFFzdRO6uG8vIyfL7JTdJdzyOVTLK/7gC9vb1U1cyaUiEuwN27MhTZJp+Yk8OZZRYHusf6bAIae9PMKgrwzeWFfGFdN493xfjGCYzjui4vHegnlYnyZHOQgw/F+dalSTwPYlmTXd0G/lf9XdDYd3Lndcj/vDzAHduDxLOjq7PbYw5Jx6MmeugpHgACrOsENsA3z+7iwoVT6/ESERERERERmWgeHl3dPQy+9PKYgaeHRyaTITfn2OFmMpViy9btmIaJ47q4jkNR0auO5Xm0t3fQ2t6Bk3VGjJHNZElnMti2RW9vHwYj5+L3+/D5bAYGYySTKVINTbS2tjNjRhWGaeDz2WSzWQZjMVLpNFnHxXFc5syZjc+2yWQypNMZvNd8C9jzPLq6ukmn01TPmIEHDMZiw+sNwLZt/H7/lCgslJHu3e1y2Sz46cX9/O2zufQkPLKeScR2+eTiBB9YlscPnmrHcxXkTpiCggKWnB6mqamZ1rZ2YvEElZXl5EQiE94jF4a+VtDV3UNzSytO1mHhgnkUvfqdaYrYn8rymUUFrJjhp64zcdRt67tSzC4J8elFRfxxf+8JjdPc2ccf9udySWWM3GCAshwfj+1NUOp3aBj08e21Bg19KeYWmIQDNmByeS1EAifXI/fdS3O5ZrHDUw0GS4vSlEQPfyr4/af6WN8Mv3tv7nBfnYFkln3dHnMLLXKCCnFFREREREREDAyKCwuYN2/uq6p0D8tmszQePMjg4OAxjxUMBDhz6emvtFYYZO/e/SPHMgzKykqZMaNq1BgNjY20tLYTzc1h3tw5R+xNG4/H2bZ9B+XlZYRCIZqbW/D5fdi2zcDgIN09fSSTSdKpFE3NLdi2TWFhPoFAkPb2DhzHGXXMZCpFMpmk+ZXtX800DfKiUUrLSvFPclGhjHYwHuDXm2J8YGmE/7g0xoYWh7gTYH5egoq8ID2xLH+1MMwz7Wm2dU//dpvTIsgFCAYD1NbOJDc3h4bGg+zZu58ZlRWUlBRPaJibyWZpbmmjs6ODaG4u5RXlx/Wp1GT43NJCLp6fxxPbDves8Txo6HPIuC5+y6Q6anHoA6X9HQnee2YZZZHj7z+czWa5a6vD5TMS1BaY7B3w8+ElHts6TPa3pliUn+I7F8CdmzNcNDvIZXMsTNPkLztiPNMQ4rr52eFjrW4LEX/B40gPZypl05XygMP7uK7LtlaXDXUxTqvy85Zag8grr8sd/bnsaxtgQVUBjX1Z/rA5SUcsw2dW+MkJTs3HTERERERERGRieQzG4zQebMKyRucBruvS19ePaZ5cNWo6nSUUCo7KcDzPYzAWo6enj5LiIrLZDE3NzdRUVx/129jZrDNcW9vb00tJSQmGYQxlNJ6H4ziEw2ECAT8GBvl5UYqLCkefvefR1tZOa1sbs2fXEs3NPanzlIl334EImzrSvLXWT1mOj8Io7I0F+d3uBAEzzRdX2Xz3ggzfWefyQsf0vnndtAlyYaghdXFxEbbPpqWljYbGg8TjcaqqqvCP0ZB7vKVSaRoPHqSnt5/ysmJKS0oJBKZumn/FogIyjjtiWX1vlvubksSzHjm2wZVVIWoLRr5RX74w77jHMAyDgAUfXeSxvjMMAxAJGrx9foDH0ybPtEBpxGBBic1LzRnKA0n+sD/KzpY0H11uYxiHn4J5Po+KHLCOEOTGbA/bHFnF6/P5+MyKLI/X57K7M8tqslwxd+gxKQ8muWury1sS/dyxM0SBz+KDSy1Ko9PqaS8iIiIiIiJySlmmRcDvx7JH/77sui62beF67hh7DhV4dXZ24ToO6XSGPXv3Y7/SyiCZPHyz8kwmQ04kMiosjsfjNDQ0Egj4qaqsAMNg9+491NcfYNasmWOGua7n0dM/VCGckxOhf2AQy7ZeaX9gkkgksUwDv983dHM221ZbhDe4g3E/t20D2/QI2S6JrEnWHSri60wl+dZ5Dn9/rsf31id5rn36hrnTLtEyTZOC/HzCoRD1B1tpam6loLBwQoLczq5Oenr7mFFZQWlpyZifVE11XXGX5pRD3PXIcQy6E+6oIPdEWJbFDSvyCfkM1neO3SrB77NZOcPhxxuyfOGZMJ9bluZDp0eZW2hgmubw1xqWFCa5fmHkKDc7c/jz9tFfgbBtm7fOgRVVLhvq03zvyV5aBh1mhTNcuSDEP67xsaQkw80rfVRE9eYtIiIiIiIickjtrFkABINj31ze8zyKiwpxXHdUqOq6LgebmikpLsKwTGzbory8lGBgKCgzDI56c7S2jg7q6xqIRMLMnVNLIBDAMAwWzJ/Ptu3b2b17LzNn1pDzmm9Ce56Hl80SDofp6+sjJxKms6OLZCLB7NpaiosKyWazBAKBY2Y3nueROtJd2WXayboGA+mRj/n6tiBfXpPmu+eluWWVyXfWpHip6+g37Zuqpl2QC0NVoMFgkPmza8iLBHBfe6vDU8RxXObOnUN+NFdh4Kvkh20yjgeMDlkPKYmGuW7hAP+0ARLxAeYXh8d1Dvs64nzg/gBRE758XoiNzUn2dmQ4uyaHL2YT/OfWoTdmw1A/GxEREREREZGtW7fT3dPLiSYqAb/NktMXk0wlcV2HvLw8yivK8ft8VFVUYlnmqMykrb0D13WJ5g21LejvH2Df/joSiQSzZ9dSUlKM9aqWC+FwiLPOPIODTc28vHUbZWWl1FTPwLZtBgdj4HlUVZUDHv39A8ybO4dIJMLuPbtZ/9wLwOjMpqS4kNMWLTw8p44Odu/eh+u6GAZUlJUSOkJfXpn+Xujw87W1Hjef3ktBYPq2z5iWQe4hpmlSUVExYePVVM+YsLHGk2kauO6x35pN0xjrve518TyPRNagL2Vy7R+yxByTvz3b5r1zE3xvUz6u287blpbyqvuTMZg16YiDfYQPy/oSBlnPgFf+mklkPJ7Z1cUt6wqYkx/kf673mBGN4Hkem5pT+K2hc7pkbphwIMnfPOpwUWUn7zkzn/IcE7898TfKExEREREREZkKTj/9tNe9r+M4dHZ1U1pSwsyZNcM3CDuUxWazWRoahm5edqj4rriokKLCQuoPNNDW1k5lZQUzqiqPWChn2zazZtZQWlrCvv11PP/CJubPm0NpaQmlpSWk02kaGg9SVlZCTs5Qy4bTFi067nMoKymhrKTkdV8DmV4MD55vD/CRJ8omeyonZVoHuXJslmkypzyP5q4Bsq5BcS4sdVxSrkfYhLIck6DfxjY8ivNyMcep0jiVSvHn/T5S2JxX7eNvzoHisB8Is6K8jy+uK+K2PQ4/e5vDjOjQPn+qy2F1p4d5hM8DM46PprgBpAB4bE+c51pDrP1whnAwSEfc47nmoQbqu3oDvGf+4Qrhc6qD/PmD8KetHl9+Ej63pJdVc0c3ORcRERERERGRo7Msi5k11Udcb9s2s2fXMnt27ah1s2bWMGtmzXGPFQ6FWLJ4dOjs9/uZO2f2cR9H5I1AQe4bnGnArEI/haF84lmDRdVwg+1gGkNVs/G0Q9rwk2N5+CyP13sTStMwmFdoEfJ5BG0TC4urFxjMyUtx2oyRfUfOmJXH7UUuv9/mYpPFsgKsmAFX1SY4f7YP6wiTiCez3LHZY2Hp0M3M3nlahHe+8l7uuFDfC/fugbRjU1lgsWLW6Kf3NafncM3pAApxRURERERERERk+lCQ+yZgmib5EZP84SWHH/bxav9imbCyymDlcG8GH+9cnHfE7atyTb6wyhyey/WLAHKOOkY46OczK488/jlVBudUwVB/CAPwn9A5iIiIiIiIiIiITFVqEioiIiIiIiIiIiIyxSnIFREREREREREREZniFOSKiIiIiIiIiIiITHETHuQaxuu8m9YblK6HiIiIiIiIiJwMZQsiE8s0wDLciR93ogf0+f247sSf6FTkeh7+QGCypyEiIiIiIiIi05g/ECSTyU72NETeNKI+h/JgZsLHtSd6wGAwSDyeIOs4ONnJfZMZGBiYtLEt28ZxXHJyIse9T8qFnz7vncJZiYiIiIiIiMhkG0ifWIVtOBRiYHCQVDo16VmLyPGIGGE8w48xDWOukmCW+QUOi0utCR97woPcSDiMz7YnPcgNhUJ43uQ9WyzbxrZs/H7fce/z/Uv1VQkRERERERGRN7pvXXhi24fDISzbwnEcmMSsQ+R4/fUZDu+Yk2Y6fme/wO9QHPJYWjHhserEB7mmaRIMBid62DeE9y9WkCsiIiIiIiIiI5mmSUhZi0wj5waSnOM4kz2N180wTHwTn+NOfJArIiIiIiIiIiIib16maU7rm/QZhoFtvQlaK4iIiIiIiIiIiMibl9/vn+wpTEvmZE9ARERERERERERERI5OQa6IiIiIiIiIiIjIFKcgV0RERERERERERGSKU5ArIiIiIiIiIiIiMsUpyBURERERERERERGZ4uzJnoCIiIiIiIiIiIicnGQySU9vH8lkgkw6PdnTOS79GYtrHq+d7GmcsKjP4b2z+/nE2QFmFOVM2LgTHuR6nofjuuB5eJ430cOLHJlhYBoGpmliGMa4HNJ13eHnu0wPhmFgWdb4PgccZ1yO9UYy3tdZRERERETkZB3KrDzXneypvK7fmXr6+siJRKgoLzuFMxtf3QlwH3P5wGKDf7li+vx+2NCd5fvPGrzQHmBG0cSNO+FBbjKVorevHzx32nw6IBMjnU7j9/snbXzb58M0LXJyIuREIuNyzL7+fuLxBHiT/5eAHB/DtIjm5pCTc/KfqHmeR09vL/F4fEr8j8BUYtk2eXl54/ZaExEREREROVnJZJK+/gGcbGayp4JhmuTm5JCbm3vc+6RTKXLLpk+IO53VFPo5q7aA7uTEjjvhQW48HsfvswkFgxM9tExx7e3tFBYWYpqT17o5lUrT1z8wbuFSb28vlRUVBAKBcTmenHqxWJy+/r5xCXIBBgcHyc/Lx+dTJ5tXiycSDAyM32tNRERERETkZMXjcYKBAHmlJZP+7cFEIkFXd/cJBbkqmHzjm/DELJ1O4/f5JnpYkeMSCPjJpFPjdjwnm1WIO80EgwGcbHZcjuV5Hq7jKMQdQ8Dvx1XLCRERERERmUJc18Xnsyc9xAUIBoPj9rupvHFMeJDrOo5648qUpnBJRERERERERESmmsn7DruIiIiIiIiIiIiIHBcFuSIiIiIiIiIiIiJTnIJcERERERERERERkSlOQa6IiIiIiIiIiIjIFKcgV0RERERERERERGSKU5ArIiIiIiIiIiIiMsUpyBV5HdLpNNlsdrKnIZMomUziOM5kT0NERERERERE3iTsyZ7A8bCcHuz0fgyGQhPHKibjnz3Js5I3M8/z8Dxv3I/r7rwWsgNDPwRm4hbfgBldhWkFhta7LplYE77Ui+D2gz0Ls+ACMI79mUwmk+Hue+6hoqKSiy+8AMMwxn3+byau607IOJ7nkUqlSWcymKZJJBzSYyciIiIiIiLyJjQtgtzU5q8S7940/LMvrxrf3E+QDS0ZsZ1hWODLBTN4zGMeCuIMwyCeSGJZJsHAobDMIxaPEwz48fl8I/ZxXRfHcchksvh8NpZlYRgG/YMxQoEA6Uwa0zQJBYOYpkk6nSGZSpETiZDJZhjo7x+zktP2+ciLRvH5fDiui+e6pNNpEqkU4WCIeDJBJpUadQ55+fmEQ6FRx3Mch76BAYL+AKFQiCPlPq7rkUgOnX/A7x++JtlslmQqTTgUwrKOHhImEkkc1yUnEj7WZZdjyPRtwC68AcNfAIDZvx4yPbhWPuBi9D6AL/7CyJ3yHwbjyM95z/MYGBhgcHCQmTUzeejhh5lRWUFOTg55eXkkk0kSiQQAW17exr//24/5wQ9+SHFxEcnk0PJQKEQoFKa7u4ve3j6eevoZamtnsuT00/H7AxQWFmDbo99Ostkst992J+lUkg/f8GHy8qJHnOOf/3Q//mCAd7z9LcTjCQwDOru6ue/++7nm6qupqqo84jm6rsvLW7ex5eUtvPOqq8jPzz/aZZ42MpkMfX19GKZJIBAgk8nQ2RknLz8P/6vem16PbDbLQCxGNCcHy7KOuJ3nefQPDBIKBrFsC891SSSTuI5LOBzCNIfeHwzDGP5vERERERGRN6NkeqgA0TAMbMvAMqdfEU4667K1w2VJqYVpQHfCI+0e/l3PMODVdW2Gm6E4YuG3J//3wXgGLv11gqtn9rGjL8LsqMsXLojwwMs91PcPPTYvdYV51+m5fPj06ffYwDQJcl8r09dI5sVvjFpuhfPwz/80bvHVxzxGOp0hlU4TCgYA75Wqt6Gg1PU8stksaeNw1Z3P5yOTyTIw0I/ngee5w6FFbm4UyzSxLJMcf4REIkEmkyUQ8OPz2WQyGVLpFMFAgOLi4qPO61Dols1kCASDFOTlYRgGqUyagtLS4TE9zyMWT2AaJq7rkcmkRx0r6PczGIvheR62PTKo8fn8mKaB67pD6y0Lz/Po7esnmptzxPk5jjMqiM5kMriuO3z9DrFt+6gB0Xg4FDwfiet6mNPojdPKPRPox0v3H16YPjD0bycLmV0nfMxUKsX99z/IXXfdRTSaSyDg50t//2U81+Xzn/9bVq9ezbZtLxMMBrjxpo9x//330dPdw2/v+j3PPbeexoZGrnjbW/mrq67iRz/8AZlMls7OTsLhMJFIBNez+Pa3vkZJaSn79+2nv79/xPhVVeU88eTT3PmbOzlj6VJMc+g5YdsWNTNnUl5WRn//AE2tB3nLFVeQyWS4974HKC4uZN7cuaPOx/M82tvaOdDQQDqdfmWZS139Aerq9rNhwwYikaHnsGFAeVk5s2pnnfLn4ng69KFRPB4nGAwSiUQwDAPX9RiMx0ilUlimiWmap7w6N/tK+wjLMhkYGCCTTuO6Q+9/h953DMMgEAwSDoUU5oqIiIiIyJvSnl3N7E9ZBHw2TjJJaa6fBbOKpkTAeSLqOuL8fFOQr5zrEvLDrRsSNCQiw+stw8PxDv8eWuR3+fRyi1mFkzHbkXymxwfnD/D5i8oB+MQDHi1xgy9tKOLgzUOPw882Aoz/N6wnyrQMco/EifeR6WnAOnpWCkAg4Mcw+H/s3XmY3Ndd5/v3+S21996tbu2SLdvyvkaOYxIriUMgIcBAEhJCmDAh3IFMgMw83AfmApd57p3hzmUChIHh5s7NJBAmJJCQEHASJ7Hd3u3Iu+VFaltqWXur1Xttv+3cP6q7tW+tqq7q1uf1PLKsWn7ndPepqq5PfX/fQzUIiOMYz/MJo2A+uI3CCJskhGEI1IKKxCZkMhmstURRjOfVqnHDMCAIAmwSz4cYSRLgeS6u65LNZubDkHMxxtDZ0UEQhASzYwPYxFIsFk8IbapBiJvNkiTJfEVlFMc4x1XGpXyPMAyoVBOSOJmfs+d5WOvOhrIWx3GJ4whrk1rvzySpXWeT2u19n3QqRRRF82PNCcOwlpiVT3wg5HK5hodnlWoV13FJpU6tTgzDkDCMyOVOrVhuVS4GW3mprsfMZDK85z0/zsDASjq7Olm1coDvfPu7rFqzik2bLmN6ZoZf/MVfYO3aNfP36eru4ld/9Vf40R+9m+9/7wfc8ZY7GDl0mLe//R2USiVefuUVVvT1sWLFCh4YHOSee+7hmmuvZffuYfa+8QY7dg6xoq+X3t4eADo6CkyMj/Otb/0TL77wIre96TY6OjrY+naXvt5edg4N4XspBvoHKJXKvL5ziJHDBV595RVe3L4dG0d0dHRSKBS46667OHDgII8++igzM7U2FEli2b9vH+PjE4RBSDqdAsAYh5tvupm169YumSA3ma14DcMQx3HJZDLzj3vHMWQzGcrlMtMzM/i+P1/93whzH3C5bu25rLOjgyAMqVSq5LLZUz4gEhERERERuRS98MwuXtq+h6veej0RKSbHjvLUC6+Rc6/msg19S6o93lUrC/yfHZbeXG3Ov/+Ok4v9Tv5a0osyL6lZVkHuhbDWEkbHwlXXdcjnaqd9n661QpIkxLPVf2EYgamFrvMBi3FOqQ5NkoRSpYKNY9LpDKVSaT4YPh3X88hmspQrZcIgIE4SkjiqhcecON7x/Vk9z6WzsxNrZ9skOO58kDV320qlSpzEJ1TMxUlCJQjwXAewVIMQ3/Nq4xw3r7kxjTGkUinm+jSkU7UxpqZncByHQj6HtZYgCOdD7EYzxjA5OUlnZye+f2w5R1HE5OQU+UL+LPe+NBwZHeXb3/4OP3zyh0xPT5Mv5Hl1+8vc9Y6tjB4eZe/efTw4eD+FQu3J2fM87tq6lf7+FWx76mluf/PtXHXVFTx+9CiOY+arQI0zux5nPzhYuXIlW++6C4B/+Idv0dPTxdvfftcJc/nhD5+if8VK/s2nfo1sttYOYmJiku9973v0968kk0nz9DPPkc5k6O3tYXx8YnbdO7NjG1zX5YYbryepPSq4+aYbSJKEBx4YZOerO/jIRz9CZ2cnTz31DLlcjmuu2byY3+6LVipXiKKIlO+TSqdxTwppPdcll80SBAFBGGFtZcFtTeIoYmpq6oTnLWMMhUIbrusQhCHlcplCvkCxXGvvEscxcZIQR+EJ93Mch2w2d8LjUERERERE5FIweN+L/Iuf28JoDO1eQNfGFTgG3hgrs2ZNQtpfWkUwbjAJuaXXstAArnH4nQdq/75hBQwU4D9uNfOXJWGVn9lsgNSZDtPSLsl33NZaZoolfM/D9fz507OLpTLlUgmwxHFMpVwLrPxUmkI+RxjFBMftVJ/M/p3OZElnMhgDmXSaUrmM73l4nkfaWipxQpIkpFIpXNelWC6T9lN4nku1GuC4Dinfn+0xaWq9apMEE8e1IMf1aC/k5/vxzsnG8SkBjOu4xHE8f+rz3Neb2ATP806o3AuDkGqljJfPE8cx1loKhcLsKdMh5jQ9co2pBWmV2e9DNjPXm7XWjqJYLs+e8m0WJchNp1KEmTQzxRk6Z9tQ1NpOlEil/Pm+x5eyQj7PbbfewhWbLufAgYM88uij/N4f/B65XB7HuIRxxOZrr6JSqfDwww/zwQ98gP7+fu6//36+9rWv0dfby9vuuou33PEWvvQ3XyIMQ44ePcobe/aQy+UwePz4j/84GzdunB/zuuuu5rvf/z5bttxGPl8L04MgYPfwbm697RYymWObt+0cGuKpp57ine+4m2KxxBNPPsFPvO89XH31Zvbu249x3VN65FprWbN6FS9uf4U//ePP8su/8vH560ZGjvDZz/4ZvT39p5vMyAAAIABJREFU3PnWOwiCoPYBxBJRnJmmq6v7lCrzAzOwqsB8Rb3neXhBwNj4+IKDXMdxSKczp/TBdhxDHCdEYYQz+7yT8jxcY6hWA1Kzz1nHqz03LK1ThkREREREROpl50hIlDLcvi7La2Mx07ku2v2EMLakL26Lk0X1/PMv8uW//Sof+/gvM9DXyZf+5ivs3fPGGW+/avUqPvShD7ByoH8RZ3l6rmP46es72DVVK368ptfQlYF/eYPhoTdql/VkPDZ1NXOWF+eSDHKNMbM7vzsYU6tws8D0TJF8Pn9KgDK3iU8hl6UEGMecEBAaYwiCkDCOCMOQOE5Ip2rhh+/7RFEMs//veR6VICSVSuF5HnFS6097fAWt7/uUK1USmG3jEDE5OTHf9uF46UyWzo72+UDX9z3CKCSOj7V5mAtpjw9eatXCZXLZHMY4RFGMf1LQeyae65LP5earhGe/C7iuS9tsL8/FUqseLDA+OUmxXKaQy1GuVIkTS0db25I6faFRstks1157LQCvvb6L3cN7uP3228nn8xw+PMLI6Cg33nAdM8Uir73+Olu2vIlMJsNA/wp+8n0/we7hPQw++CDr1q3hD//wPzE5OcUDgw9y2cYNXH99bbOzzs6OE8a84opNbPvh0zz5w6d4x2xV7ht79xFWI66//tr5n8vY2Dgvv/wKm6++ju6eXo4cOUK1GrF+/bqzfk3GGPr7++ns7OTWm28kkznWPqOnp5tPfvLXSKczZLOZJdNSYU7tsXviun31wBQfu7+Pf331KB+7tW3+csdx5j9QWojaJmqp036P4iTCcZ35sxJ8z8MxhiCMyGbUVkFEREREROR4G3p89hYjXj40TRgb8o5DHJszbj7fqjZvvpIPf+j9XL5+Na7r8tGPfIgwOvPZ5Z7n0d7WdsbrF1NiLffvnOZPX6xVE//f74C7N9Z+AL/5/VqQe9fKCr91h8uqrqX5nnZZBLkmcfDHD+BO/TTheguzp1yfSZIkjE1MEFQqJ1w+16zg+HvOtUvo7u7B9z2iJCGfzlCuVPE8l3QqNV9Jm4SW6myrgjNVps21RDjdBlxzY8VxTDRbbVuuVMhns6xYsQKo9X2tVAPyudNvKuQ4Dp7rUa5UcV2vVp1arpDPnthHM0kSUn4K1621hJirkJybn7UWO7sJ3NxlURQxMTlJGJy4sdrcvKcmJ0643E+n6erowPMau8yMMbQXCoyNjeNgKJVKtLUVVB04a3Jykj//87/k7/7uK7UWIXHMl/76r+jt7eNTn/oNKic9DgDGxye4775BrrrqChzHZfXAGh559An+t3//21hbq1g3jsExtar1P/3sf+XtW986f3/XdXnr297CH/3n/8KG9WspFNq49zv3csMN19PdfawDeqVcZd3KtfT19lENAtatW8dvfOpXASiXy1Rne8VWqxXK5TLGGPbvP8B/+aPP8Njjj84fZ+4DD2MMn/vv/+8JAf6KFf383u/+Pm+7685GfHvrrtDWTqUakJvdzKwSRHzq4R5GSoYv7Oji1oEprl+dI0kSKtUqhbb2hswj5ftYzzuhv3eSJFQqZWamT9zQDmPo7OhcUv2oRURERERE6sXzXHYcmOaWTT28dCRhXU+WZ+5/mquuXkc+vbSit3Q6zU033TT/766updNiIbEwXol45uO1POiX77GsboN3fTk5brOzPPfvt/zCEqjKDcOAV3fuxuQ6uXxNNx52eQS5hX0fxnQNEP6UT+rANyAaIfbOXNLtOA69x4VJSZJQrdZ60mLtfHVsHMcEUUQuk8HzvNoGZJUyQaVMkiTzPWvb2zvwPJegWsFzPXLtbSTWcnKMOLdxkKEWdB3X5pY4jpkplSnksvO9ah3n2OnLc711oygijuPZjZAcXNc9JdBNp1NEScz0zEzt3yl/vqpujud55F2XSrWKtVCuVCgVi/NVv3MBbqVUmr9PV1c3fb0n7iQXBAEzpRJpP0Ummzmln+dicV2XQiHP5NQkhXx+SZ1K32gdHR18+tO/zic+8XFGR4/yz9++h5/9mX/BqpWrOHToEM8//yK5XI6ZYnH+Pvl8jq7udl7ftYtDhw9x3bXXsX7tGv72b7/M1NQ0jz72OOvXreXqqzfXKtzzBcIwPGGdbdiwgU/861/hs3/2l6xft4Z1a1dz6223nFD9uWbtKtasXcXDDz3KkaNHGRp6jd/7vd+dvz4IAianpvj+vffi+z6FQoGP/MJH+K9//tkTPiA4dOgwX//6N2jvbOdH7ryT9evWNmwDsEZrK+Q5cuQIlXKZfCHP14dcfmr9OH/8Qi//8fYJ9s0YNlUqFGeKJElMX1/fos3NdT16urvnf4a157SASrUy/2GQiIiIiIjIpebXPv0T/Pln/omXHgy58q038bWv3c/GGy9nxM9xaLLCQEfm3AdpEZVKhdHRo/QP9OMYU9tUPAzOeHvP80/Zt0gaZ1l8l5N3VHGyBdw9UyTJSjDnF+AkSUI1CKhWq6RSKfK5LHGcMDk5QRCGZLNZ2tva5gOhVMpnxYoVsz1Yy9gkxnXdWqVuHOO6HpnZHeSnZ4pk0ml83yNOElxDLfCoVMjPtx+wGCAIA6LI4M72d43juNb7NYrwvFrgOz09RZIkJNaSxDFJHAGQy+VPCVCSJME1hni2opbZY57pFHNjIJvJkMseq6abq/w9uUfuHGstYRhSrlZpLxSwFiqVKul0Cq8Jp7IbY0hnMnQaBz/lq6XCcaamp3nowYeYnJzmsssuw1rLY48/Tm/PCjLpFHESn7KG0uk0m6/azDe+8c/MlKZYObCCb9/zbXYM7SQIAg4ePMQLbQUeeeQRjDFceeXV/NzP/ewJ1bbFYpGpySmuumoT+/buZcOGDYyNjc0/Rk7nqquu4Jvf/Mb8v/fu28+3/umfTumRe7zdu/fw8COPcNXmKxgYWMXTTz1DEsds3LhhSYa5xhj6+voIghDjGD5ynYcxPn/8AvzI5YXZjRoj2traSC3yWo/iiGq1iud5uK5LFNXayRz/PCkiIiIiInIp+jf/7n0kFkamqrz3jnV4nsfukSIv7Z1goGOg2dM7b6NHx/jb//kVfuVffwLXdXjw4Uc4NDJyxtv39fRy99vvorun+4y3WSzWwstjGb65o1Y5mXcCcm6KLSuqfHNHLUzfPgJvXtPMWV6cJRHkOivfi+m8+YzX2+lnCL77JB53Ye7+aWLn7GXfc6ckW2tJkmS2dYChWCxiHIfOzk4q1SoApVIJ4zhk0mmCMCQKw9pp3LOtD2obidUCDtcxRHFEFLnz/WPLlQphFJEkDp7nUmhrw5+tJKz10PVIqjFxHM8HXLlshiQ5Vq7rurU5wdlbK0RxXDtN3oK1CflcHmuT+Tk4s1/HxbY6CMOQIIwASy6bxfO82QrehGq1Sug4pFPp07aPaCTXcchml86nXKeVvgIbnPkJ8mTG7wBz9uA8CkM6O7u47bbbmCkWcYzDT73vfTz08GPs2LGT2950C9nsqafE+77P6JGDvLF3H48++gQf/NAH6e7uplyuMPTaa/T0dLNq5cpTgsSRkSP84Ac/oFIq4/ppbr31Fn707nfy2GNP8K1v3UOSRLzrR3+Uq6684ry/ztMZHt7D4OAg3d29XH75Rm7fsgVjDGG1wssvvcLTTz/L3Xe//YRweakwxpzQNxvghq4ZwKttPOY3p1N+yvdxjKFSrVINAuI4pqO9XSGuiIiIiIgI4BgY6DhWKLVxRR7ftWe5R+tZs3oV7//g++noaCeOY972trdSrp65R24m5dHe0ZiWfxfKcQybBtoYGq/9+2eutKxss/xfW2P+cbh22fpOuHHF0i3+WyJB7nvOfoN4FOOMEhdSmLX9WHP2kMMYg+s4OI6L4ximZ2aIwhDf9zCzfSnzuVyt2my27+bchmdzVa2JZb6KMQjCWqDpulSDgJmZIq7nYQyEUUQ+lyVJLEG1QvU0/UjnVKpV8q4738YBmK3+LRHMBs+1it2EMKjO369QaKMS1Fo2eK6L63q1r8UY4Njx4iSmXKlggXz29D12z/ptjmOK5TKu4+B53gmboxljSKVSOE5t47Tp6SmM41DI5xXyXIiVv4YTF899uzluHszZH8bd3d3ceNMN/NO3/onBwUFuuuVWstksa1avolqpcM3VV5/yM5qcmOSJx3/INddcy21vuo3xiSl++7d/h7a2wmnHSKXSvPmOOxgbPUoQhqxavYoN6zfwpi23zbdbWLtuLTt2DLFv316e+uEz/M2XvsQHPvBBbrjhuvP/eoEjI6N845vfJJ1O09fXx5YtW+jrO9by4+ZbbqZ/YIAdO4b4xjf/kf379vH+93+Aa67ZfEHjtJr/462nbnZ4vsIoolQqEUfR/GVzfYUnZp/jjue6Lvn86ftMz7VliaKIIAxrPakLBVXBi4iIiIiInMaantO/j25lGzeuB2rvDftaoNL2fHkO/Nabj39vWiv2u3KgwG8tnaLos1oSQe65xG4vXFsLcs7nc45atduxzb0K+QLGcErrAc/zTqheTadSMNt7NTPbI9dai+/584FHJp3G97z54LeQz+M6zuzt3PmNw840r7lAzfc9PM/FGEMmnT5rBZ7ruuScTC2gPk1bg+Or++I4xlqL49Q2qUrPfj0nhzCe55FzXZzj2lQ4jkNutmr4TOHs3CnXczvaK9y5MCZ3ZUOOm81keNvb3saNN95Af/8Avu+zadPlXHbZRnK5HAAbN6zn4//ql0jPVm3f+SN3kM/nyGazlMtlbr3lxjMe33Ecurq6CIIQ13Xp719xSuV3Op3mhhuu44YbrmN09Ci33nYjq1atBuDmW24kiuJTejn3r1jBB9//s/MV6QDtHe28+93vIpvN0tvbe9q1uGrVSgYG+rnyqk3MTM+watXp2zIsJdcPLLzvs+e6tZ/zWZ5/Tua6teeIXDaLOWnzyNrZBD6e59U2vtPjXERERERERKThlkWQezGMMfOh44U4vhL11OMd+7a6s9effPn5zGvu2K7rnrG/7cnzOZeTj3Om+xlj5ud+/GXn8zVc6Ne6FM19ELBUeJ7HmjWrWbNm9fxlhUL+hNtkMhlWDtQ+onIch97envnrstks1157bd3m09vbc8LxC4UzVfr6p2zmlU6nWL9+/TnHcByH1Q0McOcC8KXAGDPf0uVCnW0Dw0vhsS4iIiIiIiLSKnTOu4iIiIiIiIiIiEiLU5ArIiIiIiIiIiIi0uIU5IqIiIiIiIiIiIi0OAW5IiIiIiIiIiIiIi1OQa6IiIiIiIiIiIhIi9N24yIiIiIiIiIiIktcKp1u9hSkjjzP5/KNa8Fx8AwYjIJcERERERERERGRpS6dSjM5OUV7e1uzp3Le7NzfFqKkqVO5IK+PBjy2c5Kfur4DSDVkDGMMvu9hjJm/bNGDXD+dnv8hibSaJElIZ7N1O54xDkmS4DjqYrJUJElywpPkxTDGYIwhsRanTsdcLpIkAX1PRERERESkxVjbGqlVHF/4e9POzg6mpmfYf+AAcRQ1aGb1NRM6XNWzmmcPW9715db43p+Pgufw7jU+W/ojGhXkns6iB7npVIpyuUKSTpHE8WIPLy0sSRIqlUrdQrQL5TgOlWpAro5Bbr6QZ3x8gnR68R7UcnHKlQrZXK5ux0tns8zMFPE9t27HXA6qQUi2jo81ERERERGRi5XOZCiVK1hrm5ZNzClXKuTy+Qu6Tzqdpm8Jtld4YFOzZ7AQDtC56KMuepBbyOfxXJcwilrmUw5pDe3t7UATP/0yhlwuRyFfvxCvo72dYrFIsVis2zGlsTzfp3CBL5ZnYoyhu7OTYqmkD65Oks/nyNcxMBcREREREblY2UyGOI4plUrNnkpd35vK8rHoQa7ruuS1EOUS4XkebW1LpzeN1Hh1rJ5Np9Okl+AnoiIiIiIiIpcax3HI57J1PVP3YriuzuyUE2mzM5EG8jyPJI6x6gy9ZBgMjqMXSxERERERkUuN6zoYPBLb/F23DAZHQa6cREGuSAMZY3A9PcxEREREREREWl8tPHVQgCqtyWn2BERERERERERERETk7BTkioiIiIiIiIiIiLQ4BbkiIiIiIiIiIiIiLU5BroiIiIiIiIiIiEiLU5ArIiIiIiIiIiIi0uIU5IqIiIiIiIiIiIi0OAW5IiIiIiIiIiIiIi1OQa6IiIiIiIiIiIhIi1OQKyIiIiIiIiIiItLiFOSKiIiIiIiIiIiItDgFuSIiIiIiIiIiIiItTkGuiIiIiIiIiIiISItTkCsiIiIiIiIiIiLS4hTkioiIiIiIiIiIiLQ4BbkiIiIiIiIiIiIiLU5BroiIiIiIiIiIiEiLU5ArIiIiIiIiIiIi0uIU5IqIiIiIiIiIiIi0OAW5IiIiIiIiIiIiIi3MWqsgV0RERERERERERKRVWWvZ8cILCnJFREREREREREREWtXY2BijXoeCXBEREREREREREZFWlc3lyJlIQa6IiIiIiIiIiIhIq8plMqzuyinIFREREREREREREWlVM8Ui1UpVQa6IiIiIiIiIiIhIK6pUq+w9MkGYblOQKyIiIiIiIiIiItKKisUSro1Z1dOuIFdERERERERERESklSQWqomhOjNNbFxc11OQKyIiIiIiIiIiItJKEmuZCiIybW24cZVqoB65IiIiIiIiIiIiIi0limKmJqdIZ/PkUj4HRo4qyBURERERERERERFpJa6BvOeQ8lOsWbuWnnwKr9mTEhEREREREREREZFjfN9joKcDYwAMvX0rVJErIiIiIiIiIiIi0uoU5IqIiIiIiIiIiIi0OAW5IiIiIiIiIiIiIi1OQa6IiIiIiIiIiIhIi1OQKyIiIiIiIiIiItLiFOSKiIiIiIiIiIiItDgFuSIiIiIiIiIiIiItzmv2BESa5aXDAQ/ugZGqh7HNno1cDNeB67tD7lzv0Zt3mz0dEREREREREZG6U5Arl6RXRwK+8orD2myVywsxuOlmT0kuQhLM8Pp4mvHQ8pNXxnRnFeaKiIiIiIiIyPKi1gpySfrnoYQNbSHZbFYh7jLgpAr05F2K5ZDhiWbPRkRERERERESk/hTkyiVpbylFKqUAdzlxHIeKSTMT6mlNRERERERERJYfJR5ySbIWUF/cZUe9jkVERERERERkuVKQKyIiIiIiIiIiItLiFOSKiIiIiIiIiIiItDgFuSIiIiIiIiIiIiItTkGuiIiIiIiIiIiISItTkCsiIiIiIiIiIiLS4hTkioiIiIiIiIiIiLQ4BbkiIiIiIiIiIiIiLU5BroiIiIiIiIiIiEiLU5ArIiIiIiIiIiIi0uK8Zk9g8dnaH9uAQ5v5/xz3tyx9s2umYbRmlpcGPb8c74TnGln69LokF0LrRS6U1oyIiIjIcnHJBLk2LpGUX8dOPY4pD2FsVOcRDNbJQGolSWoDkddPJteLcTvAbQMnVefxpNEcW6UzfoW+8D58O96wccrOWirOBopOLxXTTuL0Epk2kkvn4bks2CQiqhygOraNsLwLa5PGDOSk8PNXky2sxqRWYEwa62RxvXRjxpOGsUmALe8innoCp/wqJqnWfwwnDakBktR6Im8lmUwvxp97XcrUfTxpHJtE2Ooe4qltOKUXMXGp/mMYF1Irsam1RP4avHQPXqoLnAK4ubqPJ41lk4ikuoekoWvGg9TA7JpZi5funl0zbeBm6z6eiIiIyKXuEkiKLLa0m2Dkq9gjn8dWXl+0kaPclZjCj0DhNtyOLZjMJvA6Fm18WShLLtnPqvDrXBb8D9qT7Ys28sFkJRX/Jxn138S4cw1lbzOh0ZppdUHpAMn4t6ke/BKp8kO4izBmCJQLP4uTXo1NX0O2/8fwUm14qe5FGF0ulq0eJBj5exj5PEnphUUbN85eBoU7IX8zbucdmMwV4Pcs2viyMDYcpzryDczI50lmHlu0cZP0aqK2t2Byt2C63oqTuRxSA4s2viycDccJRr4BI/8fyczjizbuqWtmE6T6F218ERERkeVu+Qe5cZFw978lGfvHRR86Ku2E0k4Y/TJJ7lrc7p/A6XonpnD70qnQjSYhnMAmM5BMQVSFZAaSBVaoOr2Q6sd43bVqH6/1lqBHiRudP2B15QuLPvZK5yDEn2NN/EXGuILD/nsY9d7FhH8niVkaFZcpyrSbYXxKuK7FdRMMLqnwKH5y5MIO5ldrFcthNxPJJoq2DWNar7X3xMHv0XbgEyz2ozo783WYAWtylKe/j9f2Jtzu95Bu24jrFRZ5NgsTBTOElRGwFZitYo6TGM9OkE7euKBjJTZD6K7Guu1Yp51s21qMac1TfcPdv01y5K8Xf9zyLijvgtEvE49ci9t1N27XezDtW2pVuktBXITgKDaZhmR69nWpAsnIwo7ndEJqAON1E3rr8H2/vvOtg2jPf8Ae/GzDu7acLK7uJ67+PfD3OEeuwOm4G7f7fTjtt4Hft8izWaCkgg2O1H53iWcgKoENIT64sOOZAqRXgttL7K/B81uzsj3a8wckB/9s0cc9Zc10vhO36ydx2rcsnQ+N6r5m2iA90PJrRkRERJaG1kvR6iwe/RZxE0LcEyQV4pmnSco7MEe/idv9E7gr/hUmd1lz53UmNsIWX4XiM9jyDkw8jU1KkJTBViEu1365XQinHfxucDuwua3Yri2YzJr6zv8i9QffYbX9alPn4FOln+10BLtYE93DrvBuDmd/h7LTmm+cHRJ6nGG6vT10xUN02adxqOIBjk0wGHym8MzEhR3YVKjalZRpp2TWsj/7TvaVb6FEe0O+joUojj5JZuwvmzoHY0tkpr9OUn6UaOKfCXs+htN+J23dm5s6r7OZHnsVJ3wDp/QsBG9gbICxlgQwNsHYSWwyekHHTHDB6cdx8iROgcniz5DKryfXvr4xX8QC2aPfJW5CiHviJGKS0gvYyg7i8e/hdr2r9rpUuK658zoLW3wVW3wOyi9joilsUpx9XapAHEAyubADmzz4vVi3nST7I9iu2zG5jfWd/EWw4w8THfrzZk+DpDxEUtlFMvkDnI634/b/S5y2LWBa81dJW9oFxeew5Rcx4TjWlmu/v9gyxBEkYws7sMmA1wteJzbzJmzXmzH51nquteMPER36i2ZP49iambgPr+MdmP5fxGm7HcxinLdy4RZvzdyByV9V38lf4pIkIQ6LePEEJEUgqoXvxgeTInHyxE4Xfirbsh/wioiInK/W/O27jsxok98sH8fGM9ji89jK68Rj/0zqyv+JKVzb7GnNs6Xd2PJ2zMQ92GgSonFIyvWtAEqmoDqFBdzKbmz5UVjxi5jCjfUc5aL0FP8UnPr3kVuIjCmRsS+RC3dzed8uHp/5HCWndU5RbDdHGDCP0N85RtfEQ6TjGTxbwrGV2g3i2T8LFWZIM06acTrZQ2/4Cqvcq3jFfJjDUWsETsWpnbRVftjsaQDgRIdwokPEwWvMhL9HHId09l3f7GnNK06PEM28RBTN0DbzVUhmMMkU7kUtkmNcYtzkAMy2J3bG9mKnV1GKP06u66a6jFEP9sjiV/ufiU2q2NJ2bGWIaOxeUlf+DU77zc2e1jxb2YctbsdM/DM2Gp99XSrW93XJFiEoAuBXd2PLD8KKj2La31LPURbMjn+t2VM4xsa1cK66l3jiPlKXfQ6n553NntU8G4xgZ16AqXuhehgTj0M8Vef1UoFwH4T7cCuvY4v3Q9/PY7p/rJ6jXBQ7/jWw9XlevWizayao7sVMPEDqsr/E6XlHs2c1z1YPY4svwuR3IRhZnDVTegB6fx7T/e56jnJJSpKEsDyJHw9hpl8mmXqCyugh/PLrGBuROHmSwlpS3ZfjdNyKzV9Dxd1EJpPFOK13hpeIiMj5WPZBrp050OwpnGIu0A12fIjUVX+HKVzd1PnEURHGf4A5+mWIxrA2WJyBkykoPo0diTDur0P28sUZ9xwuX7UfDjV7FifKmBKZw/dwh3kfj+XuaXplbo5JLks/yKboK2SSUdxJCzZqzI7Yx0nFR1nF43imRGA+ybjd1NgBz0OSLPbJzufmRodoP/xb2CN5Jriv6WFukiSUJrbjHfl/SIdDWGtwqf/GXifzk1GojhIc/m+Uza+T7WyN8N/O7G32FE5hkyqUX6b68o+TvuY7TQ9zk7hKMvEwztG/gWD/Ir4uzUD5Zezh/wFOvjU+ZCyNtE4oNyepYCuvU93x06Q334vT3dzQ2yYh8dQzOKN/DdUhmN04sOHPzrYMwR7syBfAy2Pa39roEc9PscV+iYHZNbOT6o6faqE18zTO6JcWf81Uh2fXTAHTfmejR1y2KpUKqWA73tHvkuz7KsnobrAhXpLUzi4EDOBNPk980AHjY1ZeQ2rtx0jathJnNpFKLZFWdyIiIsdZ9kFuELzY7CmcUVLaTvD6J0ht+jwmdwUscu9PG1eJikO4o/8dis8t6tjHzQKKzxGNP4SbWoVpgR2O3UMX1pdz0SQJXTzN7eVfYFv28xSd1dR+RV08DhE9zqvckv1P9EavQzK7i3myeHMwWPrtc2wwjzFt1xDR3F5zHSOfbOr4Z2JsCROX8Hf9NFP8HW29Ny96f+EkCYkqRyjt+yKZyhOkzAJPfb9IqXAHcfFh4rarcN3m9z9t5dclwsO1Dxk3fxWncMOivy6RhATFvXhHP48z/cjijn28yhDx2Pdx0xsxfnNbuYThjqaOf1bxDNVX3knmmvsxnVsW/5R5GxGUx/CPfgFn4tuLO/bxwkMkR74FqatxM73Nm8fcdMJXmz2FM4tnqL76bjJXf6+Ja+bo7Jr5zuKOfbzwIMnotyC9GTe9RHoHtwibxFTKk/iT38UO/yHx/hM3JT75N2Nro9mzwwLivdsw+57FbP4x6PtNqu1bSGUKarcgIiJLyrIPcs+XcdJYtwfHOBiziG/0qweIDvwZ3upPYxZxV18bHcWO3YczeT9E+xZt3DNxZh6GjtshfzWLHU4uVLPWTD+vc7P9M4a8T1ExnSzO9yvBNZM9a7W/AAAgAElEQVSsip/i8vR3KJQOArlFGPfM1vqPsCd8K2NJ6/SyPJvaeunEMf6irhcXC4f+MyXv90nl1i3auMZWmT54L6byEu3RY01/WCdTTxPnbsfpvBHTov0ZT9asNYMNiff+IWbd72Mya1msH56NJkgmH8Id+wFEuxZlzLNxSs9C+SXwmhA2LYAxDtbrW/z1AoR7/z2+9xlMdhOLtl7iKezUk7hH78W2QHBpwtcxxScg9W5wmv+B0flo7pr5XXzvj5qwZp6YXTPN/4DEBEOYmSch9a5aL1c5pyRJiEv78Ea+QeXVL5Aqbj/3nU5ibUT86v1EI0WcTf8L4Yp346c7FOaKiMiSoSDXyeBkNuIWbsOkrwMvi3Hyiz4NW3wJWz7Y+DeLtgjV17Ez2zDV15qdrRxTfR07+dBsZXKL/zLbAmtmPbDCfZqq6cXaBlfM2QqmsoOM8zKZye1Qbuxw56stGGK1eZIJ1tU2uWpVxsVJb8At3IKTvQnrtmHcxV0vHhBUXqNcOdr4wWwVgj2YcC8dlQcbP9558qMhpscewMtvwku1zmZ5p9UCawbAll7FVo82fjMrW4Fgd+11qfJKY8e6EOE+mHwYcteC19prxk2vw+Rvws3dgvW6Z89uWeQK/NIQJpgC0+BTlW0A4V5M8Wkov4BplbYT4VHs1KNQuAWTXtXs2ZxTbc3cjJu7uclrZrrxv/fZAMI9mOKzrbdmph+Gws2Y9Mpmz6blWWuJq2PEI/cSD/0NfunlBR/LsSW8sSexuxwSN0vUdzd+qrkFCiIiIufrkg5yjcnitN2O2/NBTHpDC+y8XGlsc654GkpPw8yTGBs2cKAFqu4Ba5teuXc2xknjtt+B0/2Bpq+ZLJBtdJ/ReBrKtTVDC66ZHn8npppACwe5XuFmnN5fwGQuA5Np2vJOASka3Gc0KUPpeUzpMWzcGhsGHs9JpoGo2dM4p2NrZhOYVJOfEqu1cL5RklJtzRQfhxZcMwQHakEzrRvkerkrcfs+DtnN4GSbtl5q44aNfa2wAab8Mrb4GDYca9w4CxWN1l43W1xrrZmgFrQ2ShJgKi9hi49iw4nGjbNQ4SgmmQYU5J5LHJZh8mHM3r/Cm34FYy/u9dyxJZKj23Bzn4fsAEnnrThO6/4+KSIiMqfZyWVTWa8dr+dnIdP8DZMaLp6GmUeh9EJLBnIAprydWsjSuhsPGK8dt/tntGZaRKf3ICb4LbAtWsVtXNzeD0L2mmbPpPGSMsxsg9I2bNIiZdsniZMIa1tvc7oTGBe390OX0Jp5qqXXjK3sxMQlaNGnGAC37xcg39zN6RaFjaH4PBQfh3jqnDcfPlCZ/fvEDyKG91fYsPr0vdU3rEqzYdVF9F0P9kK8CGc+XCS376OXzpopnf+aaYpgLzYaa+UahpZgrSUsHcA/9A3M2PNg6/PBn5NMwcEHcHpuo5rZTDbXuh/aiYiIzLmkg1y/++chfUWzp9FwNpqEyUFM8GrLBnJQ611mWjpk8XG7PnoJrZkHMMGOll4z+Up1EbaYXji/519B5vpmT6Pxkip24kFM9YXGVlZdpEL4FF4yAbTuxjJ+zy9D5tpmT6PxlsiaISnSylXcftfPQ+62Zk+j8ayFiYehug2bnBTMzga2g9tqmynuOXDu9XSm2xzfDGb9qtR84Lv1to7zm2dSbu31DPg9H4bcrc2eRuNZCxMPQfWpU9ZMS0nK0OizZZaBMKjgTj9Hde9j+FGxrse2wTTloW+S6X4PSeYmVeWKiEjLu6SDXJPuXfwduRdbeAAmnsCEC+8jJbNMgkn3aM20kqSFy+QAk+lfEpskXQwbHYGJbZjgmWZP5ZwcW2Z26+qWZTJ9WjNy3ky6uwXaQjVYPIadfBZTeXz+ouEDlQsKbhdiz4Fg/tgPbqtVc971plq13nkHu60oteKSXDPSWqy1BJVJ3GgMk0zhzIbtw+M9rOrLYdK9pFLHztCLqlNkpu6DyusNmU9q+hmc6fuoZq4hm83OX16pVHDtOG5pOyTTteIGpx2cDqr+FWTb+hoyHxERkbNZ5r/JnYVxIbO+2bNoHBtC8RmY+r5O16onrRm5ALXduJcpG9XaoUx+p3b6qtSF1oxckOzlzZ5B49gYKkOYqe9CPDMf3jYquD0fc4Hug9umlmyoa7KXNXsKjXPSmpHWkiQJJq5S3f86fnKAZOgQ1YePkDbH2iQMGIfyqn7a7+4mdAegZyNevgc/OoAd+W5D52ePfBOv+8MkUQ9JcQhTehCnOoQpP0tiQ2y5Vgls/BR4Pm76aqKJ1Zjs24lzN+BnujBOaxcYiIjI8nDpBrmA8VY0ewoNYLHRDKb0PBQfbvZklh2tGbkgfuvvXL4gcRHKL2NnHlIgV2/Les1sx848ojVTT/4y3SApKUN5iD077+WBJ95oanh7JieHuksm0PWW6XPM7JoxMw9jFeK2GItNQqozB/F2v0L573fiOOP4JsI/6QQUF/AP7iH+670kbMd9Sz/his14Kw8THnkD08BKg9Leg2Q37CUqPQYz/5PAeY44NQ3p2R5eXSffYwckLtmxH2BKdxDn34cp3IqT6sA0cqIiInLJu6SD3GUnCaC6C1N6BYIhvVmWc9OakQthY6gOQ/kVqAyBbc0NqqSFzK+Zl7Rm5PxU32DP0OM88Miz7Nk/3uzZnJcHt03NB7rO3ufY+p6tzZ7SpaX6Bqb8ErYyhE1adFOzS5S1FhvOEL/2Mv6+F0m2HaDNPffeC8YkuCTw+D6wh0i2hMRhguN5OE5j+panw2HMkc8R5l8lyuwEcx6bMDgx5bYdOOEbZMZeJa58BLf7brzsAOj8NhERaZBLOsi1UevvLHw+TFzEhhOYcBcm2IuNJ5s9pWVLa0YuxPJZLyVsOIMJhyDaD+Hy+Lpa0fJaM9Oza+aA1kyjxOPYVt7x8TyZpALhNHt2P8vgYy8xvPdIs6e0IA9um8J0PAe5QQC2bt3a1PmcVnwU28Ib+J2vuTVjwtex4X5sONLsKcnpRCXioWexP9iGGZvEWcDzlUNE8O0fkhR8uDGEBoW5YeQQuvcReRde0Z34ZSr2GdxwFGdiiiq/SDrbVvc5ioiIwCUQ5PqFG854nRn/+iLOpHFMEtYqK21xGbydaz6tGbkQfuFGiKdPe91yWS8QYeIAEp2uWg9+/trZncpPpTUjJ/OyV2DPsEmfmbqX5fGrXMQXv76bPfuXRzXl4ODg/P83I8z1cldhz3Bqt5n6LstlzRAHWD3HtCxrY6K9Q9h7n8SZnIaL+I0zmnoDZ8gnAbgxxPgOxiT1miph5EBsiTKVBR8jSQUkvIY/9mVc00fo/Qt8Xz1zRUSk/pbDb3Jn5XidZ75ymXx6ryCuvrRm5EI4bqG2eeLpLJP1IvXleO2QpE9/pdaMnMR4ecyZXpfCscWdTAMMPjU53292uRkcHGRwcJCtW7cuaqBr3MKyXjOyNMxMHSU/8QzJZJ0e34EDT/vEPtirI7xUfcLcuRC3Xsqdr5Af/xxuej103V6344qIiMxZ9kGuiIiIiLSW4QMVBrdNtuRGZvU2ODjI8PAwW7duZcOGDc2ejkjDJVFIdnQ74Tf34dazVWzkYB5JY9Mx4UZIZS7ucHFs6hriAlgnYabwPNnxbxOnryaba6/r8UVERJxmT0BERERELh2DT03yV/945JIIcecMDw/zxS9+8YS2CyLLVVzaw9QXXsY1597YbEHuy8GwR1g1WLuwt7NxbEga1S7aizDT3yVdfhJrdR6ciIjUl4JcEREREVkUy7mVwvmYa7cgslwlSYIbHaTgNHiTyx+ksK95xGFCklzYSaYNDXFnVbr3E5dfIwoX3ndXRETkdNRaQUREREQa6lJqpXAuarUgy1lcnaL82H5ypsFJKcADaZKqgesC8Dwc59xjLkaIC2CdEFMcwokPAxsaP6CIiFwyVJErIiIiIg0zfKByybVSOJe5VgvDw8PNnopIXRlbxDxzcPEGfMojed4niaJzVuaGkbMoIS6ANQGhtw0TLeL3QkRELgkKckVERESkIeZCXDk99c2V5cZJpvBNdfEGDBx41ifZniKJojP2zA0jp+4bm52VscT+FIQzizemiIhcEtRaQURERETq7lLvh3u+5oLcrVu3NnUeIhfLJgnYGFjkDb4CBx5PkaQtdlOEnz7x6jg2ixviniBp0rgiIrJcqSJXREREROpKIe6F0SZoslxEiQHM4g9sgQfS2D0uQeXYW9zF6ol7Zk34XoiIyLKmIFdERERE6kYh7sLMbYImslQZx2G83EZo0+e+caN8LwN7XJLEa26Iaw1umAOTatIERERkuVKQKyIiIiJ1MXygohD3ImgDNFnqutoL2OtXNncS308Th3FTK3Gd2CVdXgd+b/MmISIiy5KCXBERERG5aNrYrD4U5spS5qY7KLyth8Q2dysWu81v7vhuijh3NbHX5FBbRESWHQW5IiIiInLRBrdNNnsKy4b65cpS5bousbeexDb3bWb0cBb7ZBNbPFgPp3ADTqqreXMQEZFlSUGuiIiIiFyUwacm2XMgaPY0lo3h4WGFubJkJZm1pD50eVPnYEsOjCZNGz8TfhjbdgeOo7fbIiJSX3plEREREZEF0+ZmjTE4OKgwV5akVCpD0HUr02YAkgSSaOF/bERuzY8vbCIX2N4hd2QAaw1Jkiz4j7WG/P7L8Qq34aYHFjZvERGRs2hu8yIRERERWbKatbnZxivuZMOVb+aBez6z6GMvpsHBQTZs2MCGDRuaPRWRs7LWEscx1UqFaGQKk6TJvTVD8HfbCQ+9erEHx1TBeAnGPXcdko0crHUJR1L4xTImf+bbVlyouAYLxB17mRmL2HuktOCpbhjI0dW1BcddiRkboi3Xj+fncVwXY8yCjysiIjJHQa6IiIiILEgz++Jufe8n2freTzJ4z18s60B3cHCQj33sY82ehsgZRVFEqVSi+sZRioeO4j64CxsneOEMmZEx4heK2OLFtTkwXg63LcHNhRgvwckCxp72tuHRVO0+R4DnU/CW07d9mfANu9oS9qZdQmMxw+XZaxa+UdqR8TacFXvxjvwpPXE/l7XfSXtqMx2FtRi/E89r7iZsIiKy9CnIFREREZEL1ip9cbe+95MAyzbMneuXu3Xr1mZPReQUYVChevAwk8/sJ37tCM54mbl4Nfb7CDe9Fz/5NvFzr2HLZz3UWdnIJRp3icZ9nFSM11vF64gXdKzAtRxMOwxnYTRVC1aNvfhqWZMbwOm+FmtcQjfkkLuPozP/wEp3gN7itWzo2orNbcL3FeaKiMjCqUeuiIiIiFywVuqLu/W9n+SXPv2VZk+jYdQrV1pRpVJhZPd+Zu55EbvtDZzxE5Nai0PgryO88r14t2zAeKevoL1QSeASjqQJDmWIp9wLum/sWJ7qcNje7jCaurD7no3JDWC6NmO91AmXh17IG2Yv2yv3sf3gV2HmWYJqpW7jiojIpUdBroiIiIhckMGnmtdS4Uw2XLGF//DfdvH29/67Zk+lIb74xS82ewoi86rVKocOHiT65gsE+2bOeLtamLuW4MoPkHrLqrqNX6vQ9YkmU6dc5/fUAmXbB9x0YkuHwR44mHap1LFfrcl243RfC372jLcJ/JBdZjtP7fsapvQyYRjWbXwREbm0KMgVERERkfM2+NRkS1Xjnmzrez+5LMPc4eFhhoeHmz0NEcIwxIkO43zhh5jJ6jlvb3GouiupXvkrZN7RUde5JCWHaPzEylrjGYyJ8fsDTC6av/zeFR4Tde5Ra1N5nBVbTqnEPZ3IC9mdfY1t+7+OqQwTxwtrDSEiIpc2BbkiIiIismQND/2QL/7JR0+4bK7VwsYr7mzSrBpDLRak2ay1tZYKf/EcRBfWKqFCB5XLfpPU2/rr1mbBJg7haPrUFgueBY6FuDvbLRWnflW4tTEyuKvehr2A6t7ExLzh7+D5Q/8I0Xh95yMiIstOkiRUg4Aoinjj9dd47oknFeSKiIiIyPlp1Wrc3UOP8r//2mUM3vMX85dtuGILH/v0l5ZVda6qcqXZwjBk8vUDRNWFbXRYoYPq5R/F27IBc+ZOBBfERi5x2cUet2GZvyKE3lpYXPEsB1MQmfqExwAm04mz5u0Lum/ixUy7w8xM7ySOmr9hpIiItK5qtcqL219h75FJ1l2+iZvefLuCXBERERFZHh645zMnhLmw/FotqCpXmsVaSxJXcZ9+A1OOzn2HMwjcAYIrfgr3xsvqFubGUx5J6bjK2BsCzO21Oe7LwlQdWyqYbB9O760Lvn9CwuFwhAOl5yCextr6BcwiIrK8eJ5Lob39hMsU5IqIiIjIeWnFatyTPXDPZ5Z1qwVV5UqzxHHM1NQEQXBxVaS1DdDWEV75HtybNmBSF9/ywEYu8YyHjWubm5nbIhwPZnzLSAqCOnVVMLleTPe159UT92xiLyTiMHEwoSBXRETOyvM80uljH0gqyBURERGRcxp8arLZUzhvy73VgqpypRmSJCF8aRQ7UrzoY1kcgtQGwit/Gv9NK+swO2pBbnsf/nXvw9/8fsz6H6OU7aPkenU5vsl2Y7quA//iy4gTEvaX9jJR2oNBm56JiMiZuZ6Lnzr2AWJ9XtVEREREZFlbCtW4J3vgns8AtYrcOXP/P3fdUqSKXGkG10lIzxSJq0ldjlerzF0DV/0iWf9zVAYvbvMv7/I83uYfxfnULxP1DOBVduB1fZVk7F4oHzztff7+4HW8NF0Lkv/gyu+f+eDpNpy+W7BO/Vo0lKMqQVwCVJErIiLnZq1l16uvKMgVERERkbNbStW4J3vgns8wvPMJtv7Ep9hwxRagFuZufe8n+eKffJTdQ482eYYLMzw8zIYNG5o9DbmEODbA2IX3xj0di0PVWQFX/Fuy9o+pPLiwMNc4ltTq2/F/9Zdw192I7/okuV7CyjjR6BPEHMJaQ5BY/tcd76XqTB9371qriE+8ehcAnk3x4f4dvKVrH64TYdwUzsofqXvcWkmXOVCq0Bda0uk6H1xERJYFa8E4Dp7nAuCkUmqtICIiIiLL2+6hR/nCn3zolI3QlnKrBbVXkOWkavMUN36C4i0rmUh3Erjn14M2dhwm0p1MXT7AaO+VlFiNcWq1StZ4hHEn0/4N/NmB9/Cbr7yH3xh620kh7qkiE/ClkY385ivvZqjYxfSKn7nor09ERGQhYmuohC4ulmi2D7wqckVERETkrJZiW4XTWU6tFtReQRabNQ6YOu0adhqvjHg8O/1jmHWWK2depX/6AACutawp7p2/3ZFsHyW31qe2lM7zdPftAFxdWceNQUQuinAch2oYs2e8iy++0MfO6iiRc2G9aKtOiT964yautmv4yf6dXNlb3162buKRTbk4Kq0SEZEzyKZ91vXl2TW8j96+XiwKckVERETkLJZyW4XTeeCez/DAPZ/hlz79lVNaLQze8xdLKtBVewVZTIn1SGz9esQe79W9I2zfdYi5mHhnYTM7C5sBcAm5/uh2rLUYY9jVfhlTfscpx3g5iDHPHWRgJCJ1RS9HKkX+9uheXnOLRGbhIewre59hbCTDz1/jc11//VpL+KFPV5uP5zYuHBcRkaXPWovrQsozlPn/2bvv8CjOc+/j35nZvquKCpJQBWGJanoHAcYYcO+Jy8Enduy4JHHqyYnjHOckeR07juOWOMlJXONujA0mjk2RMWDTey8SQggJFVS378z7h5BApgtJq3J/rku+0OyUx9Jqd+a399wP0lpBCCGEEEL0PKdrtZA354Eu1WpB2iuIjmSg4e0TSzCqbRu6bis4wvYDpWd8PISZTb2GsTluOJt6DTslxPXag9RFBiirbGB5fgEffbiGzcsP8Oe9G1i1p4BQnYLJ0C5ihAZlPi/v7vSzvazt6qDi7bFEWBMx5JJcCCHEWQT9fkyKgt1uQ0GCXCGEEEIIcRbdpa3C6Sz7+KkuH+YK0VFUVSW2XzS2XrY22+e2giPsLa5s9URiBzNqKIippF7zoocUKo65OVJex5rVm1m/ey++Oj9KyARcbNWrQbHXx2vbgxyovPhLaBWVaEsidmsiinIxIbMQQojuzOv1UlR6lMhecdjMjR8mSpArhBBCCCF6rGUfP8Uv78+icO+a5mV5cx7gsT8d6PSBbmFhofTKFR1G0zRUSyQo5zcR2bnsKipjz6EKQrrequ13ZpVRpddRp3iptjposDjAUAh5TVRX+Qh4g4CCNZCMWXe1wYgNyv0enl9nUF5/ccGw2W/BHOqD2RqD0o59h4UQQnRtVquVAf37kRDtQlUU0jOzJMgVQgghhBCn1936455Nd2i1IER7M5nMGFfkYES2vr2CbhjsL6lgW0EZunFhtbi6ZlCcVsem9MNUe7z4gjq9/BHE1ccT0k5Utu4pW9j8b8UwYw3FAm1R+WpQYzTwy+VQ521dAKui0seeQWbMaHTV0QZjEkII0V0pitL4QerxD/1UVZUgVwghhBBCCOiarRakT67oSGazmZiYGOypp042dj4MdA6WVbFxb0mrtq+IdVOp1uENBABQUPGaYql2nBiPP3gMxQhhqatuXmbzZ2DV264lhE9t4KdLoaj6wsNcu99FLwagOfqgadJWQQghxIWRIFcIIYQQQpxW4WFvuIfQ4ZpaLZwc6HaVVgtCdASr1Ur0dYMI9Y+74G33l1SxfvfhVh3Xaw5QjRuPP4hhKGiqSm9vLyyhTELq8ctaA0q9q1D9AWJ27m/eVjE07P40TEbbtIWAxjD3+fUGO8vP/5La4XMy2DqezIQZKFpbtHsQQgjR00iQK4QQQgghTutgiT/cQwibrlKdKz1yRUdr7JUbi+OKwYQGJZ73djuLytjUykpcgDqzjyqzB8Mw0FSVjLoYLKH05hBXUQEFvL7TfwBlD/TB5ctu0zC3MuDhjR0htped+7La6XEwzDaRtPjZqNZEVFUuxYUQQlw4efcQQgghhBDiNM4U5t718FthGpEQnYPJZKJXXC+ip+fiGp90zvW3F5ay62B5q4/nNfspjahvDnEjg33xadnU2CNOrKTooJzouWtgAKEW+7EHkojyDMHlT231WFoyKPH4eWdnkD0VZ26T4PS4GBE1i+T4azA5U6WlghBCiFaTIFcIIYQQQpyisKTntVU4ndO1WsjIHt2pWi1IVa4IB5PJRFRcPLaJQwncPBxvUsRp19tZVMae4gpCut7qYwUU8JgCpLqjSXAPQSGFBuu5JgozMJSvT6amYAnF4PJnEe3PwmSYWz2mE0IUe3383+YQh2taXl5bfVZGMJYJCQ+T0OsqLK5kqcQVQghxUUzhHoAQQgghhOh8Ckt84R5Cp7Ls46eAxorcJk3/bnpMiJ5G1TTsUVGkDnDgzepNeUUF5lfXQcAAdPaXVLG98GjjysqFTwwGoKsqFa6+xHqzqbeZoHW7aUExLNh9fbH50wGdGvtWPNqxi9pnZcDDu6WTeMC1hQhUUgPZDE26mYA5E7vNhsncFqGxEEKInk6CXCGEEEIIIc7Dso+fonDPV8x9+LXmZXlzHiCj/yjyFz5HU17V0QoLC8nIyAjPwUWPpygKFosFk8mE1WpF/2kSbreb/duKObqqlpT+Qy5q/25LBXtWVZ1zPSOkgg6qqqKHQEFFMc5+udv0eLR7BENHu1AVhUAghO79eiXv+TFZVWo3X0feuGkkxrhQzRZcZjNKK0NsIYQQ4uvkvg4hhBBCCCHOU8HeladttTD34deYctm1YRyZEOGlqipWqxWr1UptnYfKknrUU1obXDiLO+YCBgFOh7N5PBdEcaBZVGxOM45ellZ9WWwmFiTXsbZURTXbsVgsEuIKIYRoUxLkCiGEEEIIcYFONxHa1OnXkpeXF54BCdFJ1Nc3UHTwCPUHGycaUxWj1V8XSlHBpWZimMx4Unpf2MZG2wWuS2v3UVjpxTAuPsgWQgghTiZBrhBCCCGEEK2w7OOnePnpO1osy8vLY+7cudLqQPRYVceqqNkbvskSI0zZWJxOqpMSL2g7VQu22RgOWfay+bCbYLDt9imEEEKABLlC9Cz2AEakDyOiCiOiAqKOQmR54/eRboxImdhGCCGEuBCnbbWQkcHcuXM7rDq3sLCwQ44jxLn4/X6qKqvwVYSnEtXQAQV6u0YTzktdnxJgtbGVY63stSuEEEKciUx2JkQ3Z5jAiASVSlC8KM23qYWa11HQAHfjN7EmDKMXht+G2hA6ZX9CCCF6hsLD4auoExdGqn9FZ+H3B6jzhPe1QzWFsLucQEMYRxHiWKiaihofCRGWMI5DCCFEdyNBrhDdmRqCyDoU6kDVz7LiSYGtGkKhBMVmBz0GPOZ2H6YQQojOJyPFxsESf7iH0ellZk8g78qHyMge3byssLCQ/Px8qZQVPU5VVSXlX4axnYACphgV82Uz6K2spmx/KYYenqpYHQP9bKffQgghRCtIkCtEN6VoAfRoD4pS08odeMABGFHgM4MhnViEEEKIk02d80Py5jzQYll+fj75+fnhGZAQPZiigjnJinncOFBMDFGGsT11M6UlpYQCHX+XmWbo6EE3oZADTdM6/PhCCCG6JwlyheiOzEF0VxWKcpG3tikecAaAOPBa22RoQgghRHdw18NvtajCBVi2ZD6ff7EpTCMSoudSNDCnuDANGwyWxktcpxFBjm0wRm8oK+34MNfQAyhBD4YhfXKFEEK0HQlyhehuLEEMZy2KFmib/SlBcNaAIm0WhBBCiNO2Uti7hvyFz1F4VANrRvgGJ0QPpGhg7hOBaXAuitPZ4rFIPYpcxwCUJCg9fIRQqON6HeiaFazRUo0rhBCiTUmQK0Q3YlgUcPhQVA8t+t5eLMWDYVMx1CTUhjYKiIUQQnRqGclWPg/3IDqZ07ZS+PgFln38FABK1ORwDEuITiMiIoLoS1SObe+Y6tfGdgpOtCEDUCIiTrtOpB7LQPtgQuk6pQeOdMi4ToxPRVGUDj2mEEKI7k2CXCG6EzUImrexiraNKaobxYkK/nkAACAASURBVNQAyMy7Qgghep7TtVJ4+ek7KNi7MkwjOiEjIyPcQxACAJvNRmRvK8e2uzvkeOYEE9qoYah221nXc+pRDNNGsiFnDWW7yjpkbDaTRpRLWpMJIYRoWzJ7kRDdiKI0oCiedtq5gaIca599CyGE6HQyks8ejPQUmdkTeOxPB05ppdBZQlyQIFd0Hna7nejoqA45liXajzlv8jlD3CY2HIwLTiDhkoR2HhmYdCtDPWOIt0t/XCGEEG1LKnKF6C7MQQxHAKUtWyp8jWHSMVw+lHqpLhBCCNH9nauVghDiVAnx8fQaVU7l2ra/QwyOt1OI1zBPvQLUC6tLUhQzw43RbM5cz9GisnbrmevCyZg+dmw2+UBMCCFE25IgV4hupb37kYWAjpskQgghRHilJ1s4WOIP9zDCojO3UjiZVOOKzsbpdBIbF0dtRBmBuratSFU0MCc50EYNv+AQt4ndcDLQMhQleQtlpWWEAm1//jxZn0RG4ul79gohhBAXQ4JcIbqNIBhBaM/5FAwdDC9gb8eDCCGEEOGTmT2BuQ+/1mJZ4d415C98rtOFuCBBruh8zGYzfTOTaCivpWRd2/XKVTQwp0SgDR1w3u0UziRCjyLXMRB6w9EjpQSDbVeoMMycycwMG7F26WIohBCi7cm7ixDdiNIOk5y1PICBokqvLyGE6CnyRnVMr8vOYuqcH54S4uZ//AIvPX1rpwxxheisHE4HKVmJRPVpm9YCigrmZBemITmoEW1T6Rqpx5LrGEhcSiJqGxVCJHj6cX3CGPomulCU1u3UMAwMQ863hRBCnJ5U5ArRnSgqF9JeoeiInSPlZkYPrkNR5IRRCCFEz5SZPYG8Kx/qEq0Uvi4vLy/cQxDiFJqmkZSSgDLOYNfKI9SW+Fq1H1UxQAFzbyvmYYPA5WrTcUbqsQyxDmNjvxAX26IswdOPG5JGMDg5ApOp9fVSrQ2AhRBC9AwS5ArRjRi60ZjlniePV+PTVXHYrDpD+jecO8w1FAxDadfuDUIIITqPjGRbt++Te6ZWCi89fWuYRiRE92C1WklK7Y0yWaWo6DCl6/wY/gsvHIgZacJUOQZslnYYJTiNCMYa47nUpfOm9/NW7WOYOYtrkkcwNDkKl0XOlIUQQrQfCXKF6FY0LnQystFjMimuTcd5aDV9Uz3nCHM1MKQjixBCiO5h6pwfkjfngRbL8j9+gWUfPxWmEV0YqcYVnZ3FYiG5T29ckU4ioovZ91k1htHYPgCDU05bDaWxF66CQvwQM8mZcZidEXy+LoC/HSYla2K3OJmc1ou4oggWVh/kkG0nQUI0DvL0NMOEQ3cxOTSZmel2+vd2YTJJiCuEEKJ9SZArRLdhAsUKBC54yzlXXsKH83UU1pJ1tjBXUUFpm15nXxfCDIDWivGfD8PQMQwdVdVo3xnhhBCie8kbFcUrH5aHexht6nStFDrzhGZCdGUmk4nY2BicTgcx0WUcq/Pgc9dTW+zHe7TlutYolV6X2IiMdBEfF0dkZCR1DR5GJtWwqqj9gtwoK/RxGWRd2pthVRGsKOzHl8YWjumVGEbL80ZFMTBrGkMbJjEh3UpWYgSxdlVaIgghhOgQEuQK0U0ougJBleN56AW75tpcFnwEbu86BmW7Tx/m6jpKsH0qcn16PCFs2JVSTErbzXDcJBT0EQx6MJkdmEztE0YLIUR3lJHcvV4zT1eF21VbKUhFruhKrFYraWlpJAUCeDwe3KnuxnrX4xN7KYqC2WzG6XRiNpvRNK1xO7OJ5CgLihJol0nAFEVhdj8TmqahaRpp8ZHcHOPgMm8eR4+5CYWMU9aPcllIilCxWNqn3YMQQghxJhLkCtFNGCENfDYwe4HW9TK86upcPl9mYt32NYwcWH9KmKvoLgxvK5Pi8+QxErEplZipbfN9a5qFUNALhoHJbG/z/QshRHfVXfrkdvVWCieTEFd0VWazGbPZTGRk5HmubyIp0kSCS6Wsru2rcjNiTGTFN4bHTUwmEwkuSHCd3xiFEEKIjiLNLoXoRgwcGDguah8TJmVhOMeyZmvE124l0wgRfXEDPC8Kfj2WAG1/4qxqFswWJ8Ggh0DA0+b7F12boesY+oX1mBaip8gbFRXuIVyUzOwJ3PXwWy1C3MK9a3j56Tu6ZIgrRE+iqioJkVYGJ5rbvH2BqqqMS7PgsFmkNYIQQoguQSpyhehGFD8YXsvxWX1bVzllMmlcOjyD9Wt1Nuxay/CcOhTFwNAj0eqMs0z50HZ0VPx6LKg6ZurbdN+qasZqjcLnqwHALJW54rjm2zV1HUWVzzmFOFlXbq/QnVopnEwqckVP4rBZGNIngkP1KnvKPG3SYkFVVUanO+mbYMdkbt87zoQQQoi20u2vVA3L8HAPQZwnwzygcZraMKuMmhbuIbSebqDU2zF8sUDrf5YWi8bYcVlUeIaxp9COocegVEVitN8cE6fQUfHqCQSNMwetVRETMJQLfxlTVA2rLYpQ0EPwIitzy21dOwjoSWpMEwiosWddR9U0DMNo18pcwzKy3fYt2pZh6ouhXNxdDhfNPJjOMkFjenLX6wV5plYK7RLiKi5QOubDwbOGuJbBHTIGcfEMUx9Qzv6+JBqpqkpSlIVZ2VbSYy++elZVYXiKlbxMK9FOq1TjCiGE6DK6fZCrOpLDPQRxnhRbPJ3hKVnn7bpVR02UOiuGz8HFhLmKqnH5FQPYVjyFvQdtlNluR++gC9STeYwkgob1tI/5/CYwWvecURQNizWCUMhLMOiFVtYam7UwhzzivJlMVpTzCP5VVW3XMFdx9GmX/Yq2p1hjUNTwVmkZtt6dJcftUu0VwtJKQbWA0jHPl7MFuYYtkU7zpBFnpZgiUbSuf97ZUUwmE8kxdq4d4CA5xoLNdOHPc0VRsFlVBifZmd7PQVykDVXuwhFCCNGFdPt3Ld0+INxDEOdJt2VDK6or21q9P4EQXf/2KqUuFsMXD4YFjPM90W0MMz2eALt2HmP1ahOuuOt4+DexgEqVeRbBMFSOeIyUUypzg0o0NYEkjIu4WFVVM5rJTjDgJhj0tWofJnvaGYNm0XmE0FDMvVGU86goVBSU9gxz7YPafp+iXRjWTAw1zO1X7Nl0lk5YGcm2LlGVO3XOD5n78GtkZI9uXtZUhVuwd2W7HdcwRYDa/u8H52ypYOsvOW4XYViSMDSZTOtCmM1mkmPs3Dwkiqtz7MS7NBRFOWdFbdM6yVEa1+c6mJkTQVykDU0L/92AQgghxIXoHFcG7ck1DKyp4DsU7pGIs7Gko7hGdIrWCoeMaSSzmlh2hnsoF02pt2A4Y8HqRsHL2fvm6qxbW8yo4fEUFDh5/rmNxMdWYzHvYPyI3gCEVBcNpkFEBZZ3yPhP5jGSsCmlmHEDUK3mckifjn4RVccAqqqhKBrBQON+TaYLq4xxxo2ivupSIoKrL2ocon0F1TTM0eNQTc7zWl9RFFDVxiC3jXvmGhGXotiywHugzfYp2oG5d+M5RLiDXEcOij0Hw701vOM4Lm9UFK98WB7uYZzRXQ+/1SLAhcYQt90nNFMtYEkK//MFwJkLtlzw7Aj3SMTZmKPBORxMMeEeSZdjNptJiVaJd0RgtyrsKNep9gTx+XXKPAaB4Il1nWaIsSk4bBrRNo1LE1XS412YzSYJcYUQQnRJ3T7I1ayJGL1uxiiRGYk7tZgZaI5+dIYSkmojiX2mKYxU1qEGzy/06bQMBcVtwwjaADdYvRgmHQwf0LLh7bx5xSQ4vuKFP1/CNdc/QkaGh76pOhPHpIVl6Kfj1xNArUIzlVFipFGlp3CxzxlVNWO2OAj4GxrDXMPAdAEToGmahrX3N3AfqcER2nVRYxHtI6DEEoqahcWZdUE98NorzNXMkRi978Yo/O822Z9oH0rEWFTXpWH/gFEzuTCSHoD994V1HE2aqnIPlrRuQs32kpk9gbwrH2oR4hbuXUP+wufatQq3iWLuhWJNa/c7i/Ly8s5ZkauZXBjJ38XoJM8ZcQa2AWjREyHM7Vu6Kk3TsNs1BqaYyE4IUtkQwOMLUlCn4W4OchVirTrJTh2XzUys04zJpGEydftLYCGEEN1Y938XUzSUqEmE3DtRqxeFezTiNAzXBJSo6Y3VLJ2AjomS0DQOqbtIJz/cw7l4uoHiBbCjBCygGkDjGW5NqUJxZSZvvBGk+JCdcdfN5rfPrWHOnGouyRnMhjWfMSgnmegoEzH+fwOgGq1rQdAm/yuoBA07FfpkDhpzCNI2lU+NYa4Lv7+OUMh7QUEugCVyIJ7qiVAvQW5npNr7YYmfiWZ2XfC2iqJgQOPs2G1Zmescgd7rNtTKf7bN/kTbsg/AiL0aRescH+YpjlyCiQ+ilT0f7qEAna8qNyN7NHMffq3Fsg6pwm2iOjHsQ1DUztPrtPE5cz9a2Z/CPRRxGoYlCeJuA1N0uIfS5ZnNJkwmDbvNgq4bpCWq6Ce1FDMpOibVQFEU6YUrhBCiW+gZ72amaJTe96Mnfh/MvcI9GtFEsaBH3YSR8hNUa1K4R9NCgxHHmtCPWGv6ER41PtzDaTNGSIOACQI2CNjwe0y8+dYS9u6pZFZePxQ1k2uunMQLL75LXt5EbK54CorKALDoZVj0MkxGddjGH9LMHHRey4rQL6jVL27CKL+vtnGfQR8+bzUBfz0YrZvwTNXMRKXegD/lcXzm/hc1LtGWFOqj7sWc/ggWa+svltXjt162Zc9cRbWhJtxOqPcjYJHJzzoPBd05E73Pr1FtWeEeTAumuGsI9Xmisf9pmHX2XrntOqHZ12lJ6NEzUSwJ7X6o86nGPZkp7jpCfX7XKZ4z4gTDNgY97Rk0p8zj0VaaQlqTScNuVnBaaP6ymlU0TZMQVwghRLfR/StyAVDQzBGQcB2GPQW9/BMU9xc0TuzUPrOSizNRAQVsYyFmPKZes8I9oDNQ8ONkT2AOIVWhT+Q+etctRDHg6y0JurJxQ1T+/UeATVSbEwkQz7SxsWzeepBgwIcrIhZDr8YwoMx2O3HeN9pvMIqGYZx6km2gYKDhjs3lSE0SuxpuusgDGXg9xwDw++tQVTOGoWOxRqKqrX1JVFBNDmyx43ArEVQc20KM5x0Uox7Qjz9vREcwFBUVhUrrdWi2dGJT57TJflVNQw+F2rQyVzU5UONnYNiT0CsWoTR8frztibwvdazG9yXDeilK9BhM8TeGe0CnpagWzDFjwJaAXr4Ao+FzlFAN4Xq+zL02mcf+dDAsx250apuUxlYKz1Owd9VpH29TWhzYUlCcQy6yU/v5u5AQF5qeM2PBFo9e/jFGwzKUUB3yGtPRGt8vDMsAlMjRaL1v77DnjBBCCCG6nx4S5J6gRIxGixiNu6EOW2gfBEroTsFc56aBOQGf1g+7s+tM7LBfn83+GkC/nwTtALHKhnAPqX0c7yemmx0MnTSM7/z3YwwamIk9tT+Hj7dCLFbuab/jn+Gau8YYRJmejX7s4mcCNwwdn7exEldRtOYKXEVRMIwQbfGS6IgZhCNmELp+KzXlm1H1StDD146iR1FM6FoCjqhs4m0X3kbhjJqeJ039ctuY4hqE5hqEx/MA1uAB8Bch70sdRQNzDAEtG4sj7oJ6KIeNPRM17bv4vPdgDhSCv4DmF/AONuWKbSxfuS0sxzYcLatM8xe/T/5n7wOgRIxpv+MqNgw1BsXs6tDny4WGuC3Y+3aa50zPo6Co0QTM/dDsCc13eAghhBBCtFaPC3KbOJwRwLDjX6IjdYL5nFtHNXHU6M9Ro/vfougaDNcMbvz3YQh/8U4bXSsHA24ANM2CyezA561GVc2omoWAvwHVZkZpo4lqVFUlJlFeX7qqpsBWUVX0pn8rSmNw007hjd3uBAYf/xId6eI/Jup4VpsdbLlAbtjGMO3qqymqepnCwsIOP7ZiPdGS5OWXj4/B3v7vzwodPy1rRkbGxQW5x3WG50xP1XkbkQghhBCiq5FmQUKIHkHVTJhMdkwmO2aLC1DQNAu6HkBBbbMAV3R9hq439sM9/tVEUdXGr65QtSlEB2mLgLG1CgsLT4S43Vg4f8ZCXDTDaPUcBEIIIYQ4lSQXQogeQVXNmMx2TObGmnBFUdA0K7oeRNcDNPbMFj1dU4jL8epbwzCa++G2R1sFIbq6tqoWvVA9KcTNyMgI9zCEaL12vJNFCCGE6Il6bGsFIYRQVRMWa2Tz91KVK5oqcNWmfriG0RjoHn9MLkWFOFVTkJufnx/WcXQ3eXl5Uo0rhBBCCCFakNRCCNFzKQqqamr+Ej2bqmnNX0BzGwVd12WCGiHOQSpH21a4Kp2FEEIIIUTnJkGuEEIIcQ56KCS3hgpxDhI8th35WQohhBBCiNORIFcIIYQ4A0VVT1TqqvKWKcTZZGRkMHfu3HAPo8ubO3euVDcLIYQQQojTkqtSIYQQQgjRJiTMvTjSokIIIYQQQpyNBLlCCCGEEKLNSH/X1pHJzYQQQgghxMl0A+qCCnUBaAiCOwQyu48QQgghhGhTTYFkfn5+WMfRVUiIK4QQQgghvk43wBMyUAFFBQVVglwhhBBCCNH2JMw9P9ITVwghhBBCnC9prSCEEEIIIdpFXl6e9Mw9CwlxhRBCCCHEhZAgVwghhBBCtJumCdAksDxBfiZCCCGEEKI1pLWCEF3Y/mPgDrbvMTIiFSKsRvseRAghRLfWFFzm5+f3+FYL0g9XCCGEEEK0lgS5QnRhC/bDkbr2PcZdQyDH2r7HEEII0TP09L65EuIKIYQQQoiLIUGuEEIIIYToMHl5eWRkZJCfn09hYWG4h9MhMjIymv+/hRCdk67rqKp0HhRCCNG5yTuVEEIIIYToUE2tFnpCdWrThG8S4grRuRmGga7r4R6GEEIIcVZSkSuEEEIIIcKiqdVAd+yd2xRWCyG6jqYwVypzhRBCdFYS5AohhBA9mGEYhEIhQiEdwzCwWi0oinLe2/p8PgBMJjMmk9b8WCgUQlGUM14M67pOIBBEVVVMJu2UYxqGQSAQIBTSsVjMaJp22v2I9hUKhVBVtfn3EwqF0HUdTdPO+Ls1DAPDMFAUBUVRjn8Pqnrm59XJlbkXGugGg42zfmraqc+jcOjpbRSa/nYb/7bb/lKj8bUjgGEYWCyWCw7cAoEAwWAITdMwm02d4jkjOpeTX8OEEEKIcDIMg1AgAJqGpqroekiCXCGEEKIn83g8rF27jm3bd+CudzP3rjuJj487r23dbg8v/f0VvD4vl19xOUMGDwTA6/WyfPkXOF0RDBk8CJfL2eKC2DAMiooOsXjJMlJTU5gwfhwOh4Nj1dUE/AEAGhrcrFr1FQUHDnDZ5dPJysxs3t7hsONyuaRiqh0ZhkFNTS1r160lLS2dfn2z0HWdXbt2s3XbdoYOGUxOTg7BYBCfz4vP58fd0IDb46G6+hj+gM6I4UNxOBwcOVJKSckR0tPTiI/rBYpCKKQDRotjTpw4EWgMiwE+//zz5jD4ZMFgkGAwiNVqxefzsXnTFhRVoV+/fsTGxhAIBPD7/Dicjg4NYnp6gAuNv7uCAwUsXpZPRlo606bl4Xa7qaioQD/+ez2TyKgoEhLim0O0Jk0fCDX9Lisrq5g3bz7uBg/fvO0WEhMTzrpfXdepra3FYrHicNhZ9eUalucvZ+jQIUy/LA+73U5lZRU2m+2U1yrRczVV5crzQQghRDiFAj6OFBYQEZdEbK8I/LXHJMgVoqtLiYAJfcAbgk1lUFQT7hGJnqiyspINGzfQO8FFTs5QzBZHux9T13V27NhCUVExE8cPITI6rd2P2ZUFAgGOHCnF4/a0WO7xeln62VLmzZ+Hbuikp6cxdOiQU7aPiIygd+/EFuFpMBhk7eqvKCopZsyY0c3LDx0q5m9/fZnKYxVcf/21XHnlbNJSU5u31XWdgwcP8u477zJp8iSGDRuGoijMn/8RmzZuAhrD4L1791JaWsLuvXuIjYlp3n9e3hRmzZqJw9H+z7OeKhQKsWHjZn73+BMkJCZy7913M3joENat28CLL/6F79x/H/37Z7Ntxw7+/ckn1FTXcPjQYUrLyig5cpjomHj++PSTZGf3Y/4HH7JgwQJGjRnNnXfcTmJiPJ/nf0FlVeVZxzBkyKWEQgF27twJNIbL9fUNFBYWUlNTy6CBAzBbzBQVFRHSddLS0giFQuzdu4+ig0Vk9c0iJSUFh8PermGMBLgnBAJB8pfm86cXnqNf3/7ExvWiqqKC1159lWPHjp1128tnzmLu3DvYunUr+/fvb17eOyGRSVMmsWvXbvbv30dV1THeeecd/P4QZotKQkI8ADabg0GDBpKentZcwe/z+di1aw+ffPJv+vbty+zZV1BefpT33n8HRVWYOGkcVVXH+Nvf/o7L5eTymTPIycnBZrW23w+pC/J6vaxfvwHd0BkxYgQOuz3cQ2p3/kCAo6VHie0VS0SE67y2CQSCVFRUYLfbiI6ObucRCiGE6Ak0s5XEjCys5sb41hYdJ0FuV+Pz+di7bz/btm2n5HAxgYCftD5pjBozmszMDLn1tAcaEA+/zoMKLzy56uKCXIcF7hgE0VYoqIbFhW01StEZeD0NfPSvT6mtruUbN1+L0xXV4vED+9bzr0+/ZOzokQwbPvq8qx0Nw+DQoSL+/OcXmDA2nYz01A4JckOhEEsWL2Lhos/on/UDCXLPoba2jnff/YBNG9e3qHYDqKioIBgKous6//j7/xEXf2qF2xWzZ3HzTTdgsVjOeazomBiuv+Ea3nrnTVasWMn48eNIS01tfjwYDLJr1x4qKyvZunULzz37LIOGDMbusBPbqzGw9fv9HC4pQVEUoiIjm5cDuFxOqcZtZ6qqkpgYz8iRo/jwww+YPy8OR2QkNTW1hEIhaqprOFR8mIIDhbz6yivExcfTN6svQ4YOYeq0KcTERBMZEXF8P4lYbDY+nP8BNTV1fPObt/LyS6+wdfuWs44hJSWdRx/9OTfddBNLly7lwIECXn/9dQoKC7BZbKSlp9IrNrbFNqGQTm1tHQWFBRwuKSE9PY2+ffuSnJyEtQ3DOQlvT9VUST152lRWfLUKVTXh9XhISUlmxowZ1DfUn3X7AQMHEAwEWLhgER/Mf795+bhRYxk2YjhLl+Sz+LNPCYZClJdXYBg68+fNR9VU3G43qmbhoYfuJyUlGU3TqKo6xif//pR/LVrEjh07uGz65eTlTW5xTMMwqK2pZd/evaxbv5a169YyZcoUpk6dxiX9+7VLa4iuqKGhgdffeINQMEh2v+xuH+Tqus62bdt58823GDFyJDffeD1ms/mc2+3ff4BXX32V1JQU/vPu/2zT1xwhhBA9k2HoeP3+5iAXpEdul+L1epn3/nzefvdtSktLqa2pIRQKERMdw7fvu5e0tFQURaGwsIgNmzYyZvQoUvv0CfewRScQa4dpGTAqCbZWKLy+xTjtelf1gwdHglWD5Ydg9ZGOHWdPYhgG1cfKWLduBQkJaQwcNAyT6dwXCedD13UOH1zB8pUHuPrqOURENlYr+XwePvtsCUXFh7n2qstOCXKLinbw1ltvEuE0M/TSkRKUdTOBgJ+CggLWrltz1lm5DxQWcKCw4JTlw0eN4Fh1NR9/vIg1q786vs8gu/buxuP18Oxzz/LPN15rXt/vD1BVUYmuV/DMH/+I3W4D4KGHvkfv3gns2Lmd2tpjbNywno0b1tPg9XLXnXdSVlZKbVUNGhqaogAKqmJCNRorKlNSUxkwcKBcILczVVXJzbmEBx74DvHx8WRlZvDGa6+zectm3O46PvpwPuVHj9I3Ixub1caM6Zdxy623Eh0dhcPpwGG3N/esnTVrJtGxMbz8j5cZOCCXpKTe3HjzjcyonQHA0dKjfDD/AzweN7ffdidxCb0AsNsdZGSkEwwGKTxYzIIFC6ivb+CS7Fwuu2wa1TXHmsNDOHELvdfjITUtHZ/Pw549u6mursZkGkOfPimtrsxtCmwlvD2zAwcKef311ykqOsjBgwfRNBMLF3zETTfdTEpaH3Zs3U4wEDztttG9Yhg5YgQ2q41bbr2ZS4cN5d+fLmbtmq+ITUzE5XJy0003MOPy6ZSVlfPMs3/E5w3ygx98l/j4BFauXMXiJcua97fnQBF/+/OLrFz1BYphcN2113D11dcQGRnR4rhut5sDBw8SGRHJ9dffxLL8fF5+6SWOHavm3m/f01ztK3qemmO17N65m5ycXM73VaO+vp6t27bhckSc8oGpEEII0RqqquL42nWPBLldyIaNm/jb//2N1LQMHnrwQTIzM1AUKDlSSmnJ0eOTSwRZsfwLPl28lOy+WRLkCgCsJpiYCldkKYQwMBRQvnZ+OTQR7hoCdhPocu7Z7gzDoPDgYd5852NmzZpF7oAhQNsFuUvzN/LGWx8xdmQiEZGz2mS/ovv4n//5FePHjznnen6/n7ffeZfXX3+98Xufnx07drJ06bJT1t28edMZ91NefrT539+87Q7Kj9WwbesOrr3uRm6/7RYiIyNxOl2Ulx8lf+kXFBbswwCCwQChUJDPly9BVRo/WJg4aRKXXz5D+hZ2AF3X6dUrlvvuu4cjR0p59ZXXKC4+BMCh4kMkHyigT1I6mqYRHxdPRkY6NlvLE81QKISBwbixo8m5pH9j0OtwcN111zSvs37DJv71ySK8Xg+zr5zNgNxLmh8zm82oqkpaeiput58bb7iBW269mbS0NMxmMw0NDcRE92LH9p1s3LiZioqjeDweEuITGTN2DMXFh/F6vERFRV3Qc+bk4Pbk78WZ1dXWsXHjRnbt2tm8TFNVpk2dzvYdO3nvvXdwNzScdtuhQ4Zyw/XXY7FaGDJkEA0NDVRVVXJJ32y+edutPP+nP7Pks8+Axor+8vJydN3gyd//HpPJRENDA7W1dTz99B9wRbgYN24c/kCAmMhovv3te5mSN5HIqEhUVWXwkMHce999bNu+g/vvf4jy8qN4PG4eevD7zJp9BfM/+pjc3FwijvhDLwAAIABJREFUoyI75OcmOh9VVRk7bjR/yfkTrsgIFFVt7pl7NoMHD+QvL/4Zh8MhHzYKIYRoIwqaqeWd9xLktoGvT8hwtsfPtM7p9tP0fdP62zbsxONxM2fOTKZMmdx8i09WVt/m7bxeH16vF6/Hh67rp51x9XzGc/J259qHXEx3fipgUhU01UAFNODr9XhX91PIiAZP0MAqHTo6RCAQxO32NU76Y0Djf1pOCNXkfF83mpa53UHcHi/BkOekv+EzV2Geyddfh058T4uxns8+vj7Os613PuuICxMXF8f//u8v+d737iciMgrrebRIAJh711xuu+2bxPWKIxQKMm3qdHL65zY//vobb+D3NXD1NdeiahqLPl6Au8HL7Cuvok9S8in7S4jvxT9efp1jxyoJ+gOsWb0egNyBucRER+LzBRg2fDi/+e1vSE7q3bzd/v0H+MkPfow/EODrk2SJthcMBsnP/4I333iLb93zn4wdPZJ/vvkab7/9XnOP3Nu+eSsffvQxIV2nuKSM1WvXYbWc+EDKbrfjsNn505//SnxCPN++5y5crsZekzabrXk9s9nc9KKCxWJp8ViTCePG8tJLfyU5ufG2eY/Hw5at25g3fwFLFy+hsqIURVFISExm0uQpzL7iMqDxtS8UCjVXBwMUFhaeEsw2fS+BbeulZ6Ty2K8ew+/3s23LDp78/ePEx8eT0DuBTZu34PV6+e3jjzN+3NjmbVau+oo/PPUU/uOTHGIYlB8tZ94HH3DkSCk//elPyOmfzbvvvsvBgwebt2t6LygpKWmxrLLST0N9A5ERLn72sx9jMpmIi40lEAxQXlHJ8s9X8MH777Nuw1qg8b3mkn79+cbtt3PVVbNxuZxMGD8GUHp8W4WT32/P9Yp7tvfvk88jznTOcqZtz+eYp56fnHoedbb9nu68QlEUHA47Npu1xWvH2a6JFEXBarWSdPx9S66PhBBCtJeefYZyERpnc65h9eo1vP7ya+zevxezycScOVcy967/IDk5ibq6OlauWsU7781j1/ZdGBgMGDCIO+78JmNGj8J+vGqloaGBFSu/5N233mHt+rUMHTKM2VfOYseObezdu49fPPJzcnNzSclMJhTS2bl9F0fGlZGc1LvFSeahQ8X87vEnWJa/lFAoxH/8x1wcdgePPPIoc668gqqqKhZ/toxPFn3Mhk0biYqKYvilw7n2xusZNWoEzuOTxvzx6edZsPBD7r33Pvbu2c269Zv4xS9+xtChQ9i9ew8fzl/A55/n4/b4GDhoMA8+8G1ycnLQNLkNuzOIsir8fKLB1dkKdX6DZQchLw1i7Y0nmjfmNH6tPgy3fQgmFa6/BOZkGxxtgL1VMElajba755/9Fe/OW0wgEODZZ57hTy+8wK03zeT+Bx/B7XazYf1KPvzwA7bv2E/A0Ljx6vHccNO99OoVd7wnbQHz3n+bxZ+vJeSvJy4+kbvuvIXkpGie/P3z7NpThK7r3P2dP5Da5w3u/853GDhw4AWNsb6umt8+8TTrN23huSd/Tn7+IhYsWoPH42HqlEv5xjf+k4zM3DNerHg8x/jqy9W889777N5TQDAYIKd/Fvd8604GDxmOzR6FYRiUlBTxwfvvsPLLdZQdLcPhcHLdNbO46qrriU9IQlEUgsEAq79azuv/fIPtO/aSkZHCnbffjtfra4tfR49gMpk4UlrKrbfcgtfrvaBtc3OH8swzT5CRkcHs2Zc3Lz9w4ADzPvgQm1Xjyjlz0DSNL1euxGHXue0bN5GdnU1dXT0LF33Msapqrr5yDsnJSWSmpaGHQnz66b/496eLcDqd/PBHPyYmegAAa9eu4bprr2tR/WQYOnV19UzoffYZ6kXbKD9Ww4qvVrNp80YeuP87/Po3v2XC+LEt1mlq0eF2N/Dee2/y3ntvtnh8zhVzGDZqJBs3rqOsrJQ9e/bw3z/7CdnZ/S4o5PB6vRQXH6a07CjzP/qYr75cw/Ztm/F4Gqs7TSYzObmDueyyaYwbN5rYmBgURUFRFFyuCGJjY2QOgQ7Qq1cvYmNjOXKklD8/+wKRkVFcfe3VpPZJaV7nhef+zGsvv9r8fW19PeUV5STENbYwCASDrF23gbVr1pORkY7b3cCKlV/x85/9Fz/76U/xej2UlJTyq1/9Cq83yGOP/ZykpGQWL17Chx8u5I47vsmVV86msqKC0iMlFB4sYs2Xa/hq9ZccKT3S3IrD4XAwcfwkLp95Of3798NitXD06FEqKzXi4uJxOnvmRIqGYVBVdYx/ffIp8+bNp6y0hOGjRnDDtdcSCrZsixEK6RQcOMA/X3+XL1d/SX1DLePHTeCOO77BgAGN5wbr123g0V88ysjRIxk0eCiLFi5ix86tTBo3gXu+820CgSBvvfEW//7sU5KT+nDn3DuYPWsmTqfzrONsaGjgsV/+Lx8umM8zzz3Hlk1bWfzZp1jMZu759t1MmTKFTz9bzBuvv0FZ+VEuu+wy7rzzdvr2zUJVVUKhEAUFhSz65BOWLllCVVUV6cmp3P+9Bxl+6VCsNhsrvljFL3/5KFdffR0PPnQf//rkM5595gWmTpvMfffeTUxMDKWlpTx4/0O4IiP4xS8eoa6unh//+EeMHD2aRx/5OfZu3ktYCCFE+zMMHZ/Hg8mkYTZbUFQJclutpqaWv//jFeZ/MI/kPqlcd90N6KEAKAoet6dxUoB/vs2rr7zMJTmXcN211+D1edm+fRu//tVveOgHD3PlzOkEgyHyP1/BC88/j9ls4tZbvoFJ0/hy1SoOHy7GfFLF1IgRw5gwYSJLly6hvLKSmZdfzqWXDmme1MHpdDJp0iTqams5UFjI1MlT6J3Umz59Uigvr+Clf7zMkqWLycjI4K65d1FTV8ea9et46vdP8cCD9zN92tTmKt/aulqWLl2CpqoMHjyQCJeLvXv38/jvnkQFrrn2Ogw9xOef5/PIfz/CE088QXb/vs0VNSI8nGa4MdcgLw3cAYMXN8Ci/Y09b0clKSQ4DY7Uw7ZyhR0VBqoCl/aGG3PBosGfNiiMSpJKt44waNBQysp9fPnVavr160tuTg4DB/YjEAiwdOmnvPHG62RlZnL7bd+g5MhRFi5aRnm5hwcefJBQSOfvf/8bW7Zs47K8qeRcksbefcUEgipRUTFcdtkM/IElHCgoZOqUkfTrN5jevXuD0roPW4IBP+++O496t870adM4fLiI5Ss24fH8hR/9+JdERcWeso3f52X+e8/yt5fzybmkL5fPmEEwpFNUuJMf/PhR/uuH32TmnHswDIM1q1dx+EgFY8eOJToqgrUbtvDB/EVoJo1bbr4Nq83Fpo1f8dvHnyImJprLZ8wAk5l/f/oJh4pLL/ZX0aM4nU4mTpyI3+9vsbyurp5t27YSCoUYNnx48wd7TVJTM05bJdng9lBWVkzfvv2IjIqkob7lbdNut5vPFi/hpX+8hMftoXdiItdccxXDRgzj5ptuYcOG9eiGwU033czQIUPQ9cagIDmlD7OumENkxIl+lg0NDbz/wQdt9aMQ59A7LpZ7v/UfmFWFJUs+o8HtRtcNgiEdMCgoOMDaNevwe/2YNBN9+vQhPjGRQ4cOcbSslCFDhzJ48CDmzJ5JREQEr736Krt3bmfx0mVkZKSf16R5TYqKivn+wz9g/769p308GAywa+dWdu3cyvPPnVhusVi56qrr+OEPHyIuLu4ifyLifFRVHePtt95h9fo1DBw4jAG5A7BYLGRlZTJhwgS8Xk+L9V2RTpKTE+mX1Q+TScMwDHS9MWzdvGkDmzdt4JJLBpOelsKyJctZt24tfn+A4uJidD3EC8/8CbPZRG19PYoCZouFYDDIex/M5+mnnjrjON1uN58u/jefLv53i+WxsbH8769+w4zLp7X9D6cLcLvdzJs3n7fffpu0tDTGj72W6to65n+wgIMHCknPygAaP8TZvmMnv3zkFzgjXFx91WwUTeOL5Z/zuyee5Je/fJS+WZnN+92xYyc+f5Ahgwditqh8uWYN9R4viUlJ2OwOZs++kpWrvuCFF54nJSWFcWNHn/eHPUs+W4zD4WL06FGsWbuWF1/8K3v3F3Ko6BDjxo1j9769fPrpJ0RFR/Gd+76Nw+GgqOgQL774N0pKDnPZjJlER0eybMkSfv3r/8dPf/xDJk6a0OIYmqYxZvRIJk8ez9o1a5k4YTwjRg7nww8XUl1bwz333kN6ehrbtu88wyiFEEKI1gkFA1QdLsQaEUVUXCJWVZUgtzV0XWfrlq3kL13ChAmTuPeB+8nok4Su61RUVmGzWti5czdvvvEm48ZN4Hvff5C01D7ous7mLdv4n0f/hw8/mMfEMSPwB4IsW5aP0+niBz/4HqNHj0JRFHbu3MWTTzyJL3DiYjsxIZ7vfvcBPvpwAcvyP+fxx3/H0KFDuPHmG5gwbjyxsTFce93V1FRX0+AJcP1N13HppZceD4Y+Z8Wqr8ibOo177v5P4uPj8fv9rFy1hheefY78/OUMHzaseVKHgN9PQmIC99x9NykpyQT8fp584g/U19Xz6KM/Z/DgQQDkDhjA/fffxxfLV5CZlY7pPGZ0Fe1DNWBkEgyIawxuX94Cr2yBoA6Pfwk/nwAzs2BlMfx0mYFiQHokfHMAZMXA/D3w3i6DUUnh/j/pGfKmXYMrMpn9BQeZNn061197LRaLjbKyEuZ/tIDs7L48cP/9xCekoes6EXY/Hy36nGnT1hMTm8jh4oOkJPfmzjtup1dcIjOCAQIBPzabg5tvyaG2poaDRUXcfutk+g+8HoCa6opWjdXrriMnN4c5V96EzWanovwQf/3rX1mxci0HC9Yx5NLLT9mm4MAmXnp9BYMG9ucnP36Y5JT+jcv3b+JHP32M9+avZPjIPBJ692fs2NHMuPwKXK4YDMNg7LgdPPnk4xws2Ia7oYqQbvDPf76JxWbnew/ex/CRE1BVlYIDm3nsV79r/S+hB+qTkswf/vAUX7+TdOOmzXz/e9/F4/HwX//1X/TPzm7xuKJwyozdhmFQWFCEx+MmMyMTl9PZIsj1+vz865NP+etf/kpdXR033XQzkyZPBKB37wTypk9lf8EBdEPnktz+xMf3oqysDIDamho2bdqA7aQeg35/gIb6urb8cYizUBSFpKQk7v/Otxk1egSDBw5i0aJPWLlqFV6vhw/mzaNgz37Gj5+CzW5jzpw5zL7qKv7+fy/z8cL5fO9732fkiGFYLGaumHkZ0ZEuDhUdYtaVcy4oxAXIyEjj9jtuY+f2HWzatInDh48wduxoMjLSUc7wAdWBAwWsWLGiLX4U4nwYBrW1dSxcuIj3571PKBSiqqqct996m8l5k3G5HEyfepZwVIF9+w6Qm3sJWVlZ3Hjj9ZQdLWXpkiXYrGacTicDB+USGeWipqaOI2UljW1YRo8mvlc0ADa7jZyc/thsNmZMn87hQ4eora3jqy+/JDomhnHjxp6x0tPv97N0yVLcHnd7/HS6jMMlR1iW/wX9+/fn+w9/l+x+/QiFQqxbv4HHHjsRUtbV1fHOO+9RV1/Hb3/3/+if3Q+Afv2y+NVjj/HZZ0vJuPuu5vWjo6K551t30S+7H8XFxfzkp4+wdftWxo0fx003XY/VauUfL73CX158kX379jNq5PBT3nPOZNDAQdz6jZsJBoO88so/+fs//o/16zfwu8f/lz4pKWzdvoPf/ua37Nm7l/qGBqxWK8u/WMH+/ft48MEHmDx5ImazmTGjRvGDh3/IkiVLuXTY0FOOExsbw8yZM9i1axfLv1hOSNd59523ufKqaxg3dkyPb8UhhBCifZjMVpL65aJyoi5L3nFawev1snv3HkBj5hWXk9Gn8dZfTdNITIgnGAyya9cuqqsrmD59GqnHZ0nWNI3s7L4MHzmcBQsWUl5eQSgU4vDhQ+Tk5tC/f//mW/9SUlLIzMpi1+5dzcdVFIXMzEy+dfe3mDBxIitWrmThwkU88bvf8cCDDzJr5szTjtfvD7Bv/z5Cfj9jx4wmNraxes5isTAgpz/pmemUlBymvr6e+PjGipWYmFgmT5pMSkoyqqpSWVXFlq3bOHasildeeaX5VqHq6urGi/miAvyBgAS5YeSywPg+4LTAJwfg1W2NIe6ZRFjgP4bC5HRYfwRe2wpu/5nXFx3jyKGv2L+/EJ/Xx4t/fRlNa3yZPly8m0BQp7Kynr79LiUndyBfrPiK3//hKYYMGsS0qUNJ6D2kXXqy9U6IZ8qU6dhsjX/3sb1SGDZsGCtXreHI4b2nDXL37NlOQ0M9kyeMIjmlf/Mt8umZQxg3ZijL8ldRcbSQpJRc4hPSKTuyjc2bVrN3XwllZaVUVFaRnBhJSDeoLNvMlm27GDNuLAMGDm1+neyTOoBBA3MpOSJVuecrEAjy7tvvsXN3y6qh8vIK3G43oVCIv7z4ItHR0S0enzlzFlOmTGyxzOfzsWnDBlRVJSklCYfjxC2kNTWV/OMfL7F582YaGuq55ZabufXWm4nr1Qufz8dnny3mi+XL2bevcVKzp59+mkmTJjF+3DgAYmJiGDNmFBEnVeSWl5dz4MC+Nv6JiHMJ6TpZGZnU1tXx/rvvsX3nNgBSU/owdsJ4zGYNBQWzyYzDZsFsavxbN5lMzZP9WCwW+ufkMGjwYOJ6nVrBfy4Wi4VrrrqKaXlTeeaZZyktLSMqMpr42HiUM0w+VFkloX9H0g2D3Xv2smDhQioqygGob2hg5covWbN2DX6fj2AgeNZ9XHX1NaSm9mHfnn3ExsYwMHcga9esJSk5CUXV2LRpE8WHi/F4PDQ01BMM6uzctYOSiMZwNiIiitTUVAzDICMjnZ/89Cds27qdPbt2o5ktxETHEhV5+gnMfD4fJk0uiw4dOsSRw4eYOuUbpPbpg6I09gru1zeLjIyM5tYUVVXH2LRxA36/n3/8/e/NoWtVVRX19fUUHz5E4KRilIysDBISExv7WCck0Dcrk4b6/9/efcdJWR/6Hv8+02dnZntftvdCL0tRiiIYpCl2QSE5muRcT3ISS8w5N4lJzj03yYktJuecnLzijUSNMcZuNIKignQs9CIssPRl2b47fe4fCwvrLjZAHvXzfr14vWDKM89sGeb5zO/5/VpVU1Mjj8cjwzBUVVUtKaaYIp9oPvwhw4bK6XTK4XCouLhIcW6XRtfWasCAAbJYLEpLS1NySnL3wovRqAJ+vzZt2qRDhw7q6aef0quvLpbUHfObmo5p9549av/A2SXRaFRWq1UVlRWaOGmiXnjhBa1bu04ZWZm6/PKZ8p3m5woAgHOBdyyfQiQSUZc/IE+cV4mJfVdBjkaj6vR3KhaLKSklqdccfw67XQmJ8ersaFMwFFYkHFIwGJDP65HDeXKEisVikd3RN4oahiGfz6sRI4apoqJcFRUVuvtHP9JjjzyqwYMGKzOj79yBsVhUnZ0dcsY5lJiU2Gt/HU6H3HEuSTHFYiern9Vqldsd17PvgUBAgWBYLpen12nU6eluXXvtDSouLPzIlVxxbjmsxxc0M2IKRaTO0Ifffny+NKNUindINWmG/uPimMJRqTipe/TdkAzp/smGusIxHWz78CiMs6er44BCQb9stpjcjqDs9u4D37KSAlVXFis11auU1EzNm/dVVZYm64mnlmntmrVasbJA11+3QKNqx5122xarXSmJHm3Z3CjF+h5Qd3WEjs8p6eo1n6TP65XT5fvArbtfR0Kh/g+2OjrDkgwlJsT1em2wWq1KS+ueGzcYjsnvb9eTTz2jxYtelMViU0FejpxO6fixYvd+dR5WZ2eHUhK8stpOjtA0DEMOB/+NfRKhUEhvvbVcr73+6mlvs3jx4j6XFeQX9wm5e+v3acXK5bLZbKquru61QvexY0f195dfltPp1Lwbb9J1116lw4cb1NDQqKLCfLW1dqjlWIsCgZBikpqPtaittUOx40vqNDQc0aJFi2W3n/z++v1+tbS2nOFXAJ/UO+ve1a9/86AG1wxScVmJLHartm3dqukzZ+rqa67Uk395Vja7XQnJiad9H9De3q6n/vq03n57nebMuVLTp3/lE++H1+tV1/E5sYPBgLZt3aYjBw8rdprPrppa2j/xY+DTMwxDLpdLdptVXq9Pra2tqqmsUnlFud5aulRHmhs0deoUzZo1U5s2b9ED99+vSZMu1syZ07R6zVr95Ykn1N7Zrkgkoi3btmrliuUqKS5Ta2uLysvL5XI6ZcgqrzdBklUWq1UKR+SwO45fJrmcblkttp746PV4ZD3+M3n06FGtXrW61+vUqWKRiBqbGj/2KNAvqq6uLkWiIaWmp/QaYWoYRq/p08LhiFpamhXvS5LHczJiZmbmaNasK1RaVtrreMNiWHrubrVa5XK55I5zKT7B13M7t7vv9D0fx4k1OgzDkMvplMViVWZWRs/rkc1qlc1q64nQ4UhEXV2dstttcrs9cji6P4R0ONyafMlUZWdn9TkGO7GPcW63ysvK9WTXX7Rr105dd8ONSk9PY2EzAMBniiPgT8Fms8vnjVPD0YOqq9utIYN7j4Kz2WzKSM2UxWJR/c59io0a0TNipMvvV31dvbKy8+XxuNXeFpVhWNVwuFH+Tr98x1dzDoVCam87/UHIiaA7fPgwVZSUqa5+twKB/odTdo8UzpBiVjU0NCoajfa8uWlva1NTY5NihlUWi/W0b0QSEhKVGO+RLPFaMH+eMjIzPrA/Fjn6Cc/47DT5pd0tMZUnS9OKpc1HDS1cf/oRDQmnHMukxcWUdnxKTMvxH4FEp+RNjWlXs3SIgU2fmbTs8UpMXaIRw2s1d+7cnlGwJ1itVtlsNmVmZuvS6V/TxMnztGP7Jv38F/fo2WcfUVFhupJTi/vdtt3uVEZakqLhkN5881XNvmJ+z2uB3+/X68s2yWIxlJXp6/VacLipXV2dLfL5ug/WgsGA6vcdUpc/qPLKMf0+VmaGR7FYTPsPNiscDvccEPr9fu3d2yCLRfK4pS2bN+qVl1/QiGHFuvb6W+X1xutowyE1NPyyZ1sp6UMV50tR3Z59Cvjbe+Zq9fs7Vbf74Kf8Sn85OZ0OzZt/o6685spel+/ZXa/f/OZBBQJ+fe/O7ys+IV6vvrpEHrdXF04Yo4KC/F63DwQCWrpsqfYd2K+iojKVlhSry+/X1u1b1dzSrEgkIp8vTnfecZcum/4V2Ww2Pf/sC3r0sUd12x136JvfvEUzpk/TL395r6KxqG6//bvKy8vTrl27JEkDBuRq7tx5SkxK6HnMAwcO6Y8PLxQ+O8FgUDvrdmrHjh0ad8EEfXPedXr+uRe1r36fkpKT5XA4te/AXlksFjmd7tOG3GPHmrRu3VqtWLFcM2bOOuP9SkhI1ryb5mnSpAmnPZ35lUWv6Uc//MEZPxY+HsMwFJ+couvn3qj9e/fpgV/dq8TEBN1401wVFubr1w/+Wi1trdq+7X3V7zugaDSiw0eOaPv23Tpy6GhPZHO7XRo0eLBeeeUVvbL4ZSUmpWnUqOHyeOJ03Q3XKBaL6dDhw9q5c4c6OoK6Zu5clReeWKHV6H4v2s9oziFDBuv227+rzA+8fz2hra1d/3Ln97X1/W3n6kv0uRAfHy+3O0GHDh5RMBg8uXZGa7saDzcoMSVJkhQX51JBQbEsiumWW76m5OSkXtuxWCwfOdWAxbDI8inn7v8oH7a4ocvlUnpqhlJT03Tdtdeqqrqi1/WG0XcwzYn3RMeONemVV/6u7NwcDRoyWIv+/jdNmXyxxo3rvRAkAADnEiH3U3A6HaoZOFAJCQn60yOPKi93gCoqyhUMhrR7z16lp6WpsrpCAwbk6aE//kEFJQNUVVmpUDisJa+9oRWrlmvmrFnKyc5Wc0urCgry9c4772jR68s07ZKJkiG9+eZSrV69VmnpKT2P+/zzLykh0afKinI5HA4FAkG9vuRNbd6+RQMHDZfP213iDIuhI4f3qa5uj0pLS2W12lRZWaFnn3tWf3r8ceXlDlBebq7aOzr18qIlqtu9R7Mvn6X0fkbznuD1enThhAn6/UO/06LXXtPM6dPl8cQpHA7pzbdWqrK8VCXF/ccjfDYikpbVSwfapClF0ndGxtTUJb20s/v6E6ep5cdLSU5DT2+L6bGNfbfz4NTuuXTfrJd+uky6KM9QRQoLoJ0LhmEo6O/Qnp0rdKxxpJKTc5SeUaCygkytWLFUgwdVadDgUbJareryd+mdtS9oZO1lslos6uzqlMeTJJvVppTUbCXEe+T3hxUIRnq2HYvFtP9Al7Lz2+VyOeVyuTRubKWee+El/df/PCKXy6GRtVMVDHToxRef0cpVa1RcXKSKyrG99rO18bD++uRCXXP9P8pus+m991bpjTdeVV5utpJTC/p9bgMHXaS0rOf012eeU1lZrmoGT1IkHNbbq1/QoiXLNPGCMcrOG6etWzYqHA7LG2fIYbcpGo2qrm6H3t20W2OHF0mSvPE5qizJ0fbt27RkycuadNEMxWIxLV70lDZs3CCLhZEwH5fD4dC4sX0POFeuWiObzapQyKLBQwer4cgRvb9jq5pb2zV63ChVVp480I1EIlq/fqOee/Y5BQMBjaodpdaWNj1wzwNatGSRgsGgkpNTde9992p07UhZLBa1trWpsblFbW3tSkpKktvtksfrkc1uUygU0sGDh9TU1Kw1q9fp6NFDSkhM0PYd7yv++IebktTR2Sl/IKR9++r16pLXNXvWDCV9YAoInF1t7R3asqk7bI0dN0YJ8fHHw07379zRY8e0Yf0mud1u5ebk9BtuotGo9uyp16FDh1VaWtEzx/6ZOHLkoH7wg/99PNb0//vfvWAWrw2fpbzsdOVmTtYzz7yg7gGchtxud/eHb4a09I03tHL5ckUiUYVCYW3c8K62b9uscCis4PHT8G02m4YMqlFNdbUWLd6v6poKFRQW6OE/PKLf/f5/JKn79PhAQLFYTN/6xs29pteora3VXXd9TwX5vT98evNVr7MiAAAcIElEQVSN17V8+bLTzqksScFQUIkJCae9/ssgb8AAJfjceuONNzR06BBVVVUoFArpuWdf0KYtmzTugu4zM1JTUzWydph++1//rcWLl+iyy6bK5XIpGAxqzZq3VVRcoKLCwo94tPPDbrersrpSr7++RC+/+rqSU1OUejxQ79i5S0F/ULW1I/rcz+8P6NXXXteGDZs1f/48VVdXauuWnVq48I8qKMhTTk72J9qPcDisRYuX6M+PP6F5867TRRdNUjAY1F+efForl6/Wzbcs0MCB1Wpqatb/+dnPFA1G9f1/vVMZ6ac/XgMAfDkQcj8Fi8WimppqXXP11Xr0scf09Vu+rqysAbLbrSosKtStt96qosIC3Xrrrfrd736rf/72d5SWlqFIJCp/oFMTx0/U/JtulMvlUqrNpjlzLldDwxH94t9/osce/oN8Pp+ycwZoYE21Dh05Ofdja2uLfvGLn6m1pUX+gF92u0Ner1dFRUWaf9NcpaV1L1RWUFQoX7xP//ZvP9Vf/vyEbpg7TxMnXairrrxaf378cX3tazcrIy1dgVBIfn+HLr5osr4ydari3O7TPOPug/9pl12qrZs3aeEfHtYTf3pcCfGJ6goEFYkE9asHf3Wuv+z4GPa1SovqpGS3NDrH0A8uiMkwpJUHpIbO7ukWRmZLa78a09K90oIXzvcef3kZhqH0tBSVlRbqxZfXatWa23T5rAs198bv6Kb5N+m+B/5bd//kZ4r3+eR2u9Tc3KIhwwdqzNhZ2rtnh379m/9UIBhRakqSduzcqzi3Q5deepXS0gtktVqVX5CreJ9XP/jJf6q87GV9dcECjRk7UcNGXKZ/+GqDnnr6af38l/+jQOBBWa1Web1xKioq0v/6xlVKTOo9YsnhdGtnXYP+6Vu3KhwMqq2tTQkJ8Vow7xIlJ/V/0JuckqXv/fM1+s1/PaEf/uRBud2/VyQakxELadDgEfqHBVPk88UrOTlReXnZevixN/T3V7cpNTVZJcX5Kso7eaDidrv1j1+fobv/7bd64NcP6aGH/6r4+DhVV5bpgrGjtHzlmnP6vfqi6OzqUkd7h2LRvh/MtLS0KBaLKRaT2lrbVFxcpGmXzdCLLzyvHdt2aP+wA3K73fL6vNpdt1sLFz6q3XW7VVlZrdbWJt18y9fV1tYsj6c7vHq98XI67Ors7J5maPeefdrx/vvKyhqgtNTu6XkikajC4Yg2bNigH/1oh264/npt2bpdaWkp6uzs1DNP/1UJCfGyOxxqbm6Rv6tLycnJMiTt31v/kfNt4swdOXxEO3ftUH5+ifJzc3pdF41FtW7tOm3dulEjR45Udk7/K2UGAgHt2b1bzU3HNGbcWCUnJai+vl7BU84iOnDgYM+IzH379sl9ylRTdodd2dnZvSKxzxevKZdepqGDB8l2mpF3W3du06MP//FTP3d8coZhkWFVr1PwT3X11dfpsulf0ZbN2/Tzn/9fXTz5Us2ZM1vLly7V439+XFJ3+G9rb1cg2D2Nxs7tO/X8315RRUWZ7r//ATmdTjU3NevBB3+ljs6A7rzzdqWknBwN6nI5Fd/PfKUlJaWaPfvynnUiPigciWjhwkfV0LD/DL8Kn2+ZWVmaPecK/eGhh/Sd79ymnKxs2Z1ujb1gpC6cMF7RSPc8W06nU1decYV27azXb3/733rkkUeVlBCvYDii1NR0fe973znPz+T0LBaLJk4Yr7pddXr22ae05JWXFe/zyWZ3KBjy64477uxzn2g0ps1btujpp59WcVGhhg0bqqysTN049zrde9+9evrZ53XTvOs/0X4EAgEd2H9AdXU7tXnzVk2cOEHhcFh76narrm6HjjY0KBqN6UhDg5YvW6aM9Ew1NjYRcgHgSy4SChJyPy2Xy6k5V81ReWWl1qxerbrddcrMytGoUcOVlZUhm82mqVMnq7AwX6+/tkT7D+6XJ86noUOHalTtSCUldY8istlsGjF8uO68/Q69tuQNNTYeUXlpmUaNGa1HHnmkV8i96KIJSktN1ebNm3S0sUE+X6IKi4p1wQWjlZWR0TMiYfToWt1y8816b/16Wa1WFRTky+Px6IorZqmyokIrV61WXd0OJSQmatSoWg0dMlhJSUk9pw1VVVUoFPYrPT2t13POzsrUnXfdqRXLV2njpg3y+7s0IHuAJl48SYUfOO0Wn50DbdJT26SOgKE9LTFtPSr95zqpvjkmm01KcRlq98f02CapPShlHF+weetRQ1LfoLNqv9QRkrY3dt8e54ZhGMoZkKsbbrhRObmFam5uUVFRpQzDopqaYfrXu27X0uUrdfDAIRmSysoKNHZ0iby+JGXnZGr69GnasHGXgqGgplxSoVGjBqu6ekTP/H/jJ0xTOGzRO+9tUnpainJycnvmDbzm2vmqrMjXqjXbdbSxUXHuOBUU5GjC+IlKTesbYxxxXt1x2z9py9bNemvFeiUlJuiiSReopLRKFqtdsVhMyckpmjTpIpUVp8ruiJNhGBoz7grlFwzRK4uW6MCBwzLsdg2tKdGYMRcqMan79aWwqEK3/MMtKih4XQ1HmzSwpkK1o0Zq6bKlslkll7s7DFYOnKGf/sitV9/YpubWdtVUFWnMmAv1zttr5fUly5eQ+5l97z6vtmzZpmeefkZtrX3nSmlpa1ZXV5fC4Yh+/9D/U4LPp46uDjmdDu3atVP3/PI+xSfE68orr9DLL/1dby17U/n5+brt9tu0c+cubVi/XmPGjFZFZYVeeulvqtu1S39c+KgG5GYrEo1qd91urX93nYYPHa601DTFYjE1NTWpsfGompuPKSMjUx5vnGbOnKZt24u1Y/t2NTe36sqr5qikpFgLFz6q995dr9raESooLFRNTZV8Pm8/zxJnSzQa1e66PWpqatLQwcPk9fm0evUarV//ngKBLrW1tumdd9+T1WrV8KEjlJycLL+/q8922tratW37NnV2daqirEKSoXvuuU/vb9/Rcxt/IKj2tjZFo1Hd8x/3yHnKac0FhYW6+8c/VGpq6ilbNRSJRNXV1X7a6Rz8HX33BefXwYP7tXHDBu3dW69oNKqGhiPasHGDDjYcVuT4Og1dXV166aVXtH79Rg0cOEjBUFD3/cfPlJ+br6qaGqWmpSoSiaijo0OhUETr1q2V23VyriirzaYLx4/vM1o/GA6po6tdzs7+pwHr8ncpHOw8d0/+c8LlcmrWzOnKycrS8uVvKSqLxl9wgQYOrtFzzz2naCTas+Bxdna2fvDDu7R40Wvavn27wqGgCooKNWrkSBUW5sswDKWmpuiSSyartLxMdnv3BzSGYWjwoIFKSUlSfPzJ+fdTUpI1Y8YMlRQXf+jUCNLx46cRw2W1G70W58zIzNCll05VQX5ez2Uut0u1taMUjoR79j0lJVkLvnqTqqurtHHDejU1N6swv1AjRo5UdU2lJCk9I11Tp05VVVWFYrGoWppbNHTIIF144XhlZWXKbrfrosmTdODAftltFrW3dyg5KUlTpkxRQVHhRz4Ht9ut2tEjZRiGxo0bfXyKGqcmX3KxCgoLVV5RLqvVorzcXN12+22KhKLKHfDJRv0CAL54Qv4OQu6ZsNlsGjJkkIYMGdTv9RaL5fiCZOUfuh273a7qmipV11T1XLZ3b70OHjwst8vdM0dmVlaWsrKyNGXq5A/dns/r1azZszRrdu956BwOhwYPGajBQwZ+6P2nTJ182sdIT0/TrNnTNWv29A/dBj47mxqku16TTo2yq/Z3/+nWffn7x6R7V516z/6nS3ikn+kWcG7YbA4NHDRMAwcN63W51WpTaVmVSsuq+r1fYlKepl2Wp2mXnX7bcXEeTZ8xR9NnzOnncW0aNuISDRtxycffWcOmiZNmaOKkGX2vMgzl5eXpn279Vp/LcwYUa8GC00+7YrVaVVRSo2+U9D7d+uqrC/psq7z6EpVX997nKVNnaMrUvvuEvjo7OrVj+3Yda2zs9/rszO4DxP179+jUMWk73+8ObimpKYpEulfuzs3L1fz58zVyxDANHlSj4pJClRQVKy7OrWgkqsce+5P+9tLJIf8Oh0tlZWWaOXuWfPE+xWLdodBms2vEyFpdfvlspWflaOHvf69177ytpMQkTZgwXqUlxcrPz9PY2pHqaG/V60uWyLvubaWkpGjQoA//vwxnxh8IqH7fXgUCflUNGqhoJKJnn3teL774ghLiE5WUlKSi/EJty8nTuAvGyu129Qm5sVhMx441qr6+XkmJyaqsqpDValUkElEwePKTQoshDcgecOJeva4LR8J9/rvy+zu1ccO7Onr4QK/T6k/V1HLsrHwdcPbU7d6lYCAow2LRmDHdU/i8vXadDh44oHCoe4XWE9Pbjhg+XPMX3CQpplWrV+vtde9o1coVajjaoHD45Gj8Py58uNdjZKRnaMjgIX0eu7W5WatXremZY70/Tf18yPVl5PF4NGHieE2YOL7X5TfOm9fntilJSbrm6r7vM04oLCrUd2//bq/LrFarZszs+wamsCBfP/7x3ZK6/384MX3GBxmGIbvdrquvvUpXX3tVr+sqKsr0/e/f1euyeJ9Pc+fe0GcbqSkpmjbtUk2bdmm/+15WVqI7v3dHz78nTZqgSZMm9LpNclKivvXtW3tddscdt0vqfv0LBoOKRvtbLdiQ3W5TTXWVaqpPvtez2WyqrR2p2tqRPZd5PHG6as7pv8YAgC8Xly+JkHu+RSIR7d9/QA6HQ+npabJYLOrs7NSKlau0Y/t2XTLlku5TSVkNFQBwBqqrKvQv/3KXQp9ySgKHw66i4iKlJCdp/IQLVV5eJqfTKafTqbGju0cTxWIxXXXVHA0dOkRtbS0997XZ7MrIyFRhYYEcju5RWfkFefrq1xYoNTVF1dVVamvrUF5enkaPqVV1dbWKi4uUlJQoq9Wq6TOna8Sokdq+bZt21e3WgJzsj1xIB2fGYbdr0sQJSk1L1cCaGnm9Ps2YPl0lJcXKyMjUuHFj5LTbVVJSpIrKclksFrndbo0ff6GyczKVnZ0pScrIyNCNN87Tvn37VVBQII8nTt/85jfU1fnxRsy63E7FJ3SfKm+32VRdXSOH3akx48aovLRUFmv/IXf9xo1asWyFBtZUy+Fw9nsbnBspKcmaOWO2ykpKZLNZlZ6RoYsvvkRFJUUaU1srm/3k724kEtXbb7+rd999R6UlpXK7XZoyZbI0ZbIqKspks9k0aNBAHZh2UEcbGtTW3tYzDUd/vB6vqqqret43JyQm6MLxExTnidOkSROVmNj/dEDBYEhPPfWMurq6lJDE3Nvn29699frTnx7X7t11fa6rqRmoa6+5WmkfOHPQbILBoP7yxF+1dNmbfa5LSEjU3Btu0KDBfCAJAPjkjPLy8l4fdcZiMWVnZ2vJkiUfawNtbW3y+XwffUP0KxQK6aW/vawnn3xSKUkp8ng92rVnr/bs3qnCwiJ9+9vf1rBhQz7y9Bx8Mt96JaqRmed7L87c/Wulg+d4AMmCQZ+fxc4aOqUR2YbG5/HBx9nQ3tasf//FfVr37not/N39yshkChXo+Fy6sdOe0v5JthMOh2WxWGS1WhWLxdTa2iaXyymHw9HvB5gnRmlZrdaeIIxzKxwOyzAMWSwWhUIhRSIRWa022e227gUbj69sf2KBxWAwpGg0IofD0fPeJRwOKxgKyWF3yGb79O9notGoOjs7FQ5HFBfn/tCfga4uv/x+v+x2u+Li3Gf884qPr6urS35/QDarVR6vR8FgqNf34tTf7VgsJr/ff/z32iaPx6NoNCrDYsh6Fr5noVBIHR2dslgt8sTFnfb99InXn1gsJpfLJZeL+H8++f0BNTQ0yO/397nO4/EoLS31+MKL5hWNRnX0aKNaWlr6XGezWZWeni6Px3Me9gwAcD6Fw2GFw+EPPUvoVHV76jVn/s2ySDIskiELI3LPN6vVqtKyMhUVFuu1JYt1pKFBBYXluu6G63XF7NnKzMzk4AMAYBqGYZyVs0ROnB576r8TEvouUnSqE6M+8dk5deRzf+H01MsMw5DT2fc2NpvtrIygtlgs8no/3tzIbrdLbvfHe4OMs8vtdvf6PXW5nKcNo4Zh9Lm9xXL2Bi/Y7fbTjsL94H581OsPPjsul1O5uQM++oYmZrFYlJ6e1mfNEQAAzhQh9zyzWCyqrCzX3T/5oe7WD8/37gBAD68vUf/+0x+f790AAAAAAAAi5AKfa4UJhuId53baA6/98zGtAgAAAAAAwBcZIRf4HJtVSmQFAAAAAAD4orEYkttqyDj+d8OIEXIBAAAAAAAAwEwshuSzxXqtUcIqWgAAAAAAAABgcoRcAAAAAAAAADA5Qi4AAAAAAAAAmBwhFwAAAAAAAABMjpALAAAAAAAAACZHyAUAAAAAAAAAkyPkAgAAAAAAAIDJEXIBAAAAAAAAwOQIuQAAAAAAAABgcoRcAAAAAAAAADA5Qi4AAAAAAAAAmBwhFwAAAAAAAABMjpALAAAAAAAAACZHyAUAAAAAAAAAkyPkAgAAAAAAAIDJEXIBAAAAAAAAwOQIuQAAAAAAAABgcoRcAAAAAAAAADA5Qi4AAAAAAAAAmBwhFwAAAAAAAABMjpCLLyXDkGSc773A2RYzuv8AAAAAAAB80RBy8aVUGBdQIOA/37uBsygajcgtvxJskfO9KwAAAAAAAGed7XzvAHA+zCy367EtUmqkSw6bVTGr43zvEs5EsENtIYcyEhwqTOLzKQAAAAAA8MVDyMWXUlGqTddUhrXmoEONAasUPt97hDNhs3hVkxHSsBxDCS5CLgAAAAAA+OIh5OJLqzTVptLU870XOHsYVQ0AAAAAAL64GLoGAAAAAAAAACZHyAUAAAAAAAAAkyPkAgAAAAAAAIDJEXIBAAAAAAAAwOQIuQAAAAAAAABgcoRcAAAAAAAAADA5Qi4AAAAAAAAAmBwhFwAAAAAAAABMjpALAAAAAAAAACZHyAUAAAAAAAAAkyPkAgAAAAAAAIDJEXIBAAAAAAAAwOQIuQAAAAAAAABgcoRcAAAAAAAAADA5Qi4AAAAAAAAAmBwhFwAAAAAAAABMjpALAAAAAAAAACZHyAUAAAAAAAAAkyPkAgAAAAAAAIDJEXIBAAAAAAAAwOQIuQAAAAAAAABgcoRcAAAAAAAAADA5Qi4AAAAAAAAAmBwhFwAAAAAAAABMjpALAAAAAAAAACZHyAUAAAAAAAAAkyPkAgAAAAAAAIDJEXIBAAAAAAAAwOQIuQAAAAAAAABgIn6/X++u36y6Qy2KxKRYLCbb+d4pAAAAAAAAAMBJTqdTObm5OtYRVkt7h/Zt20LIBQAAAAAAAACzMWIxOW0xJfs8Sh4xgqkVAAAAAAAAAMBMwuGQjh5r7HUZI3IBAAAAAAAAwIRisZg6u7rU3tLCiFwAAAAAAAAAMCtDkmEYjMgFAAAAAAAAALOxO+yK87jldnf/YUQuAAAAAAAAAJiMxWKR1Wo9+e/zuC8AAAAAAAAAgA+Ixbrnxz3h0KGDhFwAAAAAAAAAMJNIOKLO1nY57HZJUmZmFiEXAAAAAAAAAMzEYrMrITVLPsfJqRVY7AwAAAAAAAAATMTpsCk3I16GIQWCQR1rOMqIXAAAAAAAAAAwK4vFIrfbRcgFAAAAAAAAALOy22xKTE4m5AIAAAAAAACA2RFyAQAAAAAAAMDkCLkAAAAAAAAAYHKEXAAAAAAAAAAwOUIuAAAAAAAAAJgcIRcAAAAAAAAATI6QCwAAAAAAAAAmR8gFAAAAAAAAAJMj5AIAAAAAAACAyRFyAQAAAAAAAMDkCLkAAAAAAAAAYHKEXAAAAAAAAAAwOUIuAAAAAAAAAJgcIRcAAAAAAAAATI6QCwAAAAAAAAAmR8gFAAAAAAAAAJMj5AIAAAAAAACAyRFyAQAAAAAAAMDkCLkAAAAAAAAAYHKEXAAAAAAAAAAwOUIuAAAAAAAAAJgcIRcAAAAAAAAATI6QCwAAAAAAAAAmR8gFAAAAAAAAAJMj5AIAAAAAAACAyRFyAQAAAAAAAMDkCLkAAAAAAAAAYHKEXAAAAAAAAAAwOUIuAAAAAAAAAJgcIRcAAAAAAAAATI6QCwAAAAAAAAAmR8gFAAAAAAAAAJMj5AIAAAAAAACAyRFyAQAAAAAAAMDkCLkAAAAAAAAAYHKEXAAAAAAAAAAwOUIuAAAAAAAAAJgcIRcAAAAAAAAATI6QCwAAAAAAAAAmR8gFAAAAAAAAAJMj5AIAAAAAAACAyRFyAQAAAAAAAMDkCLkAAAAAAAAAYHKEXAAAAAAAAAAwOUIuAAAAAAAAAJgcIRcAAAAAAAAATI6QCwAAAAAAAAAmR8gFAAAAAAAAAJMj5AIAAAAAAACAyRFyAQAAAAAAAMDkCLkAAAAAAAAAYHKEXAAAAAAAAAAwOUIuAAAAAAAAAJgcIRcAAAAAAAAATI6QCwAAAAAAAAAmR8gFAAAAAAAAAJMj5AIAAAAAAACAyRFyAQAAAAAAAMDkCLkAAAAAAAAAYHKEXAAAAAAAAAAwOUIuAAAAAAAAAJgcIRcAAAAAAAAATI6QCwAAAAAAAAAmR8gFAAAAAAAAAJMj5AIAAAAAAACAyRFyAQAAAAAAAMDkCLkAAAAAAAAAYHKEXAAAAAAAAAAwOUIuAAAAAAAAAJgcIRcAAAAAAAAATI6QCwAAAAAAAAAmR8gFAAAAAAAAAJMj5AIAAAAAAACAyRFyAQAAAAAAAMDkCLkAAAAAAAAAYHKEXAAAAAAAAAAwOUIuAAAAAAAAAJgcIRcAAAAAAAAATI6QCwAAAAAAAAAmR8gFAAAAAAAAAJMj5AIAAAAAAACAyRFyAQAAAAAAAMDkCLkAAAAAAAAAYHKEXAAAAAAAAAAwOUIuAAAAAAAAAJgcIRcAAAAAAAAATI6QCwAAAAAAAAAmR8gFAAAAAAAAAJMj5AIAAAAAAACAyRFyAQAAAAAAAMDkCLkAAAAAAAAAYHKEXAAAAAAAAAAwOUIuAAAAAAAAAJgcIRcAAAAAAAAATI6QCwAAAAAAAAAmR8gFAAAAAAAAAJMj5AIAAAAAAACAyRFyAQAAAAAAAMDkCLkAAAAAAAAAYHKEXAAAAAAAAAAwOUIuAAAAAAAAAJgcIRcAAAAAAAAATI6QCwAAAAAAAAAmR8gFAAAAAAAAAJMj5AIAAAAAAACAyRFyAQAAAAAAAMDkCLkAAAAAAAAAYHKEXAAAAAAAAAAwOUIuAAAAAAAAAJgcIRcAAAAAAAAATI6QCwAAAAAAAAAmR8gFAAAAAAAAAJMj5AIAAAAAAACAyRFyAQAAAAAAAMDkCLkAAAAAAAAAYHKEXAAAAAAAAAAwOUIuAAAAAAAAAJgcIRcAAAAAAAAATI6QCwAAAAAAAAAmR8gFAAAAAAAAAJMj5AIAAAAAAACAyRFyAQAAAAAAAMDkCLkAAAAAAAAAYHKEXAAAAAAAAAAwOUIuAAAAAAAAAJgcIRcAAAAAAAAATI6QCwAAAAAAAAAmR8gFAAAAAAAAAJMj5AIAAAAAAACAyRFyAQAAAAAAAMDkCLkAAAAAAAAAYHKEXAAAAAAAAAAwOUIuAAAAAAAAAJgcIRcAAAAAAAAATI6QCwAAAAAAAAAmR8gFAAAAAAAAAJP7/2FBC8P+G65hAAAAAElFTkSuQmCC;" vertex="1" parent="1">
          <mxGeometry x="1010" y="770" width="534" height="211.45" as="geometry" />
        </mxCell>
        <mxCell id="VwtI1pIFsAnY7B8LQXj2-2" value="" style="group" vertex="1" connectable="0" parent="1">
          <mxGeometry x="-370" y="660" width="360" height="270" as="geometry" />
        </mxCell>
        <mxCell id="eDM4BhiJt45LsH72MwUt-1" value="&lt;span style=&quot;color: rgb(38, 139, 210); background-color: rgb(253, 246, 227); font-family: Consolas, &amp;quot;Courier New&amp;quot;, monospace;&quot;&gt;ModelParameters&lt;/span&gt;" style="rounded=0;whiteSpace=wrap;html=1;fontSize=15;fillColor=none;verticalAlign=top;strokeColor=#0000CC;strokeWidth=2;" parent="VwtI1pIFsAnY7B8LQXj2-2" vertex="1">
          <mxGeometry width="360" height="270" as="geometry" />
        </mxCell>
        <mxCell id="eDM4BhiJt45LsH72MwUt-2" value="&lt;span style=&quot;color: rgb(133, 153, 0); background-color: rgb(253, 246, 227); font-family: Consolas, &amp;quot;Courier New&amp;quot;, monospace; font-size: 14px;&quot;&gt;Form&lt;/span&gt;" style="rounded=0;whiteSpace=wrap;html=1;fontSize=15;fillColor=none;verticalAlign=top;" parent="VwtI1pIFsAnY7B8LQXj2-2" vertex="1">
          <mxGeometry x="11.999999999999998" y="38.57142857142857" width="336" height="212.1428571428571" as="geometry" />
        </mxCell>
        <mxCell id="eDM4BhiJt45LsH72MwUt-3" value="&lt;div style=&quot;color: rgb(101, 123, 131); background-color: rgb(253, 246, 227); font-family: Consolas, &amp;quot;Courier New&amp;quot;, monospace; font-weight: normal; font-size: 14px; line-height: 19px;&quot;&gt;&lt;div&gt;&lt;span style=&quot;color: #859900;&quot;&gt;Submit&lt;/span&gt;&lt;/div&gt;&lt;/div&gt;" style="text;whiteSpace=wrap;html=1;fontSize=15;" parent="VwtI1pIFsAnY7B8LQXj2-2" vertex="1">
          <mxGeometry x="162" y="212.1428571428571" width="47.99999999999999" height="38.57142857142857" as="geometry" />
        </mxCell>
        <mxCell id="eDM4BhiJt45LsH72MwUt-4" value="&lt;span style=&quot;color: rgb(133, 153, 0); background-color: rgb(253, 246, 227); font-family: Consolas, &amp;quot;Courier New&amp;quot;, monospace; font-size: 14px;&quot;&gt;SchemaField&lt;/span&gt;" style="rounded=0;whiteSpace=wrap;html=1;fontSize=15;fillColor=none;verticalAlign=top;" parent="VwtI1pIFsAnY7B8LQXj2-2" vertex="1">
          <mxGeometry x="30.000000000000004" y="72.32142857142856" width="303" height="125.35714285714285" as="geometry" />
        </mxCell>
        <mxCell id="5hRKipNhRNURSHAW4hCL-1" value="&lt;meta charset=&quot;utf-8&quot;&gt;&lt;div style=&quot;color: rgb(101, 123, 131); background-color: rgb(253, 246, 227); font-family: Menlo, Monaco, &amp;quot;Courier New&amp;quot;, monospace; font-weight: normal; font-size: 12px; line-height: 18px;&quot;&gt;&lt;div&gt;&lt;span style=&quot;color: #268bd2;&quot;&gt;renderGroup&lt;/span&gt;&lt;/div&gt;&lt;/div&gt;" style="text;whiteSpace=wrap;html=1;fontSize=17;" parent="VwtI1pIFsAnY7B8LQXj2-2" vertex="1">
          <mxGeometry x="150" y="106.07142857142856" width="66" height="38.57142857142857" as="geometry" />
        </mxCell>
        <mxCell id="5hRKipNhRNURSHAW4hCL-2" value="&lt;meta charset=&quot;utf-8&quot;&gt;&lt;div style=&quot;color: rgb(101, 123, 131); background-color: rgb(253, 246, 227); font-family: Menlo, Monaco, &amp;quot;Courier New&amp;quot;, monospace; font-weight: normal; font-size: 12px; line-height: 18px;&quot;&gt;&lt;div&gt;&lt;span style=&quot;color: #268bd2;&quot;&gt;renderComponent&lt;/span&gt;&lt;/div&gt;&lt;/div&gt;" style="text;whiteSpace=wrap;html=1;fontSize=17;" parent="VwtI1pIFsAnY7B8LQXj2-2" vertex="1">
          <mxGeometry x="150" y="135" width="84" height="38.57142857142857" as="geometry" />
        </mxCell>
      </root>
    </mxGraphModel>
  </diagram>
  <diagram name="课题4" id="TXrmVewVUBl4j6nKk0vy">
    <mxGraphModel dx="1781" dy="591" grid="1" gridSize="10" guides="1" tooltips="1" connect="1" arrows="1" fold="1" page="1" pageScale="1" pageWidth="827" pageHeight="1169" math="0" shadow="0">
      <root>
        <mxCell id="rIGfc8pQiLcZ_JJEsUur-0" />
        <mxCell id="rIGfc8pQiLcZ_JJEsUur-1" parent="rIGfc8pQiLcZ_JJEsUur-0" />
        <mxCell id="rIGfc8pQiLcZ_JJEsUur-2" value="&lt;div style=&quot;color: rgb(101, 123, 131); background-color: rgb(253, 246, 227); font-family: Menlo, Monaco, &amp;quot;Courier New&amp;quot;, monospace; line-height: 18px; font-size: 16px;&quot;&gt;&lt;span style=&quot;color: rgb(38, 139, 210); font-size: 16px;&quot;&gt;ModelModal&lt;/span&gt;&lt;/div&gt;" style="rounded=0;whiteSpace=wrap;html=1;verticalAlign=top;fontSize=16;fillColor=none;strokeColor=#0000CC;strokeWidth=2;" parent="rIGfc8pQiLcZ_JJEsUur-1" vertex="1">
          <mxGeometry x="80" y="250" width="680" height="510" as="geometry" />
        </mxCell>
        <mxCell id="rIGfc8pQiLcZ_JJEsUur-3" value="&lt;meta charset=&quot;utf-8&quot; style=&quot;font-size: 16px;&quot;&gt;&lt;div style=&quot;color: rgb(101, 123, 131); background-color: rgb(253, 246, 227); font-family: Menlo, Monaco, &amp;quot;Courier New&amp;quot;, monospace; font-weight: normal; font-size: 16px; line-height: 18px;&quot;&gt;&lt;div style=&quot;font-size: 16px;&quot;&gt;&lt;span style=&quot;color: rgb(133, 153, 0); font-size: 16px;&quot;&gt;Modal&lt;/span&gt;&lt;/div&gt;&lt;/div&gt;" style="rounded=0;whiteSpace=wrap;html=1;fontSize=16;fillColor=none;verticalAlign=top;" parent="rIGfc8pQiLcZ_JJEsUur-1" vertex="1">
          <mxGeometry x="100" y="290" width="640" height="450" as="geometry" />
        </mxCell>
        <mxCell id="rIGfc8pQiLcZ_JJEsUur-4" value="&lt;meta charset=&quot;utf-8&quot; style=&quot;font-size: 15px;&quot;&gt;&lt;div style=&quot;color: rgb(101, 123, 131); background-color: rgb(253, 246, 227); font-family: Menlo, Monaco, &amp;quot;Courier New&amp;quot;, monospace; font-weight: normal; font-size: 15px; line-height: 18px;&quot;&gt;&lt;div style=&quot;font-size: 15px;&quot;&gt;&lt;span style=&quot;color: rgb(133, 153, 0); font-size: 15px;&quot;&gt;Model&lt;/span&gt;&lt;/div&gt;&lt;/div&gt;" style="rounded=0;whiteSpace=wrap;html=1;fontSize=15;verticalAlign=top;" parent="rIGfc8pQiLcZ_JJEsUur-1" vertex="1">
          <mxGeometry x="120" y="330" width="600" height="390" as="geometry" />
        </mxCell>
        <mxCell id="rIGfc8pQiLcZ_JJEsUur-5" value="&lt;meta charset=&quot;utf-8&quot; style=&quot;font-size: 10px;&quot;&gt;&lt;div style=&quot;color: rgb(101, 123, 131); background-color: rgb(253, 246, 227); font-family: Menlo, Monaco, &amp;quot;Courier New&amp;quot;, monospace; font-weight: normal; font-size: 10px; line-height: 18px;&quot;&gt;&lt;div style=&quot;font-size: 10px;&quot;&gt;&lt;span style=&quot;color: rgb(147, 161, 161); font-size: 10px;&quot;&gt;&amp;lt;&lt;/span&gt;&lt;span style=&quot;color: rgb(38, 139, 210); font-size: 10px;&quot;&gt;div&lt;/span&gt;&lt;span style=&quot;color: rgb(101, 123, 131); font-size: 10px;&quot;&gt; &lt;/span&gt;&lt;span style=&quot;color: rgb(147, 161, 161); font-size: 10px;&quot;&gt;className&lt;/span&gt;&lt;span style=&quot;color: rgb(133, 153, 0); font-size: 10px;&quot;&gt;=&lt;/span&gt;&lt;span style=&quot;color: rgb(220, 50, 47); font-size: 10px;&quot;&gt;{&lt;/span&gt;&lt;span style=&quot;color: rgb(203, 75, 22); font-size: 10px;&quot;&gt;styles&lt;/span&gt;&lt;span style=&quot;color: rgb(101, 123, 131); font-size: 10px;&quot;&gt;.&lt;/span&gt;&lt;span style=&quot;color: rgb(38, 139, 210); font-size: 10px;&quot;&gt;wrapper&lt;/span&gt;&lt;span style=&quot;color: rgb(220, 50, 47); font-size: 10px;&quot;&gt;}&lt;/span&gt;&lt;span style=&quot;color: rgb(147, 161, 161); font-size: 10px;&quot;&gt;&amp;gt;&lt;/span&gt;&lt;/div&gt;&lt;/div&gt;" style="rounded=0;whiteSpace=wrap;html=1;fontSize=10;fillColor=#fff2cc;verticalAlign=top;strokeColor=#d6b656;" parent="rIGfc8pQiLcZ_JJEsUur-1" vertex="1">
          <mxGeometry x="130" y="360" width="580" height="350" as="geometry" />
        </mxCell>
        <mxCell id="rIGfc8pQiLcZ_JJEsUur-6" value="&lt;meta charset=&quot;utf-8&quot; style=&quot;font-size: 10px;&quot;&gt;&lt;div style=&quot;color: rgb(101, 123, 131); background-color: rgb(253, 246, 227); font-family: Menlo, Monaco, &amp;quot;Courier New&amp;quot;, monospace; font-weight: normal; font-size: 10px; line-height: 18px;&quot;&gt;&lt;div style=&quot;font-size: 10px;&quot;&gt;&lt;span style=&quot;color: rgb(147, 161, 161); font-size: 10px;&quot;&gt;&amp;lt;&lt;/span&gt;&lt;span style=&quot;color: rgb(38, 139, 210); font-size: 10px;&quot;&gt;div&lt;/span&gt;&lt;span style=&quot;color: rgb(101, 123, 131); font-size: 10px;&quot;&gt; &lt;/span&gt;&lt;span style=&quot;color: rgb(147, 161, 161); font-size: 10px;&quot;&gt;className&lt;/span&gt;&lt;span style=&quot;color: rgb(133, 153, 0); font-size: 10px;&quot;&gt;=&lt;/span&gt;&lt;span style=&quot;color: rgb(220, 50, 47); font-size: 10px;&quot;&gt;{&lt;/span&gt;&lt;span style=&quot;color: rgb(203, 75, 22); font-size: 10px;&quot;&gt;styles&lt;/span&gt;&lt;span style=&quot;color: rgb(101, 123, 131); font-size: 10px;&quot;&gt;.&lt;/span&gt;&lt;span style=&quot;color: rgb(38, 139, 210); font-size: 10px;&quot;&gt;top&lt;/span&gt;&lt;span style=&quot;color: rgb(220, 50, 47); font-size: 10px;&quot;&gt;}&lt;/span&gt;&lt;span style=&quot;color: rgb(147, 161, 161); font-size: 10px;&quot;&gt;&amp;gt;&lt;/span&gt;&lt;/div&gt;&lt;/div&gt;" style="rounded=0;whiteSpace=wrap;html=1;fontSize=10;fillColor=#ffe6cc;verticalAlign=top;strokeColor=#d79b00;" parent="rIGfc8pQiLcZ_JJEsUur-1" vertex="1">
          <mxGeometry x="140" y="400" width="560" height="90" as="geometry" />
        </mxCell>
        <mxCell id="rIGfc8pQiLcZ_JJEsUur-7" value="&lt;meta charset=&quot;utf-8&quot; style=&quot;font-size: 10px;&quot;&gt;&lt;div style=&quot;color: rgb(101, 123, 131); background-color: rgb(253, 246, 227); font-family: Menlo, Monaco, &amp;quot;Courier New&amp;quot;, monospace; font-weight: normal; font-size: 10px; line-height: 18px;&quot;&gt;&lt;div style=&quot;font-size: 10px;&quot;&gt;&lt;span style=&quot;color: rgb(133, 153, 0); font-size: 10px;&quot;&gt;Radio.Group&lt;/span&gt;&lt;/div&gt;&lt;/div&gt;" style="rounded=0;whiteSpace=wrap;html=1;fontSize=10;fillColor=none;verticalAlign=top;" parent="rIGfc8pQiLcZ_JJEsUur-1" vertex="1">
          <mxGeometry x="150" y="430" width="540" height="50" as="geometry" />
        </mxCell>
        <mxCell id="rIGfc8pQiLcZ_JJEsUur-8" value="&lt;div style=&quot;color: rgb(101, 123, 131); background-color: rgb(253, 246, 227); font-family: Menlo, Monaco, &amp;quot;Courier New&amp;quot;, monospace; font-weight: normal; font-size: 12px; line-height: 18px;&quot;&gt;&lt;div&gt;&lt;span style=&quot;color: #859900;&quot;&gt;Radio.Button&lt;/span&gt;&lt;/div&gt;&lt;/div&gt;" style="text;whiteSpace=wrap;html=1;fontSize=10;" parent="rIGfc8pQiLcZ_JJEsUur-1" vertex="1">
          <mxGeometry x="290" y="450" width="130" height="40" as="geometry" />
        </mxCell>
        <mxCell id="rIGfc8pQiLcZ_JJEsUur-9" value="&lt;div style=&quot;color: rgb(101, 123, 131); background-color: rgb(253, 246, 227); font-family: Menlo, Monaco, &amp;quot;Courier New&amp;quot;, monospace; font-weight: normal; font-size: 12px; line-height: 18px;&quot;&gt;&lt;div&gt;&lt;span style=&quot;color: #859900;&quot;&gt;Radio.Button&lt;/span&gt;&lt;/div&gt;&lt;/div&gt;" style="text;whiteSpace=wrap;html=1;fontSize=10;" parent="rIGfc8pQiLcZ_JJEsUur-1" vertex="1">
          <mxGeometry x="460" y="450" width="130" height="40" as="geometry" />
        </mxCell>
        <mxCell id="rIGfc8pQiLcZ_JJEsUur-10" value="&lt;div style=&quot;background-color: rgb(253, 246, 227); font-family: Menlo, Monaco, &amp;quot;Courier New&amp;quot;, monospace; font-weight: normal; font-size: 10px; line-height: 18px;&quot;&gt;&lt;div style=&quot;font-size: 10px;&quot;&gt;&lt;span style=&quot;color: rgb(147, 161, 161); font-size: 10px;&quot;&gt;&amp;lt;&lt;/span&gt;&lt;span style=&quot;color: rgb(38, 139, 210); font-size: 10px;&quot;&gt;div&lt;/span&gt;&lt;span style=&quot;color: rgb(101, 123, 131); font-size: 10px;&quot;&gt; &lt;/span&gt;&lt;span style=&quot;color: rgb(147, 161, 161); font-size: 10px;&quot;&gt;className&lt;/span&gt;&lt;span style=&quot;color: rgb(133, 153, 0); font-size: 10px;&quot;&gt;=&lt;/span&gt;&lt;span style=&quot;color: rgb(220, 50, 47); font-size: 10px;&quot;&gt;{&lt;/span&gt;&lt;span style=&quot;color: rgb(203, 75, 22); font-size: 10px;&quot;&gt;styles&lt;/span&gt;&lt;span style=&quot;color: rgb(101, 123, 131); font-size: 10px;&quot;&gt;.&lt;/span&gt;&lt;span style=&quot;font-size: 10px;&quot;&gt;&lt;font color=&quot;#268bd2&quot;&gt;container&lt;/font&gt;&lt;/span&gt;&lt;span style=&quot;color: rgb(220, 50, 47); font-size: 10px;&quot;&gt;}&lt;/span&gt;&lt;span style=&quot;color: rgb(147, 161, 161); font-size: 10px;&quot;&gt;&amp;gt;&lt;/span&gt;&lt;/div&gt;&lt;/div&gt;" style="rounded=0;whiteSpace=wrap;html=1;fontSize=10;fillColor=#dae8fc;verticalAlign=top;strokeColor=#6c8ebf;" parent="rIGfc8pQiLcZ_JJEsUur-1" vertex="1">
          <mxGeometry x="140" y="510" width="560" height="180" as="geometry" />
        </mxCell>
        <mxCell id="rIGfc8pQiLcZ_JJEsUur-11" value="&lt;meta charset=&quot;utf-8&quot;&gt;&lt;div style=&quot;color: rgb(101, 123, 131); background-color: rgb(253, 246, 227); font-family: Menlo, Monaco, &amp;quot;Courier New&amp;quot;, monospace; font-weight: normal; font-size: 12px; line-height: 18px;&quot;&gt;&lt;div&gt;&lt;span style=&quot;color: #859900;&quot;&gt;ModelInfo_Basic&lt;/span&gt;&lt;/div&gt;&lt;/div&gt;" style="text;whiteSpace=wrap;html=1;fontSize=10;" parent="rIGfc8pQiLcZ_JJEsUur-1" vertex="1">
          <mxGeometry x="270" y="566" width="140" height="40" as="geometry" />
        </mxCell>
        <mxCell id="rIGfc8pQiLcZ_JJEsUur-12" style="edgeStyle=orthogonalEdgeStyle;rounded=0;orthogonalLoop=1;jettySize=auto;html=1;entryX=0.5;entryY=0;entryDx=0;entryDy=0;fontSize=11;strokeColor=#d79b00;fillColor=#ffe6cc;strokeWidth=2;" parent="rIGfc8pQiLcZ_JJEsUur-1" source="rIGfc8pQiLcZ_JJEsUur-13" target="rIGfc8pQiLcZ_JJEsUur-14" edge="1">
          <mxGeometry relative="1" as="geometry">
            <Array as="points">
              <mxPoint x="510" y="660" />
              <mxPoint x="420" y="660" />
            </Array>
          </mxGeometry>
        </mxCell>
        <mxCell id="rIGfc8pQiLcZ_JJEsUur-13" value="&lt;meta charset=&quot;utf-8&quot;&gt;&lt;div style=&quot;color: rgb(101, 123, 131); background-color: rgb(253, 246, 227); font-family: Menlo, Monaco, &amp;quot;Courier New&amp;quot;, monospace; font-weight: normal; font-size: 12px; line-height: 18px;&quot;&gt;&lt;div&gt;&lt;span style=&quot;color: #859900;&quot;&gt;ModelInfo_Run&lt;/span&gt;&lt;/div&gt;&lt;/div&gt;" style="text;whiteSpace=wrap;html=1;fontSize=10;" parent="rIGfc8pQiLcZ_JJEsUur-1" vertex="1">
          <mxGeometry x="460" y="566" width="100" height="30" as="geometry" />
        </mxCell>
        <mxCell id="rIGfc8pQiLcZ_JJEsUur-14" value="&lt;meta charset=&quot;utf-8&quot; style=&quot;font-size: 15px;&quot;&gt;&lt;div style=&quot;color: rgb(101, 123, 131); background-color: rgb(253, 246, 227); font-family: Menlo, Monaco, &amp;quot;Courier New&amp;quot;, monospace; font-weight: normal; font-size: 15px; line-height: 18px;&quot;&gt;&lt;div style=&quot;font-size: 15px;&quot;&gt;&lt;span style=&quot;color: rgb(133, 153, 0); font-size: 15px;&quot;&gt;ModelInfo_Run&lt;/span&gt;&lt;/div&gt;&lt;/div&gt;" style="rounded=0;whiteSpace=wrap;html=1;fontSize=16;fillColor=none;verticalAlign=top;strokeColor=#0000CC;strokeWidth=2;" parent="rIGfc8pQiLcZ_JJEsUur-1" vertex="1">
          <mxGeometry x="80" y="790" width="680" height="370" as="geometry" />
        </mxCell>
        <mxCell id="rIGfc8pQiLcZ_JJEsUur-15" value="&lt;meta charset=&quot;utf-8&quot; style=&quot;font-size: 10px;&quot;&gt;&lt;div style=&quot;color: rgb(101, 123, 131); background-color: rgb(253, 246, 227); font-family: Menlo, Monaco, &amp;quot;Courier New&amp;quot;, monospace; font-weight: normal; font-size: 10px; line-height: 18px;&quot;&gt;&lt;div style=&quot;font-size: 10px;&quot;&gt;&lt;span style=&quot;color: rgb(147, 161, 161); font-size: 10px;&quot;&gt;&amp;lt;&lt;/span&gt;&lt;span style=&quot;color: rgb(38, 139, 210); font-size: 10px;&quot;&gt;div&lt;/span&gt;&lt;span style=&quot;color: rgb(101, 123, 131); font-size: 10px;&quot;&gt; &lt;/span&gt;&lt;span style=&quot;color: rgb(147, 161, 161); font-size: 10px;&quot;&gt;className&lt;/span&gt;&lt;span style=&quot;color: rgb(133, 153, 0); font-size: 10px;&quot;&gt;=&lt;/span&gt;&lt;span style=&quot;color: rgb(220, 50, 47); font-size: 10px;&quot;&gt;{&lt;/span&gt;&lt;span style=&quot;color: rgb(203, 75, 22); font-size: 10px;&quot;&gt;styles&lt;/span&gt;&lt;span style=&quot;color: rgb(101, 123, 131); font-size: 10px;&quot;&gt;.&lt;/span&gt;&lt;span style=&quot;color: rgb(38, 139, 210); font-size: 10px;&quot;&gt;wrapper&lt;/span&gt;&lt;span style=&quot;color: rgb(220, 50, 47); font-size: 10px;&quot;&gt;}&lt;/span&gt;&lt;span style=&quot;color: rgb(147, 161, 161); font-size: 10px;&quot;&gt;&amp;gt;&lt;/span&gt;&lt;/div&gt;&lt;/div&gt;" style="rounded=0;whiteSpace=wrap;html=1;fontSize=10;fillColor=#fff2cc;verticalAlign=top;strokeColor=#d6b656;" parent="rIGfc8pQiLcZ_JJEsUur-1" vertex="1">
          <mxGeometry x="100" y="830" width="640" height="310" as="geometry" />
        </mxCell>
        <mxCell id="rIGfc8pQiLcZ_JJEsUur-16" value="&lt;div style=&quot;color: rgb(101, 123, 131); background-color: rgb(253, 246, 227); font-family: Menlo, Monaco, &amp;quot;Courier New&amp;quot;, monospace; font-weight: normal; font-size: 11px; line-height: 18px;&quot;&gt;&lt;div style=&quot;font-size: 11px;&quot;&gt;&lt;span style=&quot;color: rgb(133, 153, 0); font-size: 11px;&quot;&gt;Steps&lt;/span&gt;&lt;/div&gt;&lt;/div&gt;" style="rounded=0;whiteSpace=wrap;html=1;fontSize=11;fillColor=#ffe6cc;verticalAlign=top;strokeColor=#d79b00;" parent="rIGfc8pQiLcZ_JJEsUur-1" vertex="1">
          <mxGeometry x="120" y="870" width="600" height="60" as="geometry" />
        </mxCell>
        <mxCell id="rIGfc8pQiLcZ_JJEsUur-17" value="&lt;div style=&quot;color: rgb(101, 123, 131); background-color: rgb(253, 246, 227); font-family: Menlo, Monaco, &amp;quot;Courier New&amp;quot;, monospace; font-weight: normal; font-size: 11px; line-height: 18px;&quot;&gt;&lt;div style=&quot;font-size: 11px;&quot;&gt;&lt;span style=&quot;color: rgb(133, 153, 0); font-size: 11px;&quot;&gt;div&lt;/span&gt;&lt;/div&gt;&lt;/div&gt;" style="rounded=0;whiteSpace=wrap;html=1;fontSize=11;fillColor=#dae8fc;verticalAlign=top;strokeColor=#6c8ebf;" parent="rIGfc8pQiLcZ_JJEsUur-1" vertex="1">
          <mxGeometry x="120" y="950" width="600" height="170" as="geometry" />
        </mxCell>
        <mxCell id="OrpRa8RaVUZb_oDoTwpF-5" style="edgeStyle=orthogonalEdgeStyle;rounded=0;orthogonalLoop=1;jettySize=auto;html=1;entryX=1;entryY=0.5;entryDx=0;entryDy=0;fontSize=11;strokeColor=#d79b00;fillColor=#ffe6cc;strokeWidth=2;" parent="rIGfc8pQiLcZ_JJEsUur-1" source="rIGfc8pQiLcZ_JJEsUur-18" target="OrpRa8RaVUZb_oDoTwpF-0" edge="1">
          <mxGeometry relative="1" as="geometry" />
        </mxCell>
        <mxCell id="rIGfc8pQiLcZ_JJEsUur-18" value="&lt;meta charset=&quot;utf-8&quot;&gt;&lt;div style=&quot;color: rgb(101, 123, 131); background-color: rgb(253, 246, 227); font-family: Menlo, Monaco, &amp;quot;Courier New&amp;quot;, monospace; font-weight: normal; font-size: 12px; line-height: 18px;&quot;&gt;&lt;div&gt;&lt;span style=&quot;color: #859900;&quot;&gt;ModelParameters&lt;/span&gt;&lt;/div&gt;&lt;/div&gt;" style="text;whiteSpace=wrap;html=1;fontSize=15;" parent="rIGfc8pQiLcZ_JJEsUur-1" vertex="1">
          <mxGeometry x="140" y="1020" width="140" height="40" as="geometry" />
        </mxCell>
        <mxCell id="rIGfc8pQiLcZ_JJEsUur-19" value="&lt;meta charset=&quot;utf-8&quot;&gt;&lt;div style=&quot;color: rgb(101, 123, 131); background-color: rgb(253, 246, 227); font-family: Menlo, Monaco, &amp;quot;Courier New&amp;quot;, monospace; font-weight: normal; font-size: 12px; line-height: 18px;&quot;&gt;&lt;div&gt;&lt;span style=&quot;color: #859900;&quot;&gt;ModelTask&lt;/span&gt;&lt;/div&gt;&lt;/div&gt;" style="text;whiteSpace=wrap;html=1;fontSize=15;" parent="rIGfc8pQiLcZ_JJEsUur-1" vertex="1">
          <mxGeometry x="290" y="1020" width="100" height="40" as="geometry" />
        </mxCell>
        <mxCell id="rIGfc8pQiLcZ_JJEsUur-20" value="&lt;meta charset=&quot;utf-8&quot;&gt;&lt;div style=&quot;color: rgb(101, 123, 131); background-color: rgb(253, 246, 227); font-family: Menlo, Monaco, &amp;quot;Courier New&amp;quot;, monospace; font-weight: normal; font-size: 12px; line-height: 18px;&quot;&gt;&lt;div&gt;&lt;span style=&quot;color: #859900;&quot;&gt;ModelMonitor&lt;/span&gt;&lt;/div&gt;&lt;/div&gt;" style="text;whiteSpace=wrap;html=1;fontSize=15;" parent="rIGfc8pQiLcZ_JJEsUur-1" vertex="1">
          <mxGeometry x="410" y="1020" width="120" height="40" as="geometry" />
        </mxCell>
        <mxCell id="rIGfc8pQiLcZ_JJEsUur-21" value="&lt;meta charset=&quot;utf-8&quot;&gt;&lt;div style=&quot;color: rgb(101, 123, 131); background-color: rgb(253, 246, 227); font-family: Menlo, Monaco, &amp;quot;Courier New&amp;quot;, monospace; font-weight: normal; font-size: 12px; line-height: 18px;&quot;&gt;&lt;div&gt;&lt;span style=&quot;color: #859900;&quot;&gt;ModelSuccess&lt;/span&gt;&lt;/div&gt;&lt;/div&gt;" style="text;whiteSpace=wrap;html=1;fontSize=15;" parent="rIGfc8pQiLcZ_JJEsUur-1" vertex="1">
          <mxGeometry x="540" y="1020" width="120" height="40" as="geometry" />
        </mxCell>
        <mxCell id="rIGfc8pQiLcZ_JJEsUur-22" value="&lt;meta charset=&quot;utf-8&quot;&gt;&lt;div style=&quot;color: rgb(101, 123, 131); background-color: rgb(253, 246, 227); font-family: Menlo, Monaco, &amp;quot;Courier New&amp;quot;, monospace; font-weight: normal; font-size: 12px; line-height: 18px;&quot;&gt;&lt;div&gt;&lt;span style=&quot;color: #859900;&quot;&gt;ModelFaild&lt;/span&gt;&lt;/div&gt;&lt;/div&gt;" style="text;whiteSpace=wrap;html=1;fontSize=15;" parent="rIGfc8pQiLcZ_JJEsUur-1" vertex="1">
          <mxGeometry x="540" y="1060" width="110" height="40" as="geometry" />
        </mxCell>
        <mxCell id="rIGfc8pQiLcZ_JJEsUur-23" value="&lt;div style=&quot;color: rgb(101, 123, 131); background-color: rgb(253, 246, 227); font-family: Menlo, Monaco, &amp;quot;Courier New&amp;quot;, monospace; font-weight: normal; font-size: 16px; line-height: 18px;&quot;&gt;&lt;div style=&quot;font-size: 16px;&quot;&gt;&lt;span style=&quot;color: rgb(38, 139, 210); font-size: 16px;&quot;&gt;ModelGrid&lt;/span&gt;&lt;/div&gt;&lt;/div&gt;" style="rounded=0;whiteSpace=wrap;html=1;fontSize=16;fillColor=none;verticalAlign=top;strokeColor=#0000CC;strokeWidth=2;" parent="rIGfc8pQiLcZ_JJEsUur-1" vertex="1">
          <mxGeometry x="80" y="10" width="680" height="210" as="geometry" />
        </mxCell>
        <mxCell id="OrpRa8RaVUZb_oDoTwpF-4" style="edgeStyle=orthogonalEdgeStyle;rounded=0;orthogonalLoop=1;jettySize=auto;html=1;entryX=1;entryY=0.5;entryDx=0;entryDy=0;fontSize=11;strokeColor=#d79b00;fillColor=#ffe6cc;strokeWidth=2;" parent="rIGfc8pQiLcZ_JJEsUur-1" source="rIGfc8pQiLcZ_JJEsUur-25" target="rIGfc8pQiLcZ_JJEsUur-29" edge="1">
          <mxGeometry relative="1" as="geometry" />
        </mxCell>
        <mxCell id="rIGfc8pQiLcZ_JJEsUur-25" value="&lt;div style=&quot;color: rgb(101, 123, 131); background-color: rgb(253, 246, 227); font-family: Menlo, Monaco, &amp;quot;Courier New&amp;quot;, monospace; font-weight: normal; font-size: 12px; line-height: 18px;&quot;&gt;&lt;div&gt;&lt;span style=&quot;color: #859900;&quot;&gt;ModelToolbox&lt;/span&gt;&lt;/div&gt;&lt;/div&gt;" style="rounded=0;whiteSpace=wrap;html=1;" parent="rIGfc8pQiLcZ_JJEsUur-1" vertex="1">
          <mxGeometry x="150" y="70" width="180" height="60" as="geometry" />
        </mxCell>
        <mxCell id="rIGfc8pQiLcZ_JJEsUur-26" style="edgeStyle=orthogonalEdgeStyle;rounded=0;orthogonalLoop=1;jettySize=auto;html=1;entryX=0.5;entryY=0;entryDx=0;entryDy=0;strokeColor=#d79b00;fillColor=#ffe6cc;strokeWidth=2;" parent="rIGfc8pQiLcZ_JJEsUur-1" source="rIGfc8pQiLcZ_JJEsUur-27" target="rIGfc8pQiLcZ_JJEsUur-2" edge="1">
          <mxGeometry relative="1" as="geometry" />
        </mxCell>
        <mxCell id="rIGfc8pQiLcZ_JJEsUur-27" value="&lt;meta charset=&quot;utf-8&quot;&gt;&lt;div style=&quot;color: rgb(101, 123, 131); background-color: rgb(253, 246, 227); font-family: Menlo, Monaco, &amp;quot;Courier New&amp;quot;, monospace; font-weight: normal; font-size: 12px; line-height: 18px;&quot;&gt;&lt;div&gt;&lt;span style=&quot;color: #859900;&quot;&gt;ModelModal&lt;/span&gt;&lt;/div&gt;&lt;/div&gt;" style="rounded=0;whiteSpace=wrap;html=1;" parent="rIGfc8pQiLcZ_JJEsUur-1" vertex="1">
          <mxGeometry x="510" y="70" width="120" height="60" as="geometry" />
        </mxCell>
        <mxCell id="rIGfc8pQiLcZ_JJEsUur-28" value="模型运行对话框" style="text;html=1;strokeColor=none;fillColor=none;align=center;verticalAlign=middle;whiteSpace=wrap;rounded=0;" parent="rIGfc8pQiLcZ_JJEsUur-1" vertex="1">
          <mxGeometry x="530" y="40" width="90" height="30" as="geometry" />
        </mxCell>
        <mxCell id="rIGfc8pQiLcZ_JJEsUur-29" value="&lt;div style=&quot;color: rgb(101, 123, 131); background-color: rgb(253, 246, 227); font-family: Menlo, Monaco, &amp;quot;Courier New&amp;quot;, monospace; font-weight: normal; font-size: 16px; line-height: 18px;&quot;&gt;&lt;div style=&quot;font-size: 16px;&quot;&gt;&lt;span style=&quot;color: rgb(38, 139, 210); font-size: 16px;&quot;&gt;ModelToolbox&lt;/span&gt;&lt;/div&gt;&lt;/div&gt;" style="rounded=0;whiteSpace=wrap;html=1;fontSize=16;fillColor=none;verticalAlign=top;strokeColor=#0000CC;strokeWidth=2;movable=1;resizable=1;rotatable=1;deletable=1;editable=1;locked=0;connectable=1;" parent="rIGfc8pQiLcZ_JJEsUur-1" vertex="1">
          <mxGeometry x="-610" y="10" width="600" height="210" as="geometry" />
        </mxCell>
        <mxCell id="rIGfc8pQiLcZ_JJEsUur-31" style="edgeStyle=orthogonalEdgeStyle;rounded=0;orthogonalLoop=1;jettySize=auto;html=1;entryX=0.5;entryY=0;entryDx=0;entryDy=0;strokeColor=#d79b00;fillColor=#ffe6cc;strokeWidth=2;" parent="rIGfc8pQiLcZ_JJEsUur-1" source="rIGfc8pQiLcZ_JJEsUur-32" target="rIGfc8pQiLcZ_JJEsUur-38" edge="1">
          <mxGeometry relative="1" as="geometry" />
        </mxCell>
        <mxCell id="rIGfc8pQiLcZ_JJEsUur-33" value="&#xa;&lt;div style=&quot;color: rgb(101, 123, 131); background-color: rgb(253, 246, 227); font-family: Consolas, &amp;quot;Courier New&amp;quot;, monospace; font-weight: normal; font-size: 13px; line-height: 19px;&quot;&gt;&lt;div style=&quot;font-size: 13px;&quot;&gt;&lt;span style=&quot;color: rgb(133, 153, 0); font-size: 13px;&quot;&gt;ModelCategoryTree&lt;/span&gt;&lt;/div&gt;&lt;/div&gt;&#xa;&#xa;" style="rounded=0;whiteSpace=wrap;html=1;fontSize=13;fillColor=#d5e8d4;verticalAlign=top;strokeColor=#82b366;" parent="rIGfc8pQiLcZ_JJEsUur-1" vertex="1">
          <mxGeometry x="-520" y="70" width="160" height="130" as="geometry" />
        </mxCell>
        <mxCell id="rIGfc8pQiLcZ_JJEsUur-34" value="&lt;meta charset=&quot;utf-8&quot;&gt;&lt;div style=&quot;color: rgb(101, 123, 131); background-color: rgb(253, 246, 227); font-family: Menlo, Monaco, &amp;quot;Courier New&amp;quot;, monospace; font-weight: normal; font-size: 12px; line-height: 18px;&quot;&gt;&lt;div&gt;&lt;span style=&quot;color: #859900;&quot;&gt;Search&lt;/span&gt;&lt;/div&gt;&lt;/div&gt;" style="text;whiteSpace=wrap;html=1;" parent="rIGfc8pQiLcZ_JJEsUur-1" vertex="1">
          <mxGeometry x="-470" y="130" width="80" height="40" as="geometry" />
        </mxCell>
        <mxCell id="rIGfc8pQiLcZ_JJEsUur-35" value="&lt;meta charset=&quot;utf-8&quot;&gt;&lt;div style=&quot;color: rgb(101, 123, 131); background-color: rgb(253, 246, 227); font-family: Menlo, Monaco, &amp;quot;Courier New&amp;quot;, monospace; font-weight: normal; font-size: 12px; line-height: 18px;&quot;&gt;&lt;div&gt;&lt;span style=&quot;color: #859900;&quot;&gt;Tree&lt;/span&gt;&lt;/div&gt;&lt;/div&gt;" style="text;whiteSpace=wrap;html=1;" parent="rIGfc8pQiLcZ_JJEsUur-1" vertex="1">
          <mxGeometry x="-470" y="160" width="60" height="40" as="geometry" />
        </mxCell>
        <mxCell id="rIGfc8pQiLcZ_JJEsUur-36" value="模型资源列表" style="text;html=1;strokeColor=none;fillColor=none;align=center;verticalAlign=middle;whiteSpace=wrap;rounded=0;" parent="rIGfc8pQiLcZ_JJEsUur-1" vertex="1">
          <mxGeometry x="-485" y="40" width="90" height="30" as="geometry" />
        </mxCell>
        <mxCell id="rIGfc8pQiLcZ_JJEsUur-38" value="&lt;meta charset=&quot;utf-8&quot; style=&quot;font-size: 16px;&quot;&gt;&lt;div style=&quot;color: rgb(101, 123, 131); background-color: rgb(253, 246, 227); font-family: Menlo, Monaco, &amp;quot;Courier New&amp;quot;, monospace; font-weight: normal; font-size: 16px; line-height: 18px;&quot;&gt;&lt;div style=&quot;font-size: 16px;&quot;&gt;&lt;span style=&quot;color: rgb(38, 139, 210); font-size: 16px;&quot;&gt;ModelRunHistoryModal&lt;/span&gt;&lt;/div&gt;&lt;/div&gt;" style="rounded=0;whiteSpace=wrap;html=1;fontSize=16;fillColor=none;verticalAlign=top;strokeColor=#0000CC;strokeWidth=2;" parent="rIGfc8pQiLcZ_JJEsUur-1" vertex="1">
          <mxGeometry x="-610" y="250" width="600" height="280" as="geometry" />
        </mxCell>
        <mxCell id="rIGfc8pQiLcZ_JJEsUur-39" value="&lt;meta charset=&quot;utf-8&quot; style=&quot;font-size: 15px;&quot;&gt;&lt;div style=&quot;color: rgb(101, 123, 131); background-color: rgb(253, 246, 227); font-family: Menlo, Monaco, &amp;quot;Courier New&amp;quot;, monospace; font-weight: normal; font-size: 15px; line-height: 18px;&quot;&gt;&lt;div style=&quot;font-size: 15px;&quot;&gt;&lt;span style=&quot;color: rgb(133, 153, 0); font-size: 15px;&quot;&gt;Modal&lt;/span&gt;&lt;/div&gt;&lt;/div&gt;" style="rounded=0;whiteSpace=wrap;html=1;fontSize=15;fillColor=none;verticalAlign=top;" parent="rIGfc8pQiLcZ_JJEsUur-1" vertex="1">
          <mxGeometry x="-590" y="290" width="560" height="220" as="geometry" />
        </mxCell>
        <mxCell id="rIGfc8pQiLcZ_JJEsUur-40" value="&lt;meta charset=&quot;utf-8&quot;&gt;&lt;div style=&quot;color: rgb(101, 123, 131); background-color: rgb(253, 246, 227); font-family: Menlo, Monaco, &amp;quot;Courier New&amp;quot;, monospace; font-weight: normal; font-size: 12px; line-height: 18px;&quot;&gt;&lt;div&gt;&lt;span style=&quot;color: #859900;&quot;&gt;ModelRunHistory&lt;/span&gt;&lt;/div&gt;&lt;/div&gt;" style="rounded=0;whiteSpace=wrap;html=1;fontSize=16;fillColor=none;verticalAlign=top;" parent="rIGfc8pQiLcZ_JJEsUur-1" vertex="1">
          <mxGeometry x="-570" y="330" width="520" height="160" as="geometry" />
        </mxCell>
        <mxCell id="rIGfc8pQiLcZ_JJEsUur-41" value="模型运行对话框" style="text;html=1;strokeColor=none;fillColor=none;align=center;verticalAlign=middle;whiteSpace=wrap;rounded=0;" parent="rIGfc8pQiLcZ_JJEsUur-1" vertex="1">
          <mxGeometry x="-360" y="380" width="90" height="30" as="geometry" />
        </mxCell>
        <mxCell id="rIGfc8pQiLcZ_JJEsUur-42" value="模型工具箱" style="text;html=1;strokeColor=none;fillColor=none;align=center;verticalAlign=middle;whiteSpace=wrap;rounded=0;" parent="rIGfc8pQiLcZ_JJEsUur-1" vertex="1">
          <mxGeometry x="200" y="40" width="90" height="30" as="geometry" />
        </mxCell>
        <mxCell id="rIGfc8pQiLcZ_JJEsUur-43" value="模型元数据" style="text;html=1;strokeColor=none;fillColor=none;align=center;verticalAlign=middle;whiteSpace=wrap;rounded=0;fontSize=15;" parent="rIGfc8pQiLcZ_JJEsUur-1" vertex="1">
          <mxGeometry x="280" y="545" width="90" height="30" as="geometry" />
        </mxCell>
        <mxCell id="rIGfc8pQiLcZ_JJEsUur-44" value="模型计算导航" style="text;html=1;strokeColor=none;fillColor=none;align=center;verticalAlign=middle;whiteSpace=wrap;rounded=0;fontSize=15;" parent="rIGfc8pQiLcZ_JJEsUur-1" vertex="1">
          <mxGeometry x="460" y="545" width="100" height="30" as="geometry" />
        </mxCell>
        <mxCell id="rIGfc8pQiLcZ_JJEsUur-45" value="第一步——第四步" style="text;html=1;strokeColor=none;fillColor=none;align=center;verticalAlign=middle;whiteSpace=wrap;rounded=0;fontSize=15;" parent="rIGfc8pQiLcZ_JJEsUur-1" vertex="1">
          <mxGeometry x="320" y="900" width="200" height="30" as="geometry" />
        </mxCell>
        <mxCell id="rIGfc8pQiLcZ_JJEsUur-46" value="模型参数设置" style="text;html=1;strokeColor=none;fillColor=none;align=center;verticalAlign=middle;whiteSpace=wrap;rounded=0;fontSize=15;" parent="rIGfc8pQiLcZ_JJEsUur-1" vertex="1">
          <mxGeometry x="140" y="990" width="110" height="30" as="geometry" />
        </mxCell>
        <mxCell id="rIGfc8pQiLcZ_JJEsUur-47" value="任务信息设置" style="text;html=1;strokeColor=none;fillColor=none;align=center;verticalAlign=middle;whiteSpace=wrap;rounded=0;fontSize=15;" parent="rIGfc8pQiLcZ_JJEsUur-1" vertex="1">
          <mxGeometry x="270" y="990" width="110" height="30" as="geometry" />
        </mxCell>
        <mxCell id="rIGfc8pQiLcZ_JJEsUur-48" value="模型运行" style="text;html=1;strokeColor=none;fillColor=none;align=center;verticalAlign=middle;whiteSpace=wrap;rounded=0;fontSize=15;" parent="rIGfc8pQiLcZ_JJEsUur-1" vertex="1">
          <mxGeometry x="400" y="990" width="110" height="30" as="geometry" />
        </mxCell>
        <mxCell id="rIGfc8pQiLcZ_JJEsUur-49" value="运行结果" style="text;html=1;strokeColor=none;fillColor=none;align=center;verticalAlign=middle;whiteSpace=wrap;rounded=0;fontSize=15;" parent="rIGfc8pQiLcZ_JJEsUur-1" vertex="1">
          <mxGeometry x="530" y="990" width="110" height="30" as="geometry" />
        </mxCell>
        <mxCell id="rIGfc8pQiLcZ_JJEsUur-50" style="edgeStyle=orthogonalEdgeStyle;rounded=0;orthogonalLoop=1;jettySize=auto;html=1;entryX=0;entryY=0.25;entryDx=0;entryDy=0;strokeWidth=2;fontSize=11;strokeColor=#FFB366;" parent="rIGfc8pQiLcZ_JJEsUur-1" source="rIGfc8pQiLcZ_JJEsUur-51" target="rIGfc8pQiLcZ_JJEsUur-2" edge="1">
          <mxGeometry relative="1" as="geometry" />
        </mxCell>
        <mxCell id="rIGfc8pQiLcZ_JJEsUur-51" value="&lt;meta charset=&quot;utf-8&quot;&gt;&lt;div style=&quot;color: rgb(101, 123, 131); background-color: rgb(253, 246, 227); font-family: Menlo, Monaco, &amp;quot;Courier New&amp;quot;, monospace; font-weight: normal; font-size: 12px; line-height: 18px;&quot;&gt;&lt;div&gt;&lt;span style=&quot;color: #859900;&quot;&gt;ModelModal&lt;/span&gt;&lt;/div&gt;&lt;/div&gt;" style="rounded=0;whiteSpace=wrap;html=1;" parent="rIGfc8pQiLcZ_JJEsUur-1" vertex="1">
          <mxGeometry x="-375" y="415" width="120" height="60" as="geometry" />
        </mxCell>
        <mxCell id="yNq4-038Bzv56V7Ao-Mf-0" value="" style="group" parent="rIGfc8pQiLcZ_JJEsUur-1" vertex="1" connectable="0">
          <mxGeometry x="-260" y="40" width="150" height="60" as="geometry" />
        </mxCell>
        <mxCell id="rIGfc8pQiLcZ_JJEsUur-32" value="&lt;meta charset=&quot;utf-8&quot;&gt;&lt;div style=&quot;color: rgb(101, 123, 131); background-color: rgb(253, 246, 227); font-family: Menlo, Monaco, &amp;quot;Courier New&amp;quot;, monospace; font-weight: normal; font-size: 12px; line-height: 18px;&quot;&gt;&lt;div&gt;&lt;span style=&quot;color: #859900;&quot;&gt;ModelRunHistoryModal&lt;/span&gt;&lt;/div&gt;&lt;/div&gt;" style="text;whiteSpace=wrap;html=1;" parent="yNq4-038Bzv56V7Ao-Mf-0" vertex="1">
          <mxGeometry y="30" width="150" height="30" as="geometry" />
        </mxCell>
        <mxCell id="rIGfc8pQiLcZ_JJEsUur-37" value="模型运行记录" style="text;html=1;strokeColor=none;fillColor=none;align=center;verticalAlign=middle;whiteSpace=wrap;rounded=0;" parent="yNq4-038Bzv56V7Ao-Mf-0" vertex="1">
          <mxGeometry x="30" width="90" height="30" as="geometry" />
        </mxCell>
        <mxCell id="OrpRa8RaVUZb_oDoTwpF-0" value="&lt;span style=&quot;color: rgb(38, 139, 210); background-color: rgb(253, 246, 227); font-family: Consolas, &amp;quot;Courier New&amp;quot;, monospace;&quot;&gt;ModelParameters&lt;/span&gt;" style="rounded=0;whiteSpace=wrap;html=1;fontSize=15;fillColor=none;verticalAlign=top;strokeColor=#0000CC;strokeWidth=2;" parent="rIGfc8pQiLcZ_JJEsUur-1" vertex="1">
          <mxGeometry x="-610" y="610" width="600" height="280" as="geometry" />
        </mxCell>
        <mxCell id="OrpRa8RaVUZb_oDoTwpF-1" value="&lt;span style=&quot;color: rgb(133, 153, 0); background-color: rgb(253, 246, 227); font-family: Consolas, &amp;quot;Courier New&amp;quot;, monospace; font-size: 14px;&quot;&gt;Form&lt;/span&gt;" style="rounded=0;whiteSpace=wrap;html=1;fontSize=15;fillColor=none;verticalAlign=top;" parent="rIGfc8pQiLcZ_JJEsUur-1" vertex="1">
          <mxGeometry x="-590" y="650" width="560" height="220" as="geometry" />
        </mxCell>
        <mxCell id="OrpRa8RaVUZb_oDoTwpF-2" value="&lt;div style=&quot;color: rgb(101, 123, 131); background-color: rgb(253, 246, 227); font-family: Consolas, &amp;quot;Courier New&amp;quot;, monospace; font-weight: normal; font-size: 14px; line-height: 19px;&quot;&gt;&lt;div&gt;&lt;span style=&quot;color: #859900;&quot;&gt;Submit&lt;/span&gt;&lt;/div&gt;&lt;/div&gt;" style="text;whiteSpace=wrap;html=1;fontSize=15;" parent="rIGfc8pQiLcZ_JJEsUur-1" vertex="1">
          <mxGeometry x="-340" y="830" width="80" height="40" as="geometry" />
        </mxCell>
        <mxCell id="OrpRa8RaVUZb_oDoTwpF-3" value="&lt;span style=&quot;color: rgb(133, 153, 0); background-color: rgb(253, 246, 227); font-family: Consolas, &amp;quot;Courier New&amp;quot;, monospace; font-size: 14px;&quot;&gt;SchemaField&lt;/span&gt;" style="rounded=0;whiteSpace=wrap;html=1;fontSize=15;fillColor=none;verticalAlign=top;" parent="rIGfc8pQiLcZ_JJEsUur-1" vertex="1">
          <mxGeometry x="-565" y="685" width="510" height="130" as="geometry" />
        </mxCell>
      </root>
    </mxGraphModel>
  </diagram>
</mxfile>
